<?xml version="1.0" standalone="no"?>
<!DOCTYPE svg PUBLIC "-//W3C//DTD SVG 1.1//EN" "http://www.w3.org/Graphics/SVG/1.1/DTD/svg11.dtd" >
<svg xmlns="http://www.w3.org/2000/svg" xmlns:xlink="http://www.w3.org/1999/xlink" version="1.1">
<metadata></metadata>
<defs>
<font id="naked_power_rgregular" horiz-adv-x="1718" >
<font-face units-per-em="2048" ascent="1536" descent="-512" />
<missing-glyph horiz-adv-x="606" />
<glyph unicode="&#x28;C&#x29;" horiz-adv-x="1652" d="M70 725q0 154 60 294t161 241t240 161t292 60q155 0 295.5 -60t241.5 -161t161 -241t60 -294q0 -153 -60 -293t-161 -241.5t-241.5 -161.5t-295.5 -60q-152 0 -291.5 60t-240.5 161.5t-161 241.5t-60 293zM231 725q0 -161 79 -298.5t215.5 -217.5t297.5 -80 q122 0 232.5 47.5t190 127.5t126.5 190t47 231q0 122 -47 231.5t-126.5 188.5t-190 125.5t-232.5 46.5q-121 0 -230.5 -46.5t-189 -125.5t-126 -188.5t-46.5 -231.5zM463 727q0 165 106.5 267t264.5 102q164 0 256 -101l-78 -127q-63 70 -174 70q-88 0 -146.5 -56.5 t-58.5 -146.5q0 -95 53.5 -154t151.5 -59q128 0 217 105l86 -107q-61 -75 -143.5 -113t-170.5 -38q-174 0 -269 97.5t-95 260.5z" />
<glyph unicode="&#x28;R&#x29;" horiz-adv-x="1652" d="M70 725q0 154 60 294t161 241t240 161t292 60q155 0 295.5 -60t241.5 -161t161 -241t60 -294q0 -153 -60 -293t-161 -241.5t-241.5 -161.5t-295.5 -60q-152 0 -291.5 60t-240.5 161.5t-161 241.5t-60 293zM231 725q0 -161 79 -298.5t215.5 -217.5t297.5 -80 q122 0 232.5 47.5t190 127.5t126.5 190t47 231q0 122 -47 231.5t-126.5 188.5t-190 125.5t-232.5 46.5q-121 0 -230.5 -46.5t-189 -125.5t-126 -188.5t-46.5 -231.5zM549 424v649h260q62 0 114 -10.5t97 -34.5t70.5 -68t25.5 -104q0 -78 -42.5 -123t-119.5 -67l211 -242 h-209q-117 140 -170 207h-69v-207h-168zM717 741h92q62 0 100.5 25.5t38.5 77.5q0 102 -139 102h-92v-205z" />
<glyph horiz-adv-x="0" />
<glyph horiz-adv-x="682" />
<glyph horiz-adv-x="606" />
<glyph unicode=" "  horiz-adv-x="606" />
<glyph unicode="&#x09;" horiz-adv-x="606" />
<glyph unicode="&#xa0;" horiz-adv-x="606" />
<glyph unicode="!" horiz-adv-x="581" d="M127 793v684h324v-684l-74 -338h-176zM141 0v373h295v-373h-295z" />
<glyph unicode="&#x22;" horiz-adv-x="888" d="M82 991v459h272v-459l-61 -313h-148zM526 991v459h273v-459l-62 -313h-147z" />
<glyph unicode="#" horiz-adv-x="1200" d="M66 395v158h190l68 350h-205v158h237l76 389h197l-76 -389h242l75 389h201l-78 -389h137v-158h-167l-68 -350h182v-158h-213l-76 -395h-198l76 395h-244l-76 -395h-199l78 395h-159zM455 553h241l68 350h-242z" />
<glyph unicode="$" horiz-adv-x="1085" d="M45 391l156 129q115 -149 338 -149q39 0 74.5 5.5t72.5 18t59.5 39t22.5 64.5q0 46 -38.5 74t-100 40.5t-135.5 22.5t-148 28.5t-135.5 50t-100 95.5t-38.5 156q0 67 25 119t64.5 84t95 53.5t108 30.5t112.5 12v186h144v-188q194 -13 325 -109l-100 -168q-144 86 -311 86 q-52 0 -95 -11t-72.5 -36.5t-29.5 -62.5q0 -40 29 -66.5t82 -40t106 -20.5t123.5 -15.5t112.5 -17.5q235 -54 235 -277q0 -169 -111 -258.5t-294 -105.5v-160h-144v154q-315 18 -432 237z" />
<glyph unicode="%" horiz-adv-x="1703" d="M72 1110q0 168 89 271.5t255 103.5t255 -103.5t89 -271.5q0 -83 -19 -150t-59 -119.5t-107.5 -81t-158.5 -28.5t-158.5 28.5t-107.5 81t-59 119.5t-19 150zM207 -78l1077 1594h203l-1079 -1594h-201zM268 1104q0 -112 33 -168.5t115 -56.5t114.5 56.5t32.5 168.5 q0 109 -32.5 170t-114.5 61t-115 -61t-33 -170zM944 344q0 168 89 271.5t255 103.5t255 -103.5t89 -271.5q0 -83 -19 -150t-59 -119.5t-107.5 -81t-158.5 -28.5t-158.5 28.5t-107.5 81t-59 119.5t-19 150zM1141 338q0 -112 32.5 -168.5t114.5 -56.5t115 56.5t33 168.5 q0 109 -33 170t-115 61t-114.5 -61t-32.5 -170z" />
<glyph unicode="&#x26;" horiz-adv-x="1720" d="M49 477q0 158 95 281t247 188q-55 108 -55 203q0 79 35.5 139.5t89.5 95.5t129 57.5t143.5 30t143.5 7.5q285 0 436 -107l-103 -227q-99 96 -280 96q-39 0 -77.5 -6t-79.5 -20t-66 -43t-25 -70q0 -65 51.5 -148.5t137.5 -168t168.5 -153.5t174.5 -136q183 198 261 471 l184 -136q-86 -280 -244 -471q145 -88 297 -145q-14 -27 -58 -112.5t-69 -131.5q-196 55 -393 181q-259 -181 -565 -181q-119 0 -222 31.5t-183.5 92t-126.5 159t-46 223.5zM362 508q0 -140 91.5 -211.5t234.5 -71.5q153 0 289 84q-194 159 -434 424q-75 -25 -128 -86 t-53 -139z" />
<glyph unicode="'" horiz-adv-x="444" d="M82 991v459h272v-459l-61 -313h-148z" />
<glyph unicode="(" horiz-adv-x="765" d="M188 463v520q0 171 33 303t96.5 222.5t144.5 149.5t189 97l84 -164q-182 -71 -262 -219.5t-80 -376.5v-538q0 -473 342 -600l-84 -166q-85 30 -153.5 72t-127.5 106t-98.5 147t-61.5 196t-22 251z" />
<glyph unicode=")" horiz-adv-x="768" d="M35 -141q342 125 342 598v538q0 227 -80.5 376t-261.5 220q16 29 44 85t40 79q107 -39 188 -97.5t144.5 -149t97 -222.5t33.5 -303v-520q0 -171 -33.5 -303t-97 -222.5t-144.5 -149t-188 -97.5z" />
<glyph unicode="*" horiz-adv-x="997" d="M31 1071l80 197l299 -123l-35 305h248l-33 -307l305 123l70 -201l-324 -72l215 -229l-201 -133l-157 260l-170 -256l-195 131l219 223z" />
<glyph unicode="+" horiz-adv-x="1341" d="M119 655v189h456v459h189v-459h459v-189h-459v-456h-189v456h-456z" />
<glyph unicode="," horiz-adv-x="534" d="M92 -334l92 332l-75 27v415h333v-411l-249 -363h-101z" />
<glyph unicode="-" horiz-adv-x="833" d="M55 510v242h723v-242h-723z" />
<glyph unicode="." horiz-adv-x="518" d="M92 0v440h334v-440h-334z" />
<glyph unicode="/" horiz-adv-x="1048" d="M6 -195l844 1727h192l-841 -1727h-195z" />
<glyph unicode="0" horiz-adv-x="1519" d="M82 731q0 163 43 298.5t126 236.5t213.5 157t297.5 56q165 0 295.5 -56t213.5 -157t126 -236.5t43 -298.5q0 -133 -23 -245.5t-74.5 -208.5t-129 -163t-192.5 -105t-259 -38q-145 0 -260 38t-193 105t-129.5 163t-74.5 208.5t-23 245.5zM412 721q0 -94 10.5 -169 t36 -138.5t65.5 -105.5t100 -65.5t138 -23.5q97 0 165.5 35t108 103t57 157t17.5 207q0 506 -348 506q-350 0 -350 -506z" />
<glyph unicode="1" horiz-adv-x="585" d="M123 0v1382l278 97h48v-1479h-326z" />
<glyph unicode="2" horiz-adv-x="1304" d="M61 0v72q0 361 228 520q57 40 135 70.5t144.5 46.5t134.5 39t116 49t78.5 75.5t30.5 118.5q0 47 -17 85t-44.5 62.5t-65 40.5t-76 22.5t-80.5 6.5q-126 0 -216.5 -60t-123.5 -177l-221 151q42 126 132 208t200.5 115.5t245.5 33.5q116 0 214.5 -26t179.5 -79.5t127 -146 t46 -215.5q0 -106 -27.5 -187.5t-74 -132.5t-107 -87.5t-127.5 -58t-133.5 -39.5t-127 -37t-107 -44t-74 -67t-27.5 -101h782v-258h-1145z" />
<glyph unicode="3" horiz-adv-x="1363" d="M14 358l287 113q74 -244 356 -244q166 0 251 62t85 200q0 111 -70 167.5t-182 56.5q-82 0 -182 -23l-98 101l313 409h-604v250h1083v-41l-415 -512q212 0 340.5 -107.5t128.5 -302.5q0 -109 -35 -197t-95 -147t-143 -98t-175 -56.5t-195 -17.5q-111 0 -203 18.5 t-177.5 61t-154 120t-115.5 187.5z" />
<glyph unicode="4" horiz-adv-x="1411" d="M12 590l856 860h293v-905h240v-252h-240v-293h-309v293h-764zM295 545h559v557z" />
<glyph unicode="5" horiz-adv-x="1349" d="M43 369l270 114q46 -118 131.5 -177.5t245.5 -59.5q57 0 109 13.5t97.5 42t73 80.5t27.5 122q0 75 -28.5 130t-76.5 85t-102 43.5t-114 13.5q-182 0 -361 -127l-196 94l49 707h999v-248h-757l-23 -280q168 84 367 84q114 0 211 -31t171.5 -91.5t117 -158.5t42.5 -223 q0 -129 -47 -231.5t-129 -167t-189.5 -98.5t-232.5 -34q-236 0 -395.5 90.5t-259.5 307.5z" />
<glyph unicode="6" horiz-adv-x="1419" d="M82 709q0 164 45.5 303.5t131 244t218 163.5t297.5 59q195 0 329 -65t224 -234l-242 -111q-47 89 -114.5 129.5t-165.5 40.5q-417 0 -420 -489q70 89 194 150t277 61q101 0 189.5 -25t160.5 -76t114 -137.5t42 -198.5q0 -140 -50 -248t-137.5 -173.5t-199 -98.5 t-242.5 -33q-303 0 -477 189.5t-174 548.5zM401 512q27 -134 107.5 -217.5t218.5 -83.5q135 0 222 78.5t87 218.5q0 229 -252 229q-259 0 -383 -225z" />
<glyph unicode="7" horiz-adv-x="1167" d="M25 1194v256h1124v-227q-116 -128 -216 -268t-185 -297t-139 -327t-64 -331h-350q3 164 58 332.5t149.5 320.5t207.5 285.5t248 255.5h-833z" />
<glyph unicode="8" horiz-adv-x="1392" d="M61 436q0 147 78 231.5t221 125.5q-114 27 -179.5 107t-65.5 206q0 92 38 161t96 108.5t139 63.5t153.5 32t154.5 8q81 0 153.5 -8t154 -32t139.5 -63.5t96.5 -108.5t38.5 -161q0 -125 -67 -205.5t-181 -107.5q145 -41 223 -125.5t78 -231.5q0 -465 -635 -465t-635 465z M369 444q0 -65 28.5 -112t77.5 -71.5t103.5 -36t117.5 -11.5q62 0 116.5 11.5t103.5 36t77.5 72t28.5 111.5q0 61 -29 105.5t-78.5 68.5t-103.5 35t-115 11t-115.5 -11t-103.5 -35t-78.5 -68.5t-29.5 -105.5zM412 1051q0 -55 25.5 -94.5t69 -59.5t90 -28.5t99.5 -8.5 t99.5 8.5t90.5 28.5t69.5 59.5t25.5 94.5q0 53 -26 92t-69 59.5t-90.5 30.5t-99.5 10q-51 0 -98.5 -10t-90.5 -30.5t-69 -59.5t-26 -92z" />
<glyph unicode="9" horiz-adv-x="1419" d="M66 946q0 133 48.5 236.5t134.5 167.5t196.5 96.5t240.5 32.5q303 0 478 -189.5t175 -548.5q0 -164 -45.5 -303.5t-131.5 -244t-219 -163.5t-298 -59q-95 0 -170 13t-147 45.5t-131 92.5t-105 148l242 111q47 -90 114.5 -131t165.5 -41q417 0 420 487 q-70 -87 -194.5 -148t-276.5 -61q-80 0 -151.5 15.5t-135.5 50.5t-110 87t-73 130.5t-27 175.5zM389 963q0 -129 65.5 -190.5t180.5 -61.5q131 0 229 59t154 176q-13 64 -37.5 117t-63.5 95.5t-96.5 66.5t-128.5 24q-134 0 -218.5 -77t-84.5 -209z" />
<glyph unicode=":" horiz-adv-x="577" d="M123 0v440h334v-440h-334zM123 659v443h334v-443h-334z" />
<glyph unicode=";" horiz-adv-x="593" d="M123 -334l90 332l-74 27v415h334v-411l-252 -363h-98zM139 659v443h334v-443h-334z" />
<glyph unicode="&#x3c;" horiz-adv-x="1341" d="M119 641v131l1104 485v-208l-826 -340l826 -342v-209z" />
<glyph unicode="=" horiz-adv-x="1341" d="M119 393v189h1104v-189h-1104zM119 907v193h1104v-193h-1104z" />
<glyph unicode="&#x3e;" horiz-adv-x="1341" d="M119 158v209l823 342l-823 340v208l1104 -485v-131z" />
<glyph unicode="?" horiz-adv-x="1124" d="M29 1047q27 217 166.5 323.5t361.5 106.5q82 0 154.5 -14.5t137.5 -47t111.5 -80.5t73.5 -120t27 -162q0 -100 -31 -176.5t-112 -139.5q-27 -21 -66.5 -43t-65 -37.5t-50.5 -40t-37.5 -63t-12.5 -94.5h-235q-17 41 -17 84q0 58 17.5 103.5t46 74.5t62.5 54t68 49 t62.5 50.5t46 66.5t17.5 91q0 85 -55 125.5t-146 40.5q-243 0 -272 -237zM424 0v369h291v-369h-291z" />
<glyph unicode="@" horiz-adv-x="1411" d="M76 489q0 181 43.5 327t129 253t222.5 165t315 58q127 0 219.5 -25.5t149 -69t90.5 -111t46 -140t12 -168.5v-585h-420q-179 0 -263.5 83.5t-84.5 274.5q0 174 81 256t254 82q165 0 236 -58q-4 67 -20.5 115.5t-51 87t-95 57.5t-146.5 19q-252 0 -382 -165t-130 -458 q0 -273 158 -440.5t429 -167.5q114 0 219.5 40.5t186.5 121.5l106 -123q-122 -125 -253.5 -178t-284.5 -53q-131 0 -243.5 32t-195 89.5t-146 133.5t-103 166.5t-59 186t-19.5 194.5zM748 545q0 -91 38.5 -130.5t124.5 -39.5h187v256q-37 76 -203 76q-71 0 -109 -42 t-38 -120z" />
<glyph unicode="A" horiz-adv-x="1759" d="M12 0l834 1450h72l829 -1450h-369l-96 172h-809l-92 -172h-369zM582 375h587l-299 540z" />
<glyph unicode="B" horiz-adv-x="1429" d="M119 0v1450h688q133 0 237.5 -40t166 -120.5t61.5 -191.5q0 -110 -57 -184t-183 -119q164 -28 255 -121.5t91 -237.5q0 -219 -150.5 -327.5t-422.5 -108.5h-686zM459 270h213q185 0 275.5 42.5t90.5 150.5q0 41 -13.5 72.5t-42 51t-60.5 32t-81 18.5t-90.5 8t-101.5 2 h-190v-377zM459 874h186q56 0 98 3t83.5 13.5t68 27.5t43 47t16.5 71q0 98 -77.5 133t-237.5 35h-180v-330z" />
<glyph unicode="C" horiz-adv-x="1468" d="M74 707q0 175 57.5 321t157.5 244.5t235 152.5t289 54q326 0 512 -207l-176 -252q-116 141 -330 141q-187 0 -294 -125t-107 -317q0 -194 107 -312t292 -118q119 0 225 52t187 157l194 -215q-118 -154 -283 -233t-341 -79q-230 0 -395 94.5t-247.5 259t-82.5 382.5z" />
<glyph unicode="D" horiz-adv-x="1595" d="M119 0v1450h706q122 0 223 -20t190.5 -68t151 -122t97 -187.5t35.5 -259.5q0 -178 -62 -327t-172 -251t-263 -158.5t-331 -56.5h-575zM461 299h254q211 0 341 127.5t130 351.5q0 187 -96 288t-275 101h-354v-868z" />
<glyph unicode="E" horiz-adv-x="1406" d="M119 0v1450h1157v-276h-815v-316h502v-223h-502v-348h864v-287h-1206z" />
<glyph unicode="F" horiz-adv-x="1316" d="M119 0v1450h1138v-276h-796v-394h485v-241h-485v-539h-342z" />
<glyph unicode="G" horiz-adv-x="1597" d="M74 721q0 231 101.5 403.5t284.5 263.5t425 91q152 0 283.5 -40.5t209.5 -115.5l-147 -248q-147 119 -340 119q-214 0 -342.5 -128.5t-128.5 -354.5q0 -207 113 -327t307 -120q164 0 257 81t95 220h-365v244h693q12 -71 12 -145q0 -317 -189 -505t-516 -188 q-163 0 -299.5 48.5t-238 140.5t-158.5 236t-57 325z" />
<glyph unicode="H" horiz-adv-x="1595" d="M119 0v1450h344v-520h667v520h347v-1450h-347v686h-667v-686h-344z" />
<glyph unicode="I" horiz-adv-x="581" d="M119 0v1450h344v-1450h-344z" />
<glyph unicode="J" horiz-adv-x="1044" d="M43 0v285h248q164 0 240.5 82.5t76.5 257.5v825h328v-825q0 -321 -164 -473t-481 -152h-248z" />
<glyph unicode="K" horiz-adv-x="1505" d="M119 0v1450h344v-530l567 530h420l-686 -612l729 -838h-440l-590 700v-700h-344z" />
<glyph unicode="L" horiz-adv-x="1230" d="M119 0v1450h344v-1161h702v-289h-1046z" />
<glyph unicode="M" horiz-adv-x="1722" d="M115 0v1450h63l682 -936l682 936h66v-1450h-316v629l-432 -604l-432 604v-629h-313z" />
<glyph unicode="N" horiz-adv-x="1488" d="M115 0v1450h84l848 -819v819h327v-1450h-55l-879 811v-811h-325z" />
<glyph unicode="O" d="M74 725q0 155 58.5 293.5t160 240t249 161t316.5 59.5t316.5 -59.5t250.5 -160.5t161.5 -240t58.5 -294q0 -154 -59 -292.5t-161.5 -240t-250 -161.5t-316.5 -60t-316.5 60t-249 161.5t-160 240t-58.5 292.5zM412 731q0 -188 126 -317t322 -129t322.5 129t126.5 317 t-125 317.5t-318 129.5q-197 0 -325.5 -129.5t-128.5 -317.5z" />
<glyph unicode="P" horiz-adv-x="1431" d="M119 0v1450h653q132 0 242 -33t192 -96t128 -163t46 -228t-46 -229t-128.5 -166.5t-192.5 -99.5t-241 -34h-315v-401h-338zM457 662h280q148 0 227.5 66t79.5 196q0 132 -79.5 198t-221.5 66h-286v-526z" />
<glyph unicode="Q" d="M74 725q0 156 59.5 295t162 240t248.5 160t312 59q161 0 306 -56.5t251.5 -154.5t169 -240t62.5 -305q0 -251 -146.5 -443.5t-400.5 -254.5q74 -5 485 -41l-141 -234l-690 199q-121 35 -221 83t-186 116t-145 151.5t-92.5 191.5t-33.5 234zM414 731q0 -188 126 -317 t322 -129t322.5 129t126.5 317t-125 317.5t-318 129.5q-197 0 -325.5 -129.5t-128.5 -317.5z" />
<glyph unicode="R" horiz-adv-x="1503" d="M119 0v1450h571q107 0 202 -14t184.5 -48t153.5 -87t103 -136.5t39 -189.5q0 -189 -107.5 -298t-287.5 -145l514 -532h-436l-424 473h-174v-473h-338zM457 700h233q71 0 130.5 13t108.5 40t77 75.5t28 113.5q0 66 -28 114.5t-77 76t-108.5 40.5t-130.5 13h-233v-486z" />
<glyph unicode="S" horiz-adv-x="1331" d="M39 293l213 186q172 -219 428 -219q50 0 99 8.5t95 27.5t74.5 54.5t28.5 83.5q0 34 -8.5 60t-28.5 44t-36.5 29.5t-50 20t-51 12.5t-54.5 10q-39 6 -146 17.5t-181 27.5t-136 47q-102 51 -158.5 143t-56.5 206q0 97 35 173t92 123t135 77.5t156.5 42.5t164.5 12 q350 0 537 -156l-123 -242q-163 121 -391 121q-43 0 -85.5 -6.5t-88.5 -22t-74.5 -49t-28.5 -80.5q0 -50 30.5 -82.5t81.5 -47.5t117.5 -23.5t140.5 -16t147.5 -18.5t140 -37.5t117.5 -68t81.5 -114t30.5 -171.5q0 -108 -37 -194t-97.5 -141.5t-144.5 -92t-172 -51.5 t-186 -15q-202 0 -360 77.5t-250 244.5z" />
<glyph unicode="T" horiz-adv-x="1490" d="M39 1176v274h1411v-274h-532v-1176h-349v1176h-530z" />
<glyph unicode="U" horiz-adv-x="1519" d="M104 672v778h340v-823q0 -166 85 -260.5t241 -94.5t233.5 93t77.5 262v823h336v-778q0 -341 -162 -521t-485 -180q-324 0 -495 181t-171 520z" />
<glyph unicode="V" horiz-adv-x="1699" d="M12 1450h375l453 -885l473 885h375l-826 -1450h-69z" />
<glyph unicode="W" horiz-adv-x="2152" d="M12 1450h342l324 -809l375 809h67l371 -795l315 795h336l-604 -1450h-63l-394 862l-415 -862h-64z" />
<glyph unicode="X" horiz-adv-x="1728" d="M12 0l629 760l-608 690h424l395 -473l393 473h395l-587 -696l665 -754h-434l-448 535l-437 -535h-387z" />
<glyph unicode="Y" horiz-adv-x="1632" d="M12 1450h387l418 -580l416 580h387l-641 -868v-582h-336v582q-66 91 -288.5 396t-342.5 472z" />
<glyph unicode="Z" horiz-adv-x="1392" d="M37 0v49q105 148 377.5 528.5t419.5 587.5h-721v285h1243v-59l-783 -1106h746v-285h-1282z" />
<glyph unicode="[" horiz-adv-x="638" d="M174 -309v2064h401v-178h-194v-1708h194v-178h-401z" />
<glyph unicode="\" horiz-adv-x="1118" d="M6 1677h193l913 -1835h-197z" />
<glyph unicode="]" horiz-adv-x="638" d="M61 -131h195v1708h-195v178h402v-2064h-402v178z" />
<glyph unicode="^" horiz-adv-x="1167" d="M84 532l412 918h170l417 -918h-262l-239 596l-244 -596h-254z" />
<glyph unicode="_" horiz-adv-x="1204" d="M-2 -143h1208v-183h-1208v183z" />
<glyph unicode="`" horiz-adv-x="872" d="M115 1587h344l295 -426h-217z" />
<glyph unicode="a" horiz-adv-x="1134" d="M59 336q0 89 32.5 157.5t89.5 109t127.5 61t152.5 20.5q226 0 311 -109q0 66 -11.5 112t-31 74t-55.5 43t-75.5 20t-100.5 5h-305v226h323q283 0 407 -128.5t124 -414.5v-512h-230l-18 115q-48 -66 -141.5 -104t-213.5 -38q-175 0 -280 93t-105 270zM326 334 q0 -43 19 -74.5t52.5 -47.5t70.5 -23t81 -7q102 0 167.5 41.5t65.5 116.5q0 73 -66.5 111t-166.5 38q-223 0 -223 -155z" />
<glyph unicode="b" horiz-adv-x="1269" d="M111 0v1479h282v-557q42 64 142 112.5t213 48.5t201 -42.5t142 -117.5t81.5 -171.5t27.5 -210.5q0 -113 -27 -213t-80 -181t-141.5 -128.5t-201.5 -47.5q-114 0 -220.5 49t-150.5 111l-27 -131h-241zM389 530q0 -134 74 -212t199 -78q247 0 247 290q0 141 -60.5 219 t-186.5 78q-127 0 -200 -80.5t-73 -216.5z" />
<glyph unicode="c" horiz-adv-x="1140" d="M63 522q0 254 152.5 407.5t396.5 153.5q332 0 471 -264l-221 -137q-41 82 -99.5 119t-141.5 37q-125 0 -197 -85t-72 -223q0 -133 66 -218t198 -85q99 0 167.5 50.5t105.5 138.5l215 -125q-48 -137 -180.5 -228.5t-325.5 -91.5q-228 0 -381.5 156t-153.5 395z" />
<glyph unicode="d" horiz-adv-x="1269" d="M70 541q0 114 27 210.5t81 171.5t142 117.5t202 42.5q111 0 210.5 -48.5t141.5 -112.5v557h285v-1479h-244l-26 131q-44 -62 -150 -111t-219 -49q-114 0 -202.5 47.5t-141.5 128.5t-79.5 181t-26.5 213zM358 530q0 -290 248 -290q125 0 199 78t74 212q0 136 -73 216.5 t-200 80.5q-126 0 -187 -78.5t-61 -218.5z" />
<glyph unicode="e" horiz-adv-x="1224" d="M74 545q0 161 74.5 285t199.5 188.5t279 64.5q210 0 348.5 -127t163.5 -340l-756 -221q31 -85 100 -132.5t166 -47.5q94 0 172 54t103 149l235 -80q-56 -176 -204 -272.5t-341 -96.5q-116 0 -217 44.5t-171.5 121.5t-111 183.5t-40.5 226.5zM344 559l496 152 q-48 149 -230 149q-124 0 -195 -84t-71 -217z" />
<glyph unicode="f" horiz-adv-x="704" d="M14 872l15 183h90q18 225 141 331.5t330 106.5q34 0 80 -4v-225q-23 2 -66 2q-89 0 -138.5 -41.5t-49.5 -124.5v-45h235v-183h-241v-872h-295v872h-101z" />
<glyph unicode="g" horiz-adv-x="1234" d="M55 549q0 249 132.5 391.5t347.5 142.5q146 0 244 -46t147 -122l57 140h147v-889q0 -128 -35.5 -226.5t-91.5 -157t-135 -95.5t-155 -50.5t-162 -13.5q-131 0 -209 21v239q70 -16 193 -16q170 0 243.5 71.5t73.5 239.5v45q-36 -69 -126.5 -119.5t-229.5 -50.5 q-190 0 -315.5 138t-125.5 358zM332 573q0 -133 63 -213.5t193 -80.5q134 0 205 80t71 212q0 131 -70.5 208t-205.5 77q-131 0 -193.5 -75.5t-62.5 -207.5z" />
<glyph unicode="h" horiz-adv-x="1189" d="M111 0v1479h284v-553q48 72 131.5 114.5t194.5 42.5q164 0 264 -90.5t100 -265.5v-727h-278v645q0 105 -43 153t-146 48q-77 0 -137.5 -48.5t-85.5 -131.5v-666h-284z" />
<glyph unicode="i" horiz-adv-x="514" d="M117 0v1055h278v-1055h-278zM117 1161v318h278v-318h-278z" />
<glyph unicode="j" horiz-adv-x="571" d="M-96 -129q33 -8 71 -8q86 0 140.5 55.5t54.5 153.5v983h281v-977q0 -215 -121 -335t-324 -120q-82 0 -102 10v238zM170 1161v318h281v-318h-281z" />
<glyph unicode="k" horiz-adv-x="1220" d="M111 0v1479h282v-781l414 357h340l-514 -434l575 -621h-364l-451 492v-492h-282z" />
<glyph unicode="l" horiz-adv-x="505" d="M111 0v1479h282v-1479h-282z" />
<glyph unicode="m" horiz-adv-x="1800" d="M109 0v1055h243q3 -22 11.5 -67.5t11.5 -67.5q40 73 128 118t199 45q107 0 189 -47.5t119 -138.5q47 86 140.5 136t207.5 50q151 0 244.5 -89.5t93.5 -266.5v-727h-273v645q0 104 -38.5 152.5t-131.5 48.5q-73 0 -130.5 -47.5t-80.5 -132.5v-666h-272v645 q0 104 -39 152.5t-133 48.5q-73 0 -128.5 -48t-78.5 -132v-666h-282z" />
<glyph unicode="n" horiz-adv-x="1183" d="M109 0v1055h245q3 -22 11.5 -67.5t11.5 -67.5q47 74 139.5 118.5t208.5 44.5q161 0 260.5 -89.5t99.5 -266.5v-727h-280v645q0 105 -41 153t-143 48q-80 0 -141 -48t-87 -132v-666h-284z" />
<glyph unicode="o" horiz-adv-x="1241" d="M63 506q0 265 155.5 421t399.5 156q119 0 221.5 -40t177 -113t117 -182.5t42.5 -241.5q0 -150 -65.5 -271t-194 -192.5t-298.5 -71.5q-128 0 -233.5 41.5t-175 114t-108 170t-38.5 209.5zM352 520q0 -126 70.5 -210.5t195.5 -84.5t196 84.5t71 210.5q0 138 -73 222.5 t-194 84.5t-193.5 -84t-72.5 -223z" />
<glyph unicode="p" horiz-adv-x="1265" d="M106 -360v1415h244l25 -131q44 61 150 110t220 49q113 0 201.5 -47t142 -128t80.5 -181t27 -213q0 -90 -17 -170.5t-53 -149t-89 -118t-128 -77.5t-166 -28q-111 0 -211 49t-141 113v-493h-285zM387 530q0 -134 73.5 -212t198.5 -78q248 0 248 290q0 140 -61 218.5 t-187 78.5q-127 0 -199.5 -80.5t-72.5 -216.5z" />
<glyph unicode="q" horiz-adv-x="1265" d="M70 520q0 113 31 213.5t88.5 179t149.5 124.5t206 46q129 0 242 -53.5t157 -118.5l57 144h158v-1415h-285v493q-41 -65 -140 -113.5t-212 -48.5q-112 0 -199.5 43t-142 118.5t-82.5 173.5t-28 214zM358 530q0 -290 248 -290q125 0 199 78t74 212q0 136 -73 216.5 t-200 80.5q-126 0 -187 -78.5t-61 -218.5z" />
<glyph unicode="r" horiz-adv-x="976" d="M106 0v1055h242l29 -176q105 200 323 200q236 0 267 -254l-240 -123q-13 82 -43.5 117t-81.5 35q-162 0 -211 -264v-590h-285z" />
<glyph unicode="s" horiz-adv-x="1062" d="M39 209l156 139q114 -147 337 -147q36 0 61.5 1.5t60 7.5t56 17.5t37 34t15.5 53.5q0 35 -24 58t-64.5 34.5t-93 19t-110.5 15.5t-115.5 19.5t-110 35t-93 57.5t-64.5 92t-24 134q0 72 29.5 127.5t74.5 88t108 53t121 27.5t122 7q267 0 420 -114l-98 -185 q-142 88 -312 88q-196 0 -196 -100q0 -44 38 -69t99 -35.5t134.5 -18t147 -23.5t134.5 -45t99 -90t38 -151q0 -81 -29 -145.5t-76.5 -106t-114 -68.5t-136.5 -38t-148 -11q-355 0 -479 238z" />
<glyph unicode="t" horiz-adv-x="686" d="M14 872q6 92 15 183h90q0 33 1 98t1 98l244 131h36v-327h209v-183h-213v-471q0 -108 46 -156t122 -48q41 0 76 12v-203q-67 -35 -188 -35q-340 0 -340 404v497h-99z" />
<glyph unicode="u" horiz-adv-x="1169" d="M102 328v727h279v-647q0 -106 39.5 -153.5t142.5 -47.5q183 0 215 248v600h285v-1055h-244l-24 133q-46 -74 -132 -118t-202 -44q-161 0 -260 89.5t-99 267.5z" />
<glyph unicode="v" horiz-adv-x="1214" d="M12 1055h305l287 -584l303 584h295l-588 -1055h-49z" />
<glyph unicode="w" horiz-adv-x="1566" d="M12 1055h303l195 -529l256 529h49l248 -529l197 529h294l-438 -1055h-49l-283 592l-282 -592h-51z" />
<glyph unicode="x" horiz-adv-x="1345" d="M12 0l477 551l-460 504h352l281 -322l278 322h334l-443 -504l504 -551h-364l-309 371l-320 -371h-330z" />
<glyph unicode="y" horiz-adv-x="1198" d="M104 518v537h289v-547q0 -102 42 -153.5t145 -51.5q91 0 141 42t88 134v576h285v-889q0 -126 -35 -224t-88.5 -157t-127 -96.5t-142 -51.5t-140.5 -14q-110 0 -172 21v239q66 -16 139 -16q279 0 279 303v37q-43 -59 -126 -97t-196 -38q-107 0 -182.5 32t-118 93.5 t-61.5 139.5t-19 181z" />
<glyph unicode="z" horiz-adv-x="1011" d="M33 0v49l520 754h-487v252h915v-62l-504 -731h477v-262h-921z" />
<glyph unicode="{" horiz-adv-x="755" d="M94 649v187h51q61 0 79 29.5t18 121.5v449q0 169 75 244t203 75h178v-184h-137q-60 0 -87.5 -34t-27.5 -118v-477q0 -69 -25 -123t-71 -78q96 -45 96 -200v-504q0 -160 109 -160h143v-184h-174q-282 0 -282 334v467q0 83 -14.5 119t-49.5 36h-84z" />
<glyph unicode="|" horiz-adv-x="602" d="M193 -360v2209h215v-2209h-215z" />
<glyph unicode="}" horiz-adv-x="765" d="M57 -123h146q106 0 106 160v504q0 153 99 200q-47 24 -73 78.5t-26 122.5v477q0 84 -26.5 118t-85.5 34h-140v184h181q127 0 201.5 -75.5t74.5 -243.5v-412q0 -52 2 -83t7 -54t17 -32.5t27.5 -14t42.5 -4.5h54v-187h-86q-35 0 -49.5 -35.5t-14.5 -119.5v-467 q0 -334 -281 -334h-176v184z" />
<glyph unicode="~" horiz-adv-x="1234" d="M119 578v219q98 112 229 112q68 0 141.5 -27t127 -60t120.5 -60t123 -27q58 0 117.5 32t138.5 124v-232q-59 -58 -114.5 -84t-122.5 -26q-63 0 -133.5 27t-123 59t-122.5 59t-133 27q-56 0 -110 -30.5t-138 -112.5z" />
<glyph unicode="&#xa1;" horiz-adv-x="581" d="M127 0v684l74 338h176l74 -338v-684h-324zM141 1104v373h295v-373h-295z" />
<glyph unicode="&#xa2;" horiz-adv-x="1128" d="M53 702q0 231 127.5 379.5t339.5 175.5v193h144v-188q282 -24 409 -263l-221 -135q-78 154 -242 154q-125 0 -196.5 -84.5t-71.5 -222.5q0 -137 64.5 -220t199.5 -83q193 0 273 188l215 -125q-44 -123 -155.5 -210.5t-274.5 -106.5v-154h-144v156q-204 24 -335.5 174.5 t-131.5 371.5z" />
<glyph unicode="&#xa3;" horiz-adv-x="1294" d="M76 0v182q141 100 174 418h-166v156h137q-7 23 -31 93t-34.5 115.5t-10.5 90.5q0 205 152.5 314.5t413.5 109.5q104 0 186.5 -17t154.5 -56.5t124 -110.5t81 -173l-219 -153q-31 121 -97.5 181t-188.5 60q-273 0 -273 -235q0 -34 5 -68t16 -84.5t14 -66.5h397v-156h-383 q-2 -81 -30.5 -171t-77.5 -142h794v-287h-1138z" />
<glyph unicode="&#xa4;" horiz-adv-x="1251" d="M96 317l148 146q-86 107 -86 231q0 125 88 230l-150 147l129 133l158 -162q115 64 240 64q132 0 243 -68l160 162l129 -135l-149 -147q79 -98 79 -224q0 -121 -79 -227l147 -148l-129 -131l-156 158q-114 -65 -245 -65q-134 0 -242 63l-158 -160zM317 694 q0 -117 89 -198.5t217 -81.5q127 0 216 81.5t89 198.5q0 116 -89 197.5t-216 81.5t-216.5 -81.5t-89.5 -197.5z" />
<glyph unicode="&#xa5;" horiz-adv-x="1376" d="M53 1450h342l305 -434l306 434h317l-465 -619h410v-202h-416v-199h416v-201h-416v-229h-315v229h-426v201h426v199h-426v202h397z" />
<glyph unicode="&#xa6;" horiz-adv-x="602" d="M193 -360v919h215v-919h-215zM193 930v919h215v-919h-215z" />
<glyph unicode="&#xa7;" horiz-adv-x="1148" d="M72 131l149 137q47 -81 133 -121.5t185 -40.5q50 0 102.5 14.5t94.5 50t42 83.5q0 38 -23.5 64t-63 39t-91 21t-108 15.5t-113 18.5t-108 33.5t-91 55.5t-63 89.5t-23.5 132.5q0 89 56 150t147 85q-168 62 -168 209q0 71 29 127t74 90t106.5 56t121 30.5t122.5 8.5 q274 0 411 -119q-14 -24 -46 -84.5t-50 -91.5q-114 90 -301 90q-23 0 -51.5 -4.5t-67 -16t-63.5 -38t-25 -64.5q0 -21 5.5 -38.5t18 -30.5t24 -22.5t34 -16.5t38 -11.5t44.5 -8.5t44.5 -6t47.5 -5q54 -6 94.5 -12t88 -17.5t81 -26.5t67 -39t54 -55t33 -74.5t12.5 -97.5 q0 -174 -182 -239q64 -26 101.5 -83t37.5 -128q0 -78 -30.5 -140t-78.5 -100.5t-114 -63.5t-130.5 -35t-133.5 -10q-343 0 -473 240zM340 698q0 -139 244 -139q245 0 245 139q0 142 -245 142q-244 0 -244 -142z" />
<glyph unicode="&#xa8;" horiz-adv-x="1048" d="M119 1161v318h266v-318h-266zM664 1161v318h266v-318h-266z" />
<glyph unicode="&#xaa;" horiz-adv-x="751" d="M92 801q0 94 61.5 141t153.5 47q106 0 158 -55q-1 75 -27.5 100t-101.5 25h-168v135h180q159 0 227 -73.5t68 -233.5v-273h-151l-11 60q-61 -74 -184 -74q-95 0 -150 52.5t-55 148.5zM266 799q0 -39 29.5 -57.5t77.5 -18.5q42 0 72 21.5t30 54.5q0 75 -104 75 q-47 0 -76 -18t-29 -57z" />
<glyph unicode="&#xab;" horiz-adv-x="1265" d="M55 606l328 391h195l-265 -391l265 -393h-195zM688 606l328 391h194l-264 -391l264 -393h-194z" />
<glyph unicode="&#xac;" horiz-adv-x="1198" d="M78 547v205h1003v-752h-209v547h-794z" />
<glyph unicode="&#xad;" horiz-adv-x="833" d="M55 510v242h723v-242h-723z" />
<glyph unicode="&#xaf;" horiz-adv-x="1255" d="M117 1268v209h1020v-209h-1020z" />
<glyph unicode="&#xb0;" horiz-adv-x="968" d="M84 1229q0 161 97.5 260.5t299.5 99.5q205 0 303.5 -99.5t98.5 -260.5q0 -78 -22.5 -142.5t-69.5 -115t-126 -79t-184 -28.5q-104 0 -182 28.5t-124 79t-68.5 115t-22.5 142.5zM248 1231q0 -99 56.5 -160t176.5 -61q121 0 179.5 61.5t58.5 159.5q0 99 -57.5 157 t-180.5 58q-122 0 -177.5 -58t-55.5 -157z" />
<glyph unicode="&#xb1;" horiz-adv-x="1341" d="M119 86h1104v-188h-1104v188zM119 655v189h456v459h189v-459h459v-189h-459v-456h-189v456h-456z" />
<glyph unicode="&#xb2;" horiz-adv-x="718" d="M59 745v35q0 126 57 203.5t175 116.5q12 4 37.5 10.5t41 11.5t36 14.5t32.5 20.5t20.5 29.5t8.5 42.5q0 49 -35 74.5t-86 25.5q-52 0 -90.5 -30.5t-52.5 -81.5l-131 90q60 178 290 178q81 0 143.5 -22.5t104 -78t41.5 -139.5q0 -103 -50.5 -164t-154.5 -88 q-105 -29 -132 -48q-28 -20 -29 -48h354v-152h-580z" />
<glyph unicode="&#xb3;" horiz-adv-x="749" d="M37 924l170 67q27 -110 155 -110q63 0 101.5 28t38.5 84q0 46 -30.5 71.5t-76.5 25.5q-21 0 -86 -9l-49 58l133 184h-278v147h549v-24l-195 -246h12q92 0 150.5 -57t58.5 -152q0 -70 -27 -122t-74 -81t-103 -43t-121 -14q-56 0 -102 9t-89.5 30t-78 60t-58.5 94z" />
<glyph unicode="&#xb4;" horiz-adv-x="872" d="M115 1161l297 426h342l-422 -426h-217z" />
<glyph unicode="&#xb5;" horiz-adv-x="1187" d="M111 -360v1415h278v-649q0 -102 40.5 -152.5t145.5 -50.5q52 0 107.5 41t97.5 133v678h289v-1055h-250q-7 47 -22 119q-70 -125 -254 -125q-106 0 -150 67v-421h-282z" />
<glyph unicode="&#xb6;" horiz-adv-x="1058" d="M31 1200q0 113 71 181.5t220 68.5h618v-1810h-186v1611h-295v-1611h-189v1294q-121 10 -180 80t-59 186z" />
<glyph unicode="&#xb7;" horiz-adv-x="518" d="M92 471v440h334v-440h-334z" />
<glyph unicode="&#xb8;" horiz-adv-x="501" d="M78 -457l182 394l184 -394h-366z" />
<glyph unicode="&#xb9;" horiz-adv-x="382" d="M90 745v687l166 53h29v-740h-195z" />
<glyph unicode="&#xba;" horiz-adv-x="811" d="M94 893q0 146 87.5 231.5t224.5 85.5q136 0 222.5 -85.5t86.5 -231.5q0 -127 -83.5 -211t-225.5 -84q-143 0 -227.5 84t-84.5 211zM285 903q0 -59 31 -99t90 -40q57 0 88.5 40t31.5 99q0 64 -32.5 102.5t-87.5 38.5q-56 0 -88.5 -38.5t-32.5 -102.5z" />
<glyph unicode="&#xbb;" horiz-adv-x="1265" d="M55 213l262 393l-262 391h193l330 -391l-330 -393h-193zM688 213l262 393l-262 391h193l329 -391l-329 -393h-193z" />
<glyph unicode="&#xbc;" horiz-adv-x="1572" d="M74 -78l1077 1594h203l-1080 -1594h-200zM240 745v687l166 53h28v-740h-194zM797 295l409 410h174v-437h121v-147h-121v-141h-184v141h-354zM954 268h242v242z" />
<glyph unicode="&#xbd;" horiz-adv-x="1546" d="M74 -78l1077 1594h203l-1080 -1594h-200zM240 745v687l166 53h28v-740h-194zM883 14q0 127 56.5 204t174.5 116q12 4 37.5 10.5t41 11.5t36 14.5t32.5 20.5t20.5 29.5t8.5 42.5q0 49 -35 74.5t-86 25.5q-52 0 -90.5 -30.5t-52.5 -81.5l-131 90q60 178 291 178 q81 0 143.5 -22.5t104 -78t41.5 -139.5q0 -103 -50.5 -164t-154.5 -88q-105 -29 -133 -48q-29 -19 -29 -48h354v-151h-579v34z" />
<glyph unicode="&#xbe;" horiz-adv-x="1579" d="M72 924l170 67q28 -110 155 -110q63 0 101.5 28t38.5 84q0 46 -30.5 71.5t-76.5 25.5q-21 0 -86 -9l-49 58l133 184h-278v147h548v-24l-194 -246h12q92 0 150.5 -57t58.5 -152q0 -56 -18 -101t-48.5 -74t-73 -48.5t-88.5 -28t-98 -8.5q-116 0 -198.5 43t-128.5 150z M162 -78l1077 1594h203l-1080 -1594h-200zM803 295l409 410h174v-437h121v-147h-121v-141h-184v141h-354zM961 268h241v242z" />
<glyph unicode="&#xbf;" horiz-adv-x="1124" d="M70 397q0 100 31 176.5t112 139.5q27 21 66.5 43t64.5 37.5t50 40t37.5 63t12.5 94.5h236q16 -39 16 -84q0 -58 -17.5 -103.5t-45.5 -74.5t-62.5 -54t-68.5 -49t-62 -50.5t-45.5 -66.5t-17.5 -91q0 -85 55 -125.5t146 -40.5q243 0 272 237l252 -86 q-27 -217 -166.5 -323.5t-362.5 -106.5q-104 0 -191.5 23.5t-159 72.5t-112 133t-40.5 195zM416 1081v369h291v-369h-291z" />
<glyph unicode="&#xc0;" horiz-adv-x="1759" d="M12 0l834 1450h72l829 -1450h-369l-96 172h-809l-92 -172h-369zM457 1982h344l295 -426h-217zM582 375h587l-299 540z" />
<glyph unicode="&#xc1;" horiz-adv-x="1759" d="M12 0l834 1450h72l829 -1450h-369l-96 172h-809l-92 -172h-369zM582 375h587l-299 540zM662 1556l296 426h342l-421 -426h-217z" />
<glyph unicode="&#xc2;" horiz-adv-x="1759" d="M12 0l834 1450h72l829 -1450h-369l-96 172h-809l-92 -172h-369zM487 1534v168l392 272l391 -272v-168l-391 213zM582 375h587l-299 540z" />
<glyph unicode="&#xc3;" horiz-adv-x="1759" d="M12 0l834 1450h72l829 -1450h-369l-96 172h-809l-92 -172h-369zM438 1610v233q90 111 203 111q66 0 132.5 -27.5t112 -60.5t103 -60.5t107.5 -27.5q58 0 109.5 31t115.5 122v-254q-50 -53 -99 -77.5t-110 -24.5q-51 0 -101.5 17.5t-92 42.5t-82 50t-86.5 42.5t-91 17.5 q-52 0 -100.5 -29t-120.5 -106zM582 375h587l-299 540z" />
<glyph unicode="&#xc4;" horiz-adv-x="1759" d="M12 0l834 1450h72l829 -1450h-369l-96 172h-809l-92 -172h-369zM473 1556v318h266v-318h-266zM582 375h587l-299 540zM1018 1556v318h266v-318h-266z" />
<glyph unicode="&#xc5;" horiz-adv-x="1759" d="M12 0l834 1450h72l829 -1450h-369l-96 172h-809l-92 -172h-369zM571 1729q0 125 71.5 189t234.5 64q162 0 235.5 -64.5t73.5 -188.5q0 -127 -73.5 -193t-235.5 -66q-163 0 -234.5 65.5t-71.5 193.5zM582 375h587l-299 540zM702 1729q0 -71 41.5 -106.5t133.5 -35.5 q93 0 133.5 35.5t40.5 106.5q0 68 -40.5 101.5t-133.5 33.5q-92 0 -133.5 -33.5t-41.5 -101.5z" />
<glyph unicode="&#xc6;" horiz-adv-x="2398" d="M12 0l819 1450h1434v-276h-723v-316h430v-223h-430v-348h774v-287h-1118v377h-614l-203 -377h-369zM696 586h502v588h-184z" />
<glyph unicode="&#xc7;" horiz-adv-x="1468" d="M74 707q0 175 57.5 321t157.5 244.5t235 152.5t289 54q326 0 512 -207l-176 -252q-116 141 -330 141q-187 0 -294 -125t-107 -317q0 -194 107 -312t292 -118q119 0 225 52t187 157l194 -215q-118 -154 -283 -233t-341 -79q-230 0 -395 94.5t-247.5 259t-82.5 382.5z M594 -457l182 394l185 -394h-367z" />
<glyph unicode="&#xc8;" horiz-adv-x="1406" d="M119 0v1450h1157v-276h-815v-316h502v-223h-502v-348h864v-287h-1206zM281 1982h344l295 -426h-218z" />
<glyph unicode="&#xc9;" horiz-adv-x="1406" d="M119 0v1450h1157v-276h-815v-316h502v-223h-502v-348h864v-287h-1206zM485 1556l297 426h342l-422 -426h-217z" />
<glyph unicode="&#xca;" horiz-adv-x="1406" d="M119 0v1450h1157v-276h-815v-316h502v-223h-502v-348h864v-287h-1206zM311 1534v168l391 272l392 -272v-168l-392 213z" />
<glyph unicode="&#xcb;" horiz-adv-x="1406" d="M119 0v1450h1157v-276h-815v-316h502v-223h-502v-348h864v-287h-1206zM297 1556v318h266v-318h-266zM842 1556v318h266v-318h-266z" />
<glyph unicode="&#xcc;" horiz-adv-x="581" d="M-131 1982h344l295 -426h-217zM119 0v1450h344v-1450h-344z" />
<glyph unicode="&#xcd;" horiz-adv-x="581" d="M74 1556l297 426h342l-422 -426h-217zM119 0v1450h344v-1450h-344z" />
<glyph unicode="&#xce;" horiz-adv-x="581" d="M-100 1534v168l391 272l391 -272v-168l-391 213zM119 0v1450h344v-1450h-344z" />
<glyph unicode="&#xcf;" horiz-adv-x="581" d="M-115 1556v318h267v-318h-267zM119 0v1450h344v-1450h-344zM430 1556v318h266v-318h-266z" />
<glyph unicode="&#xd0;" horiz-adv-x="1595" d="M8 635v223h111v592h706q122 0 223 -20t190.5 -68t151 -122t97 -187.5t35.5 -259.5q0 -178 -62 -327t-172 -251t-263 -158.5t-331 -56.5h-575v635h-111zM449 293h278q209 0 339 130t130 355q0 188 -96.5 293t-274.5 105h-376v-318h376v-223h-376v-342z" />
<glyph unicode="&#xd1;" horiz-adv-x="1488" d="M115 0v1450h84l848 -819v819h327v-1450h-55l-879 811v-811h-325zM303 1610v233q90 111 203 111q66 0 132.5 -27.5t112 -60.5t103 -60.5t107.5 -27.5q58 0 109.5 31t115.5 122v-254q-50 -53 -99 -77.5t-110 -24.5q-51 0 -101.5 17.5t-92 42.5t-82 50t-86.5 42.5t-91 17.5 q-52 0 -100.5 -29t-120.5 -106z" />
<glyph unicode="&#xd2;" d="M74 725q0 155 58.5 293.5t160 240t249 161t316.5 59.5t316.5 -59.5t250.5 -160.5t161.5 -240t58.5 -294q0 -154 -59 -292.5t-161.5 -240t-250 -161.5t-316.5 -60t-316.5 60t-249 161.5t-160 240t-58.5 292.5zM412 731q0 -188 126 -317t322 -129t322.5 129t126.5 317 t-125 317.5t-318 129.5q-197 0 -325.5 -129.5t-128.5 -317.5zM436 1982h344l295 -426h-217z" />
<glyph unicode="&#xd3;" d="M74 725q0 155 58.5 293.5t160 240t249 161t316.5 59.5t316.5 -59.5t250.5 -160.5t161.5 -240t58.5 -294q0 -154 -59 -292.5t-161.5 -240t-250 -161.5t-316.5 -60t-316.5 60t-249 161.5t-160 240t-58.5 292.5zM412 731q0 -188 126 -317t322 -129t322.5 129t126.5 317 t-125 317.5t-318 129.5q-197 0 -325.5 -129.5t-128.5 -317.5zM641 1556l297 426h342l-422 -426h-217z" />
<glyph unicode="&#xd4;" d="M74 725q0 155 58.5 293.5t160 240t249 161t316.5 59.5t316.5 -59.5t250.5 -160.5t161.5 -240t58.5 -294q0 -154 -59 -292.5t-161.5 -240t-250 -161.5t-316.5 -60t-316.5 60t-249 161.5t-160 240t-58.5 292.5zM412 731q0 -188 126 -317t322 -129t322.5 129t126.5 317 t-125 317.5t-318 129.5q-197 0 -325.5 -129.5t-128.5 -317.5zM467 1534v168l391 272l391 -272v-168l-391 213z" />
<glyph unicode="&#xd5;" d="M74 725q0 155 58.5 293.5t160 240t249 161t316.5 59.5t316.5 -59.5t250.5 -160.5t161.5 -240t58.5 -294q0 -154 -59 -292.5t-161.5 -240t-250 -161.5t-316.5 -60t-316.5 60t-249 161.5t-160 240t-58.5 292.5zM412 731q0 -188 126 -317t322 -129t322.5 129t126.5 317 t-125 317.5t-318 129.5q-197 0 -325.5 -129.5t-128.5 -317.5zM418 1610v233q90 111 203 111q54 0 107 -18t95 -44t82 -52t84 -44t86 -18q58 0 109.5 31t115.5 122v-254q-50 -53 -99 -77.5t-109 -24.5q-51 0 -101.5 17.5t-92 42.5t-82 50t-86.5 42.5t-91 17.5 q-52 0 -100.5 -29t-120.5 -106z" />
<glyph unicode="&#xd6;" d="M74 725q0 155 58.5 293.5t160 240t249 161t316.5 59.5t316.5 -59.5t250.5 -160.5t161.5 -240t58.5 -294q0 -154 -59 -292.5t-161.5 -240t-250 -161.5t-316.5 -60t-316.5 60t-249 161.5t-160 240t-58.5 292.5zM412 731q0 -188 126 -317t322 -129t322.5 129t126.5 317 t-125 317.5t-318 129.5q-197 0 -325.5 -129.5t-128.5 -317.5zM453 1556v318h266v-318h-266zM997 1556v318h267v-318h-267z" />
<glyph unicode="&#xd7;" horiz-adv-x="1341" d="M213 426l324 324l-324 323l133 133l324 -323l323 323l133 -133l-323 -323l323 -324l-133 -133l-323 323l-324 -323z" />
<glyph unicode="&#xd8;" d="M74 725q0 155 58.5 293.5t160 240t249 161t316.5 59.5q198 0 361 -80l96 139l137 -96l-90 -129q134 -106 208.5 -259t74.5 -329q0 -154 -59 -292.5t-161.5 -240t-250 -161.5t-316.5 -60q-202 0 -366 82l-86 -123l-136 93l80 116q-131 105 -203.5 257.5t-72.5 328.5z M412 731q0 -189 127 -319l503 733q-87 33 -176 33q-197 0 -325.5 -129.5t-128.5 -317.5zM676 319q81 -34 184 -34q196 0 322.5 129t126.5 317q0 93 -33.5 176.5t-95.5 143.5z" />
<glyph unicode="&#xd9;" horiz-adv-x="1519" d="M104 672v778h340v-823q0 -166 85 -260.5t241 -94.5t233.5 93t77.5 262v823h336v-778q0 -341 -162 -521t-485 -180q-324 0 -495 181t-171 520zM338 1982h344l295 -426h-217z" />
<glyph unicode="&#xda;" horiz-adv-x="1519" d="M104 672v778h340v-823q0 -166 85 -260.5t241 -94.5t233.5 93t77.5 262v823h336v-778q0 -341 -162 -521t-485 -180q-324 0 -495 181t-171 520zM543 1556l297 426h342l-422 -426h-217z" />
<glyph unicode="&#xdb;" horiz-adv-x="1519" d="M104 672v778h340v-823q0 -166 85 -260.5t241 -94.5t233.5 93t77.5 262v823h336v-778q0 -341 -162 -521t-485 -180q-324 0 -495 181t-171 520zM369 1534v168l391 272l391 -272v-168l-391 213z" />
<glyph unicode="&#xdc;" horiz-adv-x="1519" d="M104 672v778h340v-823q0 -166 85 -260.5t241 -94.5t233.5 93t77.5 262v823h336v-778q0 -341 -162 -521t-485 -180q-324 0 -495 181t-171 520zM354 1556v318h267v-318h-267zM899 1556v318h266v-318h-266z" />
<glyph unicode="&#xdd;" horiz-adv-x="1632" d="M12 1450h387l418 -580l416 580h387l-641 -868v-582h-336v582q-66 91 -288.5 396t-342.5 472zM598 1556l297 426h342l-422 -426h-217z" />
<glyph unicode="&#xde;" horiz-adv-x="1429" d="M119 0v1450h338v-195h288q137 0 251.5 -33t200.5 -96.5t133.5 -164.5t47.5 -230q0 -171 -84 -293.5t-225 -181.5t-324 -59h-288v-197h-338zM457 457h243q172 0 256 68.5t84 207.5q0 275 -340 275h-243v-551z" />
<glyph unicode="&#xdf;" horiz-adv-x="1329" d="M111 0v967q0 249 117 380.5t358 131.5h553v-37l-273 -596h29q171 0 271 -104t100 -285q0 -247 -139.5 -366.5t-391.5 -119.5q-108 0 -196 29l71 223q64 -24 123 -24q122 0 187 60.5t65 195.5q0 103 -50 167t-142 64t-156 -29l-68 84l217 514h-194q-111 0 -148.5 -60.5 t-37.5 -195.5v-999h-295z" />
<glyph unicode="&#xe0;" horiz-adv-x="1134" d="M59 336q0 89 32.5 157.5t89.5 109t127.5 61t152.5 20.5q226 0 311 -109q0 66 -11.5 112t-31 74t-55.5 43t-75.5 20t-100.5 5h-305v226h323q283 0 407 -128.5t124 -414.5v-512h-230l-18 115q-48 -66 -141.5 -104t-213.5 -38q-175 0 -280 93t-105 270zM145 1587h344 l295 -426h-217zM326 334q0 -43 19 -74.5t52.5 -47.5t70.5 -23t81 -7q102 0 167.5 41.5t65.5 116.5q0 73 -66.5 111t-166.5 38q-223 0 -223 -155z" />
<glyph unicode="&#xe1;" horiz-adv-x="1134" d="M59 336q0 89 32.5 157.5t89.5 109t127.5 61t152.5 20.5q226 0 311 -109q0 66 -11.5 112t-31 74t-55.5 43t-75.5 20t-100.5 5h-305v226h323q283 0 407 -128.5t124 -414.5v-512h-230l-18 115q-48 -66 -141.5 -104t-213.5 -38q-175 0 -280 93t-105 270zM326 334 q0 -43 19 -74.5t52.5 -47.5t70.5 -23t81 -7q102 0 167.5 41.5t65.5 116.5q0 73 -66.5 111t-166.5 38q-223 0 -223 -155zM350 1161l297 426h342l-422 -426h-217z" />
<glyph unicode="&#xe2;" horiz-adv-x="1134" d="M59 336q0 89 32.5 157.5t89.5 109t127.5 61t152.5 20.5q226 0 311 -109q0 66 -11.5 112t-31 74t-55.5 43t-75.5 20t-100.5 5h-305v226h323q283 0 407 -128.5t124 -414.5v-512h-230l-18 115q-48 -66 -141.5 -104t-213.5 -38q-175 0 -280 93t-105 270zM197 1139v168 l391 272l391 -272v-168l-391 213zM326 334q0 -43 19 -74.5t52.5 -47.5t70.5 -23t81 -7q102 0 167.5 41.5t65.5 116.5q0 73 -66.5 111t-166.5 38q-223 0 -223 -155z" />
<glyph unicode="&#xe3;" horiz-adv-x="1134" d="M59 336q0 89 32.5 157.5t89.5 109t127.5 61t152.5 20.5q226 0 311 -109q0 66 -11.5 112t-31 74t-55.5 43t-75.5 20t-100.5 5h-305v226h323q283 0 407 -128.5t124 -414.5v-512h-230l-18 115q-48 -66 -141.5 -104t-213.5 -38q-175 0 -280 93t-105 270zM166 1214v234 q90 111 203 111q54 0 107 -18t95 -44.5t82 -52.5t84 -44t86 -18q58 0 110 31.5t116 122.5v-254q-50 -53 -99 -77.5t-110 -24.5q-51 0 -101.5 17.5t-92 42.5t-82 50t-86.5 42.5t-91 17.5q-52 0 -100 -29.5t-121 -106.5zM326 334q0 -43 19 -74.5t52.5 -47.5t70.5 -23t81 -7 q102 0 167.5 41.5t65.5 116.5q0 73 -66.5 111t-166.5 38q-223 0 -223 -155z" />
<glyph unicode="&#xe4;" horiz-adv-x="1134" d="M59 336q0 89 32.5 157.5t89.5 109t127.5 61t152.5 20.5q226 0 311 -109q0 66 -11.5 112t-31 74t-55.5 43t-75.5 20t-100.5 5h-305v226h323q283 0 407 -128.5t124 -414.5v-512h-230l-18 115q-48 -66 -141.5 -104t-213.5 -38q-175 0 -280 93t-105 270zM182 1161v318h267 v-318h-267zM326 334q0 -43 19 -74.5t52.5 -47.5t70.5 -23t81 -7q102 0 167.5 41.5t65.5 116.5q0 73 -66.5 111t-166.5 38q-223 0 -223 -155zM727 1161v318h266v-318h-266z" />
<glyph unicode="&#xe5;" horiz-adv-x="1134" d="M59 336q0 89 32.5 157.5t89.5 109t127.5 61t152.5 20.5q226 0 311 -109q0 66 -11.5 112t-31 74t-55.5 43t-75.5 20t-100.5 5h-305v226h323q283 0 407 -128.5t124 -414.5v-512h-230l-18 115q-48 -66 -141.5 -104t-213.5 -38q-175 0 -280 93t-105 270zM281 1333 q0 125 71 189.5t234 64.5q162 0 235.5 -64.5t73.5 -189.5q0 -127 -73.5 -192.5t-235.5 -65.5q-163 0 -234 65t-71 193zM326 334q0 -43 19 -74.5t52.5 -47.5t70.5 -23t81 -7q102 0 167.5 41.5t65.5 116.5q0 73 -66.5 111t-166.5 38q-223 0 -223 -155zM412 1333q0 -71 41 -106 t133 -35q93 0 133.5 35t40.5 106q0 68 -40.5 101.5t-133.5 33.5q-92 0 -133 -33.5t-41 -101.5z" />
<glyph unicode="&#xe6;" horiz-adv-x="1855" d="M59 336q0 89 32.5 157.5t89.5 109t127.5 61t152.5 20.5q157 0 250 -55q10 68 28 116q-29 50 -85 67t-156 17h-305v226h323q242 0 371 -99q149 127 370 127q210 0 348.5 -127t163.5 -340l-755 -221q31 -85 100 -132.5t166 -47.5q93 0 171 54t103 149l236 -80 q-56 -176 -204 -272.5t-341 -96.5q-226 0 -379 156q-99 -86 -196 -119t-226 -33q-175 0 -280 93t-105 270zM326 334q0 -43 19 -74.5t52.5 -47.5t70.5 -23t81 -7q76 0 132.5 22.5t82.5 65.5q-41 87 -53 185q-64 34 -162 34q-223 0 -223 -155zM975 559q6 2 495 152 q-48 149 -229 149q-124 0 -195 -84t-71 -217z" />
<glyph unicode="&#xe7;" horiz-adv-x="1140" d="M63 522q0 254 152.5 407.5t396.5 153.5q332 0 471 -264l-221 -137q-41 82 -99.5 119t-141.5 37q-125 0 -197 -85t-72 -223q0 -133 66 -218t198 -85q99 0 167.5 50.5t105.5 138.5l215 -125q-48 -137 -180.5 -228.5t-325.5 -91.5q-228 0 -381.5 156t-153.5 395zM408 -457 l182 394l184 -394h-366z" />
<glyph unicode="&#xe8;" horiz-adv-x="1224" d="M74 545q0 161 74.5 285t199.5 188.5t279 64.5q210 0 348.5 -127t163.5 -340l-756 -221q31 -85 100 -132.5t166 -47.5q94 0 172 54t103 149l235 -80q-56 -176 -204 -272.5t-341 -96.5q-116 0 -217 44.5t-171.5 121.5t-111 183.5t-40.5 226.5zM190 1587h345l294 -426h-217z M344 559l496 152q-48 149 -230 149q-124 0 -195 -84t-71 -217z" />
<glyph unicode="&#xe9;" horiz-adv-x="1224" d="M74 545q0 161 74.5 285t199.5 188.5t279 64.5q210 0 348.5 -127t163.5 -340l-756 -221q31 -85 100 -132.5t166 -47.5q94 0 172 54t103 149l235 -80q-56 -176 -204 -272.5t-341 -96.5q-116 0 -217 44.5t-171.5 121.5t-111 183.5t-40.5 226.5zM344 559l496 152 q-48 149 -230 149q-124 0 -195 -84t-71 -217zM395 1161l297 426h342l-422 -426h-217z" />
<glyph unicode="&#xea;" horiz-adv-x="1224" d="M74 545q0 161 74.5 285t199.5 188.5t279 64.5q210 0 348.5 -127t163.5 -340l-756 -221q31 -85 100 -132.5t166 -47.5q94 0 172 54t103 149l235 -80q-56 -176 -204 -272.5t-341 -96.5q-116 0 -217 44.5t-171.5 121.5t-111 183.5t-40.5 226.5zM221 1139v168l391 272 l392 -272v-168l-392 213zM344 559l496 152q-48 149 -230 149q-124 0 -195 -84t-71 -217z" />
<glyph unicode="&#xeb;" horiz-adv-x="1224" d="M74 545q0 161 74.5 285t199.5 188.5t279 64.5q210 0 348.5 -127t163.5 -340l-756 -221q31 -85 100 -132.5t166 -47.5q94 0 172 54t103 149l235 -80q-56 -176 -204 -272.5t-341 -96.5q-116 0 -217 44.5t-171.5 121.5t-111 183.5t-40.5 226.5zM207 1161v318h266v-318h-266z M344 559l496 152q-48 149 -230 149q-124 0 -195 -84t-71 -217zM752 1161v318h266v-318h-266z" />
<glyph unicode="&#xec;" horiz-adv-x="643" d="M-35 1587h344l295 -426h-217zM246 0v1055h278v-1055h-278z" />
<glyph unicode="&#xed;" horiz-adv-x="647" d="M41 1161l297 426h342l-422 -426h-217zM117 0v1055h278v-1055h-278z" />
<glyph unicode="&#xee;" horiz-adv-x="755" d="M-12 1139v168l391 272l391 -272v-168l-391 213zM238 0v1055h278v-1055h-278z" />
<glyph unicode="&#xef;" horiz-adv-x="780" d="M-14 1161v318h266v-318h-266zM250 0v1055h278v-1055h-278zM530 1161v318h267v-318h-267z" />
<glyph unicode="&#xf0;" horiz-adv-x="1249" d="M63 444q0 99 28.5 175.5t74 123t110 76t129.5 40.5t140 11q133 0 236 -57t165 -151q0 82 -2.5 131.5t-13 121t-37 128.5t-68.5 104l-149 -133h-172l217 194q-55 27 -135 27q-121 0 -269 -64l-79 218q170 90 356 90q188 0 319 -90l103 90h174l-189 -172q168 -203 168 -658 q0 -147 -31 -266.5t-97 -213.5t-179 -146t-266 -52q-111 0 -206.5 29t-169 85.5t-115.5 148.5t-42 210zM350 457q0 -123 70.5 -193.5t187.5 -70.5q127 0 193 77.5t76 208.5q-80 219 -287 219q-107 0 -173.5 -60t-66.5 -181z" />
<glyph unicode="&#xf1;" horiz-adv-x="1183" d="M109 0v1055h245q3 -22 11.5 -67.5t11.5 -67.5q47 74 139.5 118.5t208.5 44.5q161 0 260.5 -89.5t99.5 -266.5v-727h-280v645q0 105 -41 153t-143 48q-80 0 -141 -48t-87 -132v-666h-284zM150 1214v234q90 111 202 111q54 0 107 -18t95.5 -44.5t82.5 -52.5t84 -44t86 -18 q58 0 109.5 31.5t115.5 122.5v-254q-50 -53 -99 -77.5t-110 -24.5q-51 0 -101.5 17.5t-91.5 42.5t-81.5 50t-86.5 42.5t-91 17.5q-52 0 -100 -29.5t-121 -106.5z" />
<glyph unicode="&#xf2;" horiz-adv-x="1241" d="M63 506q0 265 155.5 421t399.5 156q119 0 221.5 -40t177 -113t117 -182.5t42.5 -241.5q0 -150 -65.5 -271t-194 -192.5t-298.5 -71.5q-128 0 -233.5 41.5t-175 114t-108 170t-38.5 209.5zM199 1587h344l295 -426h-217zM352 520q0 -126 70.5 -210.5t195.5 -84.5t196 84.5 t71 210.5q0 138 -73 222.5t-194 84.5t-193.5 -84t-72.5 -223z" />
<glyph unicode="&#xf3;" horiz-adv-x="1241" d="M63 506q0 265 155.5 421t399.5 156q119 0 221.5 -40t177 -113t117 -182.5t42.5 -241.5q0 -150 -65.5 -271t-194 -192.5t-298.5 -71.5q-128 0 -233.5 41.5t-175 114t-108 170t-38.5 209.5zM352 520q0 -126 70.5 -210.5t195.5 -84.5t196 84.5t71 210.5q0 138 -73 222.5 t-194 84.5t-193.5 -84t-72.5 -223zM403 1161l297 426h342l-421 -426h-218z" />
<glyph unicode="&#xf4;" horiz-adv-x="1241" d="M63 506q0 265 155.5 421t399.5 156q119 0 221.5 -40t177 -113t117 -182.5t42.5 -241.5q0 -150 -65.5 -271t-194 -192.5t-298.5 -71.5q-128 0 -233.5 41.5t-175 114t-108 170t-38.5 209.5zM229 1139v168l392 272l391 -272v-168l-391 213zM352 520q0 -126 70.5 -210.5 t195.5 -84.5t196 84.5t71 210.5q0 138 -73 222.5t-194 84.5t-193.5 -84t-72.5 -223z" />
<glyph unicode="&#xf5;" horiz-adv-x="1241" d="M63 506q0 265 155.5 421t399.5 156q119 0 221.5 -40t177 -113t117 -182.5t42.5 -241.5q0 -150 -65.5 -271t-194 -192.5t-298.5 -71.5q-128 0 -233.5 41.5t-175 114t-108 170t-38.5 209.5zM178 1214v234q90 111 203 111q54 0 107 -18t95.5 -44.5t82.5 -52.5t84 -44t86 -18 q58 0 109.5 31.5t115.5 122.5v-254q-50 -53 -99 -77.5t-110 -24.5q-51 0 -101.5 17.5t-92 42.5t-82 50t-86.5 42.5t-91 17.5q-52 0 -100 -29.5t-121 -106.5zM352 520q0 -126 70.5 -210.5t195.5 -84.5t196 84.5t71 210.5q0 138 -73 222.5t-194 84.5t-193.5 -84t-72.5 -223z " />
<glyph unicode="&#xf6;" horiz-adv-x="1241" d="M63 506q0 265 155.5 421t399.5 156q119 0 221.5 -40t177 -113t117 -182.5t42.5 -241.5q0 -150 -65.5 -271t-194 -192.5t-298.5 -71.5q-128 0 -233.5 41.5t-175 114t-108 170t-38.5 209.5zM215 1161v318h266v-318h-266zM352 520q0 -126 70.5 -210.5t195.5 -84.5t196 84.5 t71 210.5q0 138 -73 222.5t-194 84.5t-193.5 -84t-72.5 -223zM760 1161v318h266v-318h-266z" />
<glyph unicode="&#xf7;" horiz-adv-x="1341" d="M119 655v189h1104v-189h-1104zM504 133v440h334v-440h-334zM504 926v440h334v-440h-334z" />
<glyph unicode="&#xf8;" horiz-adv-x="1241" d="M63 506q0 265 155.5 421t399.5 156q127 0 236 -47l129 197l135 -96l-125 -187q183 -162 183 -444q0 -150 -65.5 -271t-194 -192.5t-298.5 -71.5q-126 0 -243 45l-109 -161l-135 94l102 155q-83 72 -126.5 176t-43.5 226zM352 520q0 -102 43 -172l307 465q-44 14 -84 14 q-121 0 -193.5 -84t-72.5 -223zM522 240q44 -15 96 -15q125 0 196 84.5t71 210.5q0 115 -51 191z" />
<glyph unicode="&#xf9;" horiz-adv-x="1169" d="M102 328v727h279v-647q0 -106 39.5 -153.5t142.5 -47.5q183 0 215 248v600h285v-1055h-244l-24 133q-46 -74 -132 -118t-202 -44q-161 0 -260 89.5t-99 267.5zM162 1587h344l295 -426h-217z" />
<glyph unicode="&#xfa;" horiz-adv-x="1169" d="M102 328v727h279v-647q0 -106 39.5 -153.5t142.5 -47.5q183 0 215 248v600h285v-1055h-244l-24 133q-46 -74 -132 -118t-202 -44q-161 0 -260 89.5t-99 267.5zM367 1161l297 426h342l-422 -426h-217z" />
<glyph unicode="&#xfb;" horiz-adv-x="1169" d="M102 328v727h279v-647q0 -106 39.5 -153.5t142.5 -47.5q183 0 215 248v600h285v-1055h-244l-24 133q-46 -74 -132 -118t-202 -44q-161 0 -260 89.5t-99 267.5zM193 1139v168l391 272l391 -272v-168l-391 213z" />
<glyph unicode="&#xfc;" horiz-adv-x="1169" d="M102 328v727h279v-647q0 -106 39.5 -153.5t142.5 -47.5q183 0 215 248v600h285v-1055h-244l-24 133q-46 -74 -132 -118t-202 -44q-161 0 -260 89.5t-99 267.5zM178 1161v318h266v-318h-266zM723 1161v318h266v-318h-266z" />
<glyph unicode="&#xfd;" horiz-adv-x="1198" d="M104 518v537h289v-547q0 -102 42 -153.5t145 -51.5q91 0 141 42t88 134v576h285v-889q0 -126 -35 -224t-88.5 -157t-127 -96.5t-142 -51.5t-140.5 -14q-110 0 -172 21v239q66 -16 139 -16q279 0 279 303v37q-43 -59 -126 -97t-196 -38q-107 0 -182.5 32t-118 93.5 t-61.5 139.5t-19 181zM381 1161l297 426h342l-422 -426h-217z" />
<glyph unicode="&#xfe;" horiz-adv-x="1269" d="M111 -360v1839h282v-557q43 65 134.5 113t197.5 48q124 0 217 -44t148.5 -122.5t82.5 -178t27 -218.5q0 -114 -28 -211.5t-84 -174t-149.5 -120t-215.5 -43.5q-111 0 -201.5 49t-128.5 111v-491h-282zM389 530q0 -134 74 -212t199 -78q247 0 247 290q0 141 -60.5 219 t-186.5 78q-127 0 -200 -80.5t-73 -216.5z" />
<glyph unicode="&#xff;" horiz-adv-x="1198" d="M104 518v537h289v-547q0 -102 42 -153.5t145 -51.5q91 0 141 42t88 134v576h285v-889q0 -126 -35 -224t-88.5 -157t-127 -96.5t-142 -51.5t-140.5 -14q-110 0 -172 21v239q66 -16 139 -16q279 0 279 303v37q-43 -59 -126 -97t-196 -38q-107 0 -182.5 32t-118 93.5 t-61.5 139.5t-19 181zM193 1161v318h266v-318h-266zM737 1161v318h267v-318h-267z" />
<glyph unicode="&#x152;" horiz-adv-x="2334" d="M74 725q0 212 99.5 377.5t278 256.5t406.5 91h1346v-276h-711v-316h397v-223h-397v-348h760v-287h-1397q-228 0 -406 91t-277 256.5t-99 377.5zM412 731q0 -191 125.5 -317.5t322.5 -126.5h291v887h-285q-198 0 -326 -126.5t-128 -316.5z" />
<glyph unicode="&#x153;" horiz-adv-x="1933" d="M63 506q0 265 155.5 421t399.5 156q210 0 359 -118q149 118 360 118q210 0 348.5 -127t163.5 -340l-755 -221q31 -85 100 -132.5t166 -47.5q93 0 171 54t103 149l236 -80q-56 -176 -204 -272.5t-341 -96.5q-195 0 -340 119q-145 -117 -367 -117q-128 0 -233.5 41.5 t-175 114t-108 170t-38.5 209.5zM352 520q0 -126 70.5 -210.5t195.5 -84.5q131 0 205 97q-39 98 -39 223q0 104 31 192q-71 90 -197 90q-121 0 -193.5 -84t-72.5 -223zM1055 559l495 152q-48 149 -229 149q-124 0 -195 -84t-71 -217z" />
<glyph unicode="&#x178;" horiz-adv-x="1632" d="M12 1450h387l418 -580l416 580h387l-641 -868v-582h-336v582q-66 91 -288.5 396t-342.5 472zM410 1556v318h266v-318h-266zM954 1556v318h267v-318h-267z" />
<glyph unicode="&#x2c6;" horiz-adv-x="1015" d="M117 1139v168l391 272l391 -272v-168l-391 213z" />
<glyph unicode="&#x2dc;" horiz-adv-x="1114" d="M115 1214v234q90 111 202 111q54 0 107 -18t95.5 -44.5t82.5 -52.5t84 -44t86 -18q58 0 109.5 31.5t115.5 122.5v-254q-50 -53 -99 -77.5t-110 -24.5q-51 0 -101.5 17.5t-91.5 42.5t-81.5 50t-86.5 42.5t-91 17.5q-52 0 -100 -29.5t-121 -106.5z" />
<glyph unicode="&#x2000;" horiz-adv-x="991" />
<glyph unicode="&#x2001;" horiz-adv-x="1982" />
<glyph unicode="&#x2002;" horiz-adv-x="991" />
<glyph unicode="&#x2003;" horiz-adv-x="1982" />
<glyph unicode="&#x2004;" horiz-adv-x="660" />
<glyph unicode="&#x2005;" horiz-adv-x="495" />
<glyph unicode="&#x2006;" horiz-adv-x="330" />
<glyph unicode="&#x2007;" horiz-adv-x="330" />
<glyph unicode="&#x2008;" horiz-adv-x="247" />
<glyph unicode="&#x2009;" horiz-adv-x="396" />
<glyph unicode="&#x200a;" horiz-adv-x="110" />
<glyph unicode="&#x2010;" horiz-adv-x="833" d="M55 510v242h723v-242h-723z" />
<glyph unicode="&#x2011;" horiz-adv-x="833" d="M55 510v242h723v-242h-723z" />
<glyph unicode="&#x2012;" horiz-adv-x="833" d="M55 510v242h723v-242h-723z" />
<glyph unicode="&#x2013;" horiz-adv-x="1212" d="M55 510v242h1102v-242h-1102z" />
<glyph unicode="&#x2014;" horiz-adv-x="1734" d="M55 510v242h1624v-242h-1624z" />
<glyph unicode="&#x2018;" horiz-adv-x="534" d="M90 1038v412h334v-418l-76 -28l92 -328h-100z" />
<glyph unicode="&#x2019;" horiz-adv-x="534" d="M90 676l92 328l-76 28v418h334v-412l-247 -362h-103z" />
<glyph unicode="&#x201a;" horiz-adv-x="534" d="M90 -334l92 332l-76 27v415h334v-411l-247 -363h-103z" />
<glyph unicode="&#x201c;" horiz-adv-x="1069" d="M90 1038v412h334v-418l-76 -28l92 -328h-100zM625 1038v412h333v-418l-75 -28l92 -328h-101z" />
<glyph unicode="&#x201d;" horiz-adv-x="1069" d="M90 676l92 328l-76 28v418h334v-412l-247 -362h-103zM625 676l92 328l-76 28v418h334v-412l-248 -362h-102z" />
<glyph unicode="&#x201e;" horiz-adv-x="1069" d="M90 -334l92 332l-76 27v415h334v-411l-247 -363h-103zM625 -334l92 332l-76 27v415h334v-411l-248 -363h-102z" />
<glyph unicode="&#x2022;" horiz-adv-x="899" d="M98 727q0 147 100.5 249.5t247.5 102.5q148 0 251.5 -103t103.5 -249q0 -147 -103.5 -249.5t-251.5 -102.5q-147 0 -247.5 102t-100.5 250z" />
<glyph unicode="&#x2026;" horiz-adv-x="2422" d="M113 0v440h333v-440h-333zM1047 0v440h333v-440h-333zM1980 0v440h334v-440h-334z" />
<glyph unicode="&#x202f;" horiz-adv-x="396" />
<glyph unicode="&#x2039;" horiz-adv-x="632" d="M55 606l328 391h195l-265 -391l265 -393h-195z" />
<glyph unicode="&#x203a;" horiz-adv-x="632" d="M55 213l262 393l-262 391h193l330 -391l-330 -393h-193z" />
<glyph unicode="&#x205f;" horiz-adv-x="495" />
<glyph unicode="&#x20ac;" horiz-adv-x="1374" d="M8 485l55 193h91q-2 14 -2 47q0 57 4 86h-148l55 193h140q84 214 279 344.5t454 130.5t463 -138l-195 -245q-113 82 -260 82q-114 0 -209 -47t-157 -127h552l-153 -193h-481q-7 -47 -7 -80q0 -29 3 -53h378l-153 -193h-158q58 -93 157 -146.5t222 -53.5q144 0 256 73 l168 -272q-185 -115 -426 -115q-271 0 -472 142.5t-276 371.5h-180z" />
<glyph unicode="&#x2122;" horiz-adv-x="1583" d="M70 1296v154h632v-154h-223v-516h-186v516h-223zM799 780v670h37l299 -397l297 397h34v-670h-166v242l-165 -234l-170 234v-242h-166z" />
<glyph unicode="&#x25fc;" horiz-adv-x="1054" d="M0 0v1055h1055v-1055h-1055z" />
</font>
</defs>
</svg>
