<?xml version="1.0" standalone="no"?>
<!DOCTYPE svg PUBLIC "-//W3C//DTD SVG 1.1//EN" "http://www.w3.org/Graphics/SVG/1.1/DTD/svg11.dtd" >
<svg xmlns="http://www.w3.org/2000/svg" xmlns:xlink="http://www.w3.org/1999/xlink" version="1.1">
<metadata></metadata>
<defs>
<font id="great_escapeblack" horiz-adv-x="1181" >
<font-face units-per-em="2048" ascent="1475" descent="-573" />
<missing-glyph horiz-adv-x="491" />
<glyph unicode="&#x28;C&#x29;" horiz-adv-x="1398" d="M100 524v406q0 302 143.5 431.5t454.5 129.5t454.5 -129.5t143.5 -431.5v-406q0 -302 -143.5 -431.5t-454.5 -129.5t-454.5 129.5t-143.5 431.5zM276 524q0 -208 101 -297.5t321 -89.5t322 89.5t102 297.5v406q0 208 -102 296.5t-322 88.5t-321 -88.5t-101 -296.5v-406z M440 637v197q0 147 69.5 208.5t223.5 61.5q57 0 105 -9t67 -18v-166q-105 19 -178 19q-54 0 -79 -24t-25 -81v-178q0 -58 25 -82t79 -24q70 0 180 20v-168q-60 -24 -174 -24q-154 0 -223.5 61.5t-69.5 206.5z" />
<glyph unicode="&#x28;R&#x29;" horiz-adv-x="1398" d="M100 524v406q0 302 143.5 431.5t454.5 129.5t454.5 -129.5t143.5 -431.5v-406q0 -302 -143.5 -431.5t-454.5 -129.5t-454.5 129.5t-143.5 431.5zM276 524q0 -208 101 -297.5t321 -89.5t322 89.5t102 297.5v406q0 208 -102 296.5t-322 88.5t-321 -88.5t-101 -296.5v-406z M446 385v702h328q178 0 178 -165v-35q0 -67 -15 -97.5t-50 -46.5q26 -10 42 -24.5t28 -47t12 -81.5v-205h-183v207q0 40 -12 58t-41 18h-110v-283h-177zM623 805h108q53 0 53 67q0 66 -53 66h-108v-133z" />
<glyph horiz-adv-x="0" />
<glyph horiz-adv-x="682" />
<glyph horiz-adv-x="491" />
<glyph unicode=" "  horiz-adv-x="491" />
<glyph unicode="&#x09;" horiz-adv-x="491" />
<glyph unicode="&#xa0;" horiz-adv-x="491" />
<glyph unicode="!" horiz-adv-x="595" d="M100 1335q0 81 17 119h366q13 -54 13 -119q0 -216 -25 -416t-82 -485h-182q-57 285 -82 485t-25 416zM117 0v319h358v-319h-358z" />
<glyph unicode="&#x22;" horiz-adv-x="890" d="M82 907v547h266v-547h-266zM516 907v547h266v-547h-266z" />
<glyph unicode="#" horiz-adv-x="1153" d="M45 395l25 228h182l29 211h-177l27 227h180l58 393h221l-55 -393h163l52 393h229l-53 -393h180l-33 -227h-176l-29 -211h179l-25 -228h-184l-54 -395h-231l59 395h-163l-50 -395h-229l53 395h-178zM475 623h164l31 211h-162z" />
<glyph unicode="$" horiz-adv-x="1089" d="M66 899v57q0 88 27.5 152t78 101.5t109.5 57t135 27.5v160h274v-151q162 -14 287 -46v-258q-202 39 -371 39q-41 0 -64 -1t-49 -5.5t-39 -13t-21.5 -24t-8.5 -38.5q0 -40 16.5 -54.5t57.5 -22.5q31 -7 105.5 -15.5t111.5 -13.5q33 -4 54 -7t58 -12t61.5 -19.5t54.5 -30 t48 -43.5t30.5 -60t12.5 -80v-78q0 -87 -27 -152t-77.5 -104t-108 -61t-131.5 -33v-170h-274v160q-165 3 -326 47v280q236 -41 367 -41q129 0 169 15.5t40 66.5q0 38 -27 50.5t-92 17.5q-93 7 -158 20q-30 6 -48 9.5t-46 10t-45.5 13t-42 16t-39.5 21t-33.5 26.5t-29 34 t-20.5 41.5t-14.5 50.5t-4.5 61z" />
<glyph unicode="%" horiz-adv-x="1585" d="M102 997v226q0 149 65 209.5t206 60.5q140 0 204 -60.5t64 -209.5v-226q0 -149 -64 -208.5t-204 -59.5q-142 0 -206.5 59.5t-64.5 208.5zM268 -43l846 1542h203l-850 -1542h-199zM287 1001q0 -57 21 -77.5t65 -20.5q43 0 63.5 20.5t20.5 77.5v218q0 57 -20.5 77.5 t-63.5 20.5q-44 0 -65 -20.5t-21 -77.5v-218zM944 229v226q0 149 64.5 209.5t205.5 60.5q140 0 204.5 -60.5t64.5 -209.5v-226q0 -149 -64.5 -208.5t-204.5 -59.5q-141 0 -205.5 59.5t-64.5 208.5zM1128 233q0 -57 21 -77.5t65 -20.5q43 0 63.5 20.5t20.5 77.5v218 q0 57 -20.5 77.5t-63.5 20.5q-44 0 -65 -20.5t-21 -77.5v-218z" />
<glyph unicode="&#x26;" horiz-adv-x="1437" d="M70 317v109q0 128 52.5 204.5t160.5 117.5q-88 92 -121.5 155t-34.5 172v60q0 201 107 278.5t366 77.5q257 0 357 -76.5t100 -279.5v-60q0 -92 -15 -145.5t-50 -92.5t-109 -87l-131 -66l147 -147q13 19 16 39t3 63v16h399v-18q0 -105 -11.5 -161.5t-41 -100.5t-97.5 -105 l271 -270h-428l-66 66q-70 -58 -163 -80.5t-269 -22.5q-223 0 -332.5 79.5t-109.5 274.5zM442 457q0 -99 29.5 -130.5t101.5 -31.5q68 0 115 37l-209 213q-37 -32 -37 -88zM508 1004q0 -49 15 -78t55 -72q86 33 111.5 62.5t25.5 97.5v45q0 52 -26.5 70t-76.5 18 q-51 0 -77.5 -18t-26.5 -70v-55z" />
<glyph unicode="'" horiz-adv-x="432" d="M82 907v547h266v-547h-266z" />
<glyph unicode="(" horiz-adv-x="722" d="M139 659q0 258 89.5 496.5t271.5 439.5h252q-254 -461 -254 -940q0 -489 254 -968h-252q-177 203 -269 454t-92 518z" />
<glyph unicode=")" horiz-adv-x="722" d="M-29 -313q252 475 252 968q0 485 -252 940h252q182 -201 271.5 -439.5t89.5 -496.5q0 -267 -92 -518t-269 -454h-252z" />
<glyph unicode="*" horiz-adv-x="909" d="M66 1102l53 164l235 -74v274h193v-274l235 74l60 -164l-242 -76l158 -223l-146 -105l-161 213l-156 -213l-148 105l158 223z" />
<glyph unicode="+" horiz-adv-x="1243" d="M92 627v252h402v401h251v-401h404v-252h-404v-406h-251v406h-402z" />
<glyph unicode="," horiz-adv-x="720" d="M176 -332v664h369v-201q0 -197 -101 -325.5t-268 -137.5z" />
<glyph unicode="-" horiz-adv-x="661" d="M53 539v270h555v-270h-555z" />
<glyph unicode="." horiz-adv-x="628" d="M129 0v332h371v-332h-371z" />
<glyph unicode="/" horiz-adv-x="669" d="M0 -219l377 1673h293l-383 -1673h-287z" />
<glyph unicode="0" horiz-adv-x="1292" d="M109 502v448q0 153 32 257.5t100.5 167t166.5 89.5t239 27q140 0 237.5 -27t166 -89.5t101 -167t32.5 -257.5v-448q0 -153 -32.5 -257t-101 -166.5t-166 -89t-237.5 -26.5q-141 0 -238.5 26.5t-166.5 89t-101 166.5t-32 257zM475 510q0 -115 42 -157t130 -42q86 0 128 42 t42 157v434q0 113 -42 155t-128 42q-88 0 -130 -41.5t-42 -155.5v-434z" />
<glyph unicode="1" horiz-adv-x="716" d="M66 1106v348h509v-1454h-376v1106h-133z" />
<glyph unicode="2" horiz-adv-x="1212" d="M109 0v426q0 72 11.5 128t41.5 97t56 68t81.5 52t90.5 37t108 35q11 3 16 5q17 6 56.5 17.5t67.5 21.5t54 22q39 18 50.5 43t11.5 80q0 77 -42.5 100t-154.5 23q-170 0 -391 -53v328q209 61 391 61q69 0 125.5 -4t116 -16t105 -31.5t87 -52t68.5 -76.5t43 -105.5 t16 -138.5v-88q0 -41 -7.5 -77t-19 -64.5t-32.5 -54t-39.5 -43.5t-49 -36.5t-53.5 -29.5t-60 -25t-60 -21.5t-63 -19.5q-2 -1 -3 -1t-3 -1t-3.5 -1.5t-3.5 -0.5q-17 -5 -51 -14t-55 -15t-49 -18.5t-44 -27t-27.5 -39.5t-11.5 -56v-108h613v-326h-987z" />
<glyph unicode="3" horiz-adv-x="1185" d="M80 14v330q204 -39 409 -39q129 0 182.5 32t53.5 126q0 75 -38.5 104t-135.5 29h-270v278h272q87 0 129.5 30t42.5 108q0 88 -47.5 116.5t-179.5 28.5q-203 0 -389 -53v330q189 57 395 57q64 0 117 -3.5t112.5 -14.5t106 -29.5t90.5 -50t73 -73t46.5 -102t17.5 -135.5 q0 -272 -193 -323q119 -37 171.5 -124t52.5 -220q0 -86 -17.5 -154.5t-45.5 -115.5t-74 -81t-93 -53.5t-112 -30.5t-121.5 -14.5t-130.5 -3.5q-230 0 -424 51z" />
<glyph unicode="4" horiz-adv-x="1220" d="M57 252v321l367 881h358l-362 -907h319v500h332v-500h107v-295h-107v-252h-342v252h-672z" />
<glyph unicode="5" horiz-adv-x="1208" d="M102 621l33 833h938v-326h-600l-12 -254q78 41 215 41q108 0 184.5 -17t136.5 -58.5t89.5 -118t29.5 -189.5v-120q0 -86 -18.5 -154.5t-48 -115t-77.5 -80t-97 -52.5t-116.5 -30t-125.5 -14t-135 -3q-212 0 -373 51v338q218 -45 399 -45q153 0 197.5 32.5t44.5 149.5 q0 92 -36 130t-134 38q-139 0 -197 -65z" />
<glyph unicode="6" horiz-adv-x="1257" d="M109 524v406q0 302 142 431.5t449 129.5q111 0 206.5 -18t137.5 -35v-338q-161 39 -356 39q-110 0 -164.5 -48.5t-54.5 -164.5v-60q151 45 276 45q201 0 317 -109.5t116 -338.5q0 -277 -117.5 -388.5t-405.5 -111.5q-283 0 -414.5 134t-131.5 427zM469 539q0 -62 8 -101 t29.5 -69t62 -43t103.5 -13q86 0 120.5 32.5t34.5 107.5q0 76 -37.5 108.5t-134.5 32.5q-103 0 -186 -27v-28z" />
<glyph unicode="7" horiz-adv-x="1136" d="M39 1133v321h1065v-266l-522 -1188h-416l539 1133h-666z" />
<glyph unicode="8" horiz-adv-x="1271" d="M68 416q0 133 51.5 220t169.5 124q-191 52 -191 323q0 75 15 135t40.5 102.5t65 73.5t82.5 49.5t99.5 29.5t109.5 14.5t119 3.5q95 0 166 -8t143.5 -33t118.5 -68.5t75 -119t29 -179.5q0 -272 -190 -323q118 -37 169.5 -124t51.5 -220q0 -87 -15 -155t-39.5 -115 t-65.5 -81t-84.5 -53.5t-106 -30.5t-119 -14.5t-133.5 -3.5t-133 3.5t-118.5 14.5t-105.5 30.5t-84 53.5t-65.5 81t-39.5 115t-15 155zM438 449q0 -86 43.5 -122t147.5 -36q107 0 149.5 35.5t42.5 122.5q0 89 -43 128t-149 39q-103 0 -147 -39t-44 -128zM438 1008 q0 -86 46 -120t145 -34q101 0 146.5 34t45.5 120q0 87 -46.5 124t-145.5 37q-98 0 -144.5 -37t-46.5 -124z" />
<glyph unicode="9" horiz-adv-x="1239" d="M70 981q0 142 26 236.5t87 157t158 89.5t243 27q283 0 413.5 -134.5t130.5 -426.5v-406q0 -302 -141.5 -431.5t-449.5 -129.5q-110 0 -207 17t-137 34v344q184 -39 358 -39q110 0 164.5 46t54.5 161v56q-146 -47 -276 -47q-81 0 -142.5 11.5t-116 41.5t-90 79.5 t-55.5 128.5t-20 185zM410 997q0 -75 38 -110t136 -35q79 0 186 31v28q0 62 -8 103.5t-29.5 74.5t-63 48.5t-104.5 15.5q-84 0 -119.5 -39.5t-35.5 -116.5z" />
<glyph unicode=":" horiz-adv-x="720" d="M176 0v332h367v-332h-367zM176 743v328h367v-328h-367z" />
<glyph unicode=";" horiz-adv-x="718" d="M176 -332v664h369v-201q0 -197 -101 -325.5t-268 -137.5zM176 743v328h367v-328h-367z" />
<glyph unicode="&#x3c;" horiz-adv-x="1243" d="M92 627v252l1057 413v-278l-772 -262l772 -263v-278z" />
<glyph unicode="=" horiz-adv-x="1243" d="M92 408v251h1057v-251h-1057zM92 844v252h1057v-252h-1057z" />
<glyph unicode="&#x3e;" horiz-adv-x="1243" d="M92 211v278l772 263l-772 262v278l1057 -413v-252z" />
<glyph unicode="?" horiz-adv-x="882" d="M23 1139v309q128 43 288 43q514 0 514 -367v-141q0 -63 -16.5 -111t-43 -76.5t-58 -50.5t-63.5 -40t-58.5 -38t-43 -51.5t-16.5 -74.5v-82h-307v125q0 83 27 140.5t65 86.5t76 52t65 56t27 80v52q0 33 -11.5 57t-28.5 37.5t-43 21t-49 9.5t-54 2q-162 0 -270 -39zM188 0 v319h363v-319h-363z" />
<glyph unicode="@" horiz-adv-x="1275" d="M100 262v445q0 117 14 206.5t44.5 155t74 109t107.5 70t140 37.5t177 11q265 0 396 -106t131 -350v-723h-199l-6 67q-77 -92 -252 -92q-116 0 -167.5 67.5t-51.5 217.5v209q0 141 52.5 205.5t172.5 64.5q131 0 219 -35v27q0 132 -65.5 183.5t-229.5 51.5q-106 0 -165 -13 t-97.5 -55t-50.5 -109.5t-12 -188.5v-428q0 -75 12 -136.5t31 -104t48 -75t59 -51t67 -30t69 -15.5t68 -4q166 0 281 23v-209q-158 -31 -269 -31q-109 0 -195 16t-163.5 58t-128.5 109t-81 174t-30 249zM739 414q0 -55 18 -81t62 -26q82 0 133 45v275q-70 24 -116 24 q-55 0 -76 -24.5t-21 -89.5v-123z" />
<glyph unicode="A" horiz-adv-x="1263" d="M18 0l355 1454h542l332 -1454h-385l-57 281h-356l-64 -281h-367zM512 555h238q-68 319 -111 586q-54 -272 -127 -586z" />
<glyph unicode="B" horiz-adv-x="1294" d="M131 0v1454h680q375 0 375 -340v-72q0 -96 -17 -156.5t-44.5 -89.5t-77.5 -55q40 -17 67 -36t52.5 -53.5t38 -91t12.5 -134.5v-104q0 -322 -420 -322h-666zM496 309h233q62 0 86.5 31t24.5 123q0 80 -26 119t-85 39h-233v-312zM496 870h233q111 0 111 138q0 139 -111 139 h-233v-277z" />
<glyph unicode="C" horiz-adv-x="1153" d="M100 524v406q0 303 146 432t465 129q112 0 211.5 -18t140.5 -35v-348q-185 38 -367 38q-111 0 -165 -49.5t-54 -165.5v-374q0 -116 54 -165.5t165 -49.5q199 0 373 41v-351q-39 -16 -142 -33.5t-216 -17.5q-319 0 -465 129t-146 432z" />
<glyph unicode="D" horiz-adv-x="1312" d="M131 0v1454h553q127 0 221 -24.5t164.5 -79t106.5 -149t36 -228.5v-492q0 -133 -36 -227.5t-106.5 -149.5t-164.5 -79.5t-221 -24.5h-553zM506 322h178q59 0 89.5 14.5t46.5 59t16 130.5v404q0 86 -16 129.5t-46.5 58.5t-89.5 15h-178v-811z" />
<glyph unicode="E" d="M131 0v1454h967v-321h-592v-222h547v-303h-547v-282h604v-326h-979z" />
<glyph unicode="F" horiz-adv-x="1069" d="M131 0v1454h877v-321h-502v-256h483v-314h-483v-563h-375z" />
<glyph unicode="G" horiz-adv-x="1257" d="M100 524v406q0 300 155 430.5t476 130.5q115 0 226.5 -18.5t150.5 -34.5v-342q-189 39 -389 39q-246 0 -246 -215v-396q0 -116 54 -165.5t159 -49.5q68 0 109 8v480h354v-797q-121 -37 -471 -37q-296 0 -437 130t-141 431z" />
<glyph unicode="H" horiz-adv-x="1378" d="M131 0v1454h375v-563h364v563h377v-1454h-377v582h-364v-582h-375z" />
<glyph unicode="I" horiz-adv-x="655" d="M139 0v1454h375v-1454h-375z" />
<glyph unicode="J" horiz-adv-x="980" d="M18 14v351q135 -41 301 -41q93 0 135 48.5t42 166.5v915h376v-930q0 -305 -131 -433t-434 -128q-99 0 -175.5 16t-113.5 35z" />
<glyph unicode="K" horiz-adv-x="1294" d="M131 0v1454h369v-618l344 618h411l-391 -657l430 -797h-442l-352 717v-717h-369z" />
<glyph unicode="L" horiz-adv-x="989" d="M131 0v1454h375v-1128h446v-326h-821z" />
<glyph unicode="M" horiz-adv-x="1714" d="M127 0v1454h586l157 -893l158 893h559v-1454h-340q0 715 10 1092q-101 -526 -227 -1092h-346q-125 576 -225 1092q6 -156 6 -1092h-338z" />
<glyph unicode="N" horiz-adv-x="1402" d="M127 0v1454h446l203 -399q68 -140 156 -348q-10 225 -10 407v340h354v-1454h-330l-307 567q-77 142 -168 348q8 -172 8 -391v-524h-352z" />
<glyph unicode="O" horiz-adv-x="1400" d="M102 524v406q0 302 143.5 431.5t454.5 129.5t454.5 -129.5t143.5 -431.5v-406q0 -302 -143.5 -431.5t-454.5 -129.5t-454.5 129.5t-143.5 431.5zM475 535q0 -117 56.5 -168.5t168.5 -51.5q114 0 171 51.5t57 168.5v383q0 117 -57 168t-171 51q-113 0 -169 -51t-56 -168 v-383z" />
<glyph unicode="P" horiz-adv-x="1204" d="M131 0v1454h623q224 0 319.5 -107.5t95.5 -353.5q0 -248 -95.5 -355.5t-319.5 -107.5h-248v-530h-375zM506 825h186q63 0 91 37t28 127q0 88 -28 123t-91 35h-186v-322z" />
<glyph unicode="Q" horiz-adv-x="1398" d="M100 545v385q0 302 143.5 431.5t454.5 129.5t454.5 -129.5t143.5 -431.5v-385q0 -206 -67 -331t-205 -179l125 -297h-420l-102 250q-271 11 -399 142t-128 415zM477 553q0 -116 54 -165.5t167 -49.5q114 0 168 49t54 166v360q0 117 -54 166t-168 49q-113 0 -167 -49.5 t-54 -165.5v-360z" />
<glyph unicode="R" horiz-adv-x="1302" d="M131 0v1454h678q375 0 375 -340v-84q0 -96 -17.5 -156.5t-45 -89.5t-77.5 -55q40 -17 67 -36t52.5 -53.5t38 -91t12.5 -134.5v-414h-376v416q0 79 -27 118t-86 39h-229v-573h-365zM496 862h225q110 0 110 137q0 140 -110 140h-225v-277z" />
<glyph unicode="S" d="M86 942v74q0 89 15 158.5t40 119t66.5 85.5t86.5 57.5t108 34t123 16.5t139 4q206 0 362 -53v-338q-208 45 -381 45q-118 0 -160.5 -24t-42.5 -89q0 -53 17 -77t59 -35q2 0 254 -50q44 -9 72.5 -15.5t67 -19.5t62.5 -28.5t51 -41t42 -57t25 -76.5t10 -100v-120 q0 -83 -16 -148.5t-43.5 -112.5t-72 -81t-93.5 -54.5t-116.5 -32.5t-132.5 -16t-149 -4q-218 0 -366 51v338q205 -43 383 -43q142 0 197 24.5t55 94.5q0 67 -39.5 94t-143.5 39q-190 22 -315 80q-88 40 -126 114.5t-38 186.5z" />
<glyph unicode="T" horiz-adv-x="1097" d="M31 1133v321h1036v-321h-334v-1133h-375v1133h-327z" />
<glyph unicode="U" horiz-adv-x="1366" d="M109 494v960h380v-946q0 -109 43.5 -146.5t153.5 -37.5q109 0 154 38t45 146v946h370v-960q0 -149 -26.5 -246t-93 -163t-175.5 -94t-278 -28q-170 0 -279.5 28t-175.5 94t-92 163t-26 246z" />
<glyph unicode="V" horiz-adv-x="1220" d="M18 1454h408l70 -377q87 -464 106 -626q38 219 127 626l84 377h389l-371 -1454h-473z" />
<glyph unicode="W" horiz-adv-x="1746" d="M23 1454h389q91 -636 129 -983q57 386 172 983h331q114 -632 166 -983q55 402 156 983h358l-276 -1454h-440q-115 656 -140 874q-5 -29 -19.5 -124t-27 -172t-40 -234t-62.5 -344h-443z" />
<glyph unicode="X" horiz-adv-x="1259" d="M8 0l404 764l-353 690h406q117 -247 172 -397q73 169 186 397h408l-367 -682l387 -772h-401q-126 256 -211 465q-72 -166 -223 -465h-408z" />
<glyph unicode="Y" horiz-adv-x="1222" d="M4 1454h389l103 -252q62 -159 108 -295q54 151 123 293l121 254h371l-437 -915v-539h-374v539z" />
<glyph unicode="Z" horiz-adv-x="1116" d="M63 0v356l527 777h-504v321h975v-260l-565 -868h565v-326h-998z" />
<glyph unicode="[" horiz-adv-x="745" d="M182 -285v1860h539v-236h-229v-1390h229v-234h-539z" />
<glyph unicode="\" horiz-adv-x="669" d="M0 1454h291l379 -1673h-287z" />
<glyph unicode="]" horiz-adv-x="739" d="M25 -51h233v1390h-233v236h542v-1860h-542v234z" />
<glyph unicode="^" horiz-adv-x="753" d="M57 1036l232 418h170l235 -418h-250l-67 174l-74 -174h-246z" />
<glyph unicode="_" horiz-adv-x="813" d="M-2 -139h819v-146h-819v146z" />
<glyph unicode="`" horiz-adv-x="636" d="M72 1569h329l136 -381h-213z" />
<glyph unicode="a" d="M70 238v178q0 148 88.5 206t318.5 58q154 0 275 -23v41q0 74 -53 97.5t-193 23.5q-207 0 -332 -39v289q148 37 397 37q133 0 222 -16t157 -57t99.5 -115t31.5 -187v-731h-297l-10 100q-116 -137 -373 -137q-95 0 -160.5 19t-102 56.5t-52.5 86t-16 113.5zM406 334 q0 -62 25.5 -81.5t100.5 -19.5q132 0 220 66v154q-80 12 -179 12q-88 0 -127.5 -19t-39.5 -84v-28z" />
<glyph unicode="b" horiz-adv-x="1228" d="M127 76v1397h344v-467q119 100 338 100q173 0 250.5 -101t77.5 -323v-313q0 -110 -21 -182t-75 -124.5t-149 -76t-241 -23.5q-186 0 -305 30.5t-219 82.5zM471 293q84 -25 160 -25q93 0 127.5 36t34.5 132v185q0 81 -28 120t-93 39q-119 0 -201 -67v-420z" />
<glyph unicode="c" horiz-adv-x="964" d="M92 416v237q0 244 119 348.5t389 104.5q188 0 295 -41v-309q-102 37 -272 37q-107 0 -147 -35t-40 -127v-193q0 -92 40 -127t147 -35q174 0 276 37v-309q-120 -41 -299 -41q-270 0 -389 104.5t-119 348.5z" />
<glyph unicode="d" horiz-adv-x="1228" d="M92 387v313q0 212 78.5 309t259.5 97q189 0 328 -53v420h344v-1473h-295l-12 100q-58 -71 -157.5 -104t-217.5 -33q-173 0 -250.5 101t-77.5 323zM436 444q0 -81 28 -120t93 -39q119 0 201 67v410q-96 35 -180 35q-78 0 -110 -36.5t-32 -131.5v-185z" />
<glyph unicode="e" horiz-adv-x="1144" d="M92 416v237q0 127 23.5 210t81 139t151.5 80t238 24t234.5 -23.5t143.5 -80.5t73 -138.5t20 -210.5v-223h-633v-12q0 -85 58 -125.5t190 -40.5q80 0 198 12t158 25v-285q-37 -13 -161.5 -27t-213.5 -14q-302 0 -431.5 104t-129.5 349zM424 659h321v13q0 85 -35 122 t-124 37q-88 0 -125 -37.5t-37 -121.5v-13z" />
<glyph unicode="f" horiz-adv-x="686" d="M18 831v246h109v99q0 162 84 237.5t248 77.5q126 0 196 -23v-243q-41 10 -96 10q-51 0 -72.5 -19t-21.5 -69v-70h190v-246h-190v-831h-338v831h-109z" />
<glyph unicode="g" horiz-adv-x="1200" d="M92 469v231q0 110 20.5 182t73 124.5t145.5 76t236 23.5q183 0 298.5 -30t211.5 -83v-1030q0 -243 -132 -349t-408 -106q-99 0 -195.5 14t-134.5 29v308q103 -39 307 -39q112 0 165.5 37.5t53.5 126.5v161q-113 -102 -321 -102q-168 0 -244 102t-76 324zM442 500 q0 -81 25.5 -120.5t85.5 -39.5q106 0 180 68v383q-67 26 -143 26q-85 0 -116.5 -35.5t-31.5 -132.5v-149z" />
<glyph unicode="h" horiz-adv-x="1255" d="M127 0v1473h344v-451q141 84 352 84q158 0 236 -74.5t78 -226.5v-805h-344v694q0 101 -113 101q-126 0 -209 -54v-741h-344z" />
<glyph unicode="i" horiz-adv-x="606" d="M131 0v1077h344v-1077h-344zM131 1208v265h344v-265h-344z" />
<glyph unicode="j" horiz-adv-x="620" d="M-207 -139q118 -37 205 -37q158 0 158 164v1089h338v-1102q0 -115 -22.5 -199t-74.5 -145.5t-140.5 -92t-215.5 -30.5q-139 0 -248 50v303zM156 1208v265h338v-265h-338z" />
<glyph unicode="k" horiz-adv-x="1134" d="M127 0v1473h344v-850l244 454h393l-287 -489l314 -588h-414l-250 510v-510h-344z" />
<glyph unicode="l" horiz-adv-x="598" d="M127 0v1473h344v-1473h-344z" />
<glyph unicode="m" horiz-adv-x="1882" d="M123 0v1077h289l12 -100q61 68 152.5 98.5t228.5 30.5q199 0 270 -129q62 68 154 98.5t229 30.5q154 0 229.5 -74.5t75.5 -226.5v-805h-336v690q0 101 -112 101q-118 0 -205 -54v-737h-334v690q0 101 -112 101q-123 0 -203 -54v-737h-338z" />
<glyph unicode="n" horiz-adv-x="1251" d="M123 0v1077h295l12 -100q62 68 155.5 98.5t233.5 30.5q158 0 236 -74.5t78 -226.5v-805h-345v690q0 101 -112 101q-126 0 -209 -54v-737h-344z" />
<glyph unicode="o" horiz-adv-x="1193" d="M92 389v293q0 227 121.5 325.5t382.5 98.5q262 0 384 -98.5t122 -325.5v-293q0 -227 -122 -326.5t-384 -99.5q-261 0 -382.5 99.5t-121.5 326.5zM430 414q0 -148 166 -148q80 0 124 36.5t44 111.5v243q0 144 -168 144q-166 0 -166 -144v-243z" />
<glyph unicode="p" horiz-adv-x="1224" d="M123 -467v1544h295l12 -100q106 129 375 129q174 0 251 -97.5t77 -318.5v-313q0 -213 -79 -313.5t-259 -100.5q-161 0 -328 64v-494h-344zM467 311q96 -35 180 -35q78 0 109.5 36.5t31.5 131.5v185q0 81 -27.5 120t-92.5 39q-119 0 -201 -67v-410z" />
<glyph unicode="q" horiz-adv-x="1224" d="M92 387v313q0 110 21 182t75 124.5t149 76t241 23.5q187 0 307 -30.5t217 -82.5v-1460h-344v530q-119 -100 -338 -100q-173 0 -250.5 101t-77.5 323zM436 449q0 -81 28 -120.5t93 -39.5q119 0 201 67v420q-87 27 -160 27q-92 0 -127 -36.5t-35 -133.5v-184z" />
<glyph unicode="r" horiz-adv-x="823" d="M123 0v1077h305l10 -100q60 64 141 94t205 35v-324q-74 9 -100 9q-116 0 -217 -66v-725h-344z" />
<glyph unicode="s" horiz-adv-x="1089" d="M66 700v58q0 54 10.5 98.5t28 78t45.5 59.5t57 44t69.5 31t76 20t83 11t84.5 5t86 1q192 0 371 -45v-268q-226 38 -371 38q-39 0 -55.5 -0.5t-46 -2t-42.5 -6t-28.5 -12.5t-21.5 -21t-6 -31q0 -21 5 -34t18.5 -21t23.5 -11.5t34 -9.5q25 -5 57 -9.5t85 -10t86 -9.5 q30 -4 41.5 -6t44 -8t48.5 -11.5t45 -16.5t45 -23.5t37 -31t31.5 -40.5t18.5 -51.5t8 -63.5v-79q0 -71 -19.5 -127t-49.5 -93t-78 -64t-93.5 -41t-109 -22t-110.5 -10t-111 -2q-194 0 -373 45v281q224 -39 367 -39q134 0 182.5 15.5t48.5 66.5q0 36 -31 49t-98 18 q-98 8 -170 19q-44 8 -68.5 13t-64 16.5t-62 24t-50.5 34t-42.5 47.5t-25 63.5t-10.5 83.5z" />
<glyph unicode="t" horiz-adv-x="694" d="M18 831v246h117v264h338v-264h191v-246h-191v-499q0 -50 21.5 -70t72.5 -20q56 0 97 10v-266q-70 -23 -197 -23q-164 2 -248 78t-84 238v552h-117z" />
<glyph unicode="u" horiz-adv-x="1196" d="M100 332v745h342v-700q0 -58 33.5 -79.5t124.5 -21.5t124.5 22.5t33.5 78.5v700h338v-745q0 -192 -124.5 -280.5t-371.5 -88.5q-246 0 -373 88.5t-127 280.5z" />
<glyph unicode="v" d="M18 1077h377l68 -276q29 -120 70.5 -277t50.5 -207q9 43 25.5 101t52.5 177t61 206l80 276h360l-358 -1077h-457z" />
<glyph unicode="w" horiz-adv-x="1773" d="M23 1077h364q102 -525 135 -747q35 186 172 747h381q111 -464 164 -745q50 267 162 745h350l-274 -1077h-457q-107 454 -139 684q-35 -224 -148 -684h-459z" />
<glyph unicode="x" horiz-adv-x="1200" d="M12 0l400 557l-353 520h416q79 -134 137 -252q50 103 144 252h413l-358 -506l377 -571h-404q-105 168 -172 301q-65 -117 -184 -301h-416z" />
<glyph unicode="y" horiz-adv-x="1230" d="M18 1077h394q143 -485 190 -692q57 206 236 692h376l-565 -1544h-377l152 418z" />
<glyph unicode="z" horiz-adv-x="1077" d="M63 0v295l496 508h-461v274h910v-241l-504 -551h520v-285h-961z" />
<glyph unicode="{" horiz-adv-x="778" d="M82 532v230q103 0 142.5 51t39.5 180q0 19 -5 115t-5 123q0 95 15 155.5t56 106t117 65t197 19.5h92v-219h-49q-73 0 -102 -18t-29 -70q0 -74 6 -204t6 -200q0 -86 -78.5 -146t-183.5 -73q103 -9 182.5 -72t79.5 -147q0 -72 -6 -202.5t-6 -200.5q0 -56 28.5 -74.5 t102.5 -18.5h49v-219h-92q-121 0 -197 19.5t-117 65t-56 106t-15 155.5q0 28 5 127t5 119q0 127 -39.5 177t-142.5 50z" />
<glyph unicode="|" horiz-adv-x="598" d="M162 -274v1888h274v-1888h-274z" />
<glyph unicode="}" horiz-adv-x="782" d="M45 -68h49q74 0 103.5 18.5t29.5 74.5q0 70 -6 200.5t-6 202.5q0 83 79 146.5t181 72.5q-105 13 -182.5 73t-77.5 146q0 70 6 200t6 204q0 52 -29.5 70t-103.5 18h-49v219h90q98 0 166.5 -13.5t112 -39t68 -69.5t33.5 -96t9 -128q0 -27 -6 -123t-6 -115q0 -128 40 -179.5 t144 -51.5v-230q-104 0 -144 -50t-40 -177q0 -20 6 -119t6 -127q0 -76 -9 -128t-33.5 -96t-68 -69.5t-112 -39t-166.5 -13.5h-90v219z" />
<glyph unicode="~" horiz-adv-x="1308" d="M92 453v270q119 147 295 147q73 0 151.5 -18.5t133.5 -40.5t118 -40.5t109 -18.5q97 0 173.5 38.5t141.5 127.5v-267q-70 -78 -148.5 -112.5t-184.5 -34.5q-60 0 -130 18.5t-123 41t-116.5 41t-112.5 18.5q-91 0 -163.5 -40.5t-143.5 -129.5z" />
<glyph unicode="&#xa1;" horiz-adv-x="595" d="M100 119q0 216 25 416t82 485h182q57 -285 82 -485t25 -416q0 -81 -17 -119h-366q-13 54 -13 119zM121 1135v319h358v-319h-358z" />
<glyph unicode="&#xa2;" horiz-adv-x="964" d="M92 614v236q0 209 85 313.5t274 130.5v160h274v-158q106 -11 170 -34v-310q-107 39 -272 39q-107 0 -147 -35.5t-40 -128.5v-192q0 -92 40 -127t147 -35q163 0 276 37v-309q-57 -21 -174 -35v-166h-274v168q-189 25 -274 130t-85 316z" />
<glyph unicode="&#xa3;" horiz-adv-x="1130" d="M68 0v276q35 -6 86 -6q56 0 92 17.5t52 52t21 67.5t5 82q0 29 -2 43h-250v209h153q-32 41 -50 68t-40 69t-32.5 88t-10.5 99q0 103 32 180.5t83 123.5t126 74t148.5 38t163.5 10q175 0 352 -57v-340q-215 57 -352 57q-203 0 -203 -162q0 -41 15.5 -76.5t53 -91 t52.5 -80.5h412v-209h-348q4 -40 4 -59q0 -105 -39 -182q89 -47 244 -47q157 0 235 73v-278q-96 -76 -270 -76q-87 0 -173.5 27.5t-154.5 77.5q-54 -57 -111 -81t-137 -24q-94 0 -157 37z" />
<glyph unicode="&#xa4;" horiz-adv-x="1275" d="M82 373l149 137q-63 114 -63 240q0 125 63 239l-147 135l178 181l135 -148q113 66 242 66q126 0 242 -66l133 148l178 -181l-145 -133q67 -115 67 -241q0 -133 -67 -242l147 -135l-178 -183l-137 152q-111 -63 -240 -63q-127 0 -238 63l-139 -152zM328 750 q0 -130 91 -221t220 -91q132 0 222.5 90.5t90.5 221.5q0 132 -90.5 222.5t-222.5 90.5q-129 0 -220 -90.5t-91 -222.5z" />
<glyph unicode="&#xa5;" horiz-adv-x="1234" d="M10 1454h389l103 -252q53 -136 110 -295q52 147 121 293l121 254h371l-381 -797h178v-198h-234v-94h234v-205h-234v-160h-374v160h-238v205h238v94h-238v198h186z" />
<glyph unicode="&#xa6;" horiz-adv-x="868" d="M295 -274v815h274v-815h-274zM295 870v744h274v-744h-274z" />
<glyph unicode="&#xa7;" horiz-adv-x="1028" d="M94 553v59q0 99 32.5 149t92.5 75q-55 38 -77.5 82t-22.5 124v62q0 72 12 129t32.5 97.5t54.5 69.5t70.5 46.5t88 27.5t100.5 13.5t113 3.5q167 0 295 -45v-275q-164 37 -312 37q-96 0 -129.5 -19.5t-33.5 -72.5q0 -38 13.5 -57.5t45.5 -26.5q53 -12 209 -39 q49 -10 82 -19.5t71.5 -30t61 -48.5t38 -75.5t15.5 -110.5v-97q0 -157 -100 -215q40 -29 60 -67t20 -113v-98q0 -68 -13 -122t-36 -92.5t-59.5 -66t-76.5 -44t-95.5 -26t-108 -13t-121.5 -3.5q-179 0 -299 43v275q191 -35 309 -35q114 0 158.5 19.5t44.5 76.5q0 54 -30 72 t-118 28q-169 24 -254 68q-133 58 -133 254zM365 625q0 -67 33.5 -91t123.5 -24q87 0 120.5 28t33.5 87q0 57 -33 81.5t-121 24.5q-87 0 -122 -24.5t-35 -81.5z" />
<glyph unicode="&#xa8;" horiz-adv-x="1064" d="M131 1208v265h344v-265h-344zM621 1208v265h344v-265h-344z" />
<glyph unicode="&#xaa;" horiz-adv-x="772" d="M100 848v98q0 80 49.5 113t174.5 33q75 0 151 -13v23q0 40 -29 52.5t-106 12.5q-111 0 -182 -20v158q72 20 217 20q147 0 213.5 -43.5t66.5 -163.5v-401h-161l-7 55q-63 -76 -204 -76q-101 0 -142 39t-41 113zM285 901q0 -34 14 -44.5t55 -10.5q72 0 121 35v86 q-44 6 -98 6q-48 0 -70 -11t-22 -47v-14z" />
<glyph unicode="&#xab;" horiz-adv-x="917" d="M49 557v266l361 281v-258l-211 -156l211 -155v-259zM508 557v266l360 281v-258l-211 -156l211 -155v-259z" />
<glyph unicode="&#xac;" horiz-adv-x="1359" d="M66 760v317h1196v-1077h-318v760h-878z" />
<glyph unicode="&#xad;" horiz-adv-x="661" d="M53 539v270h555v-270h-555z" />
<glyph unicode="&#xaf;" horiz-adv-x="915" d="M96 1182v229h719v-229h-719z" />
<glyph unicode="&#xb0;" horiz-adv-x="819" d="M76 1126q0 75 19 136.5t57.5 109.5t103.5 74.5t152 26.5t152 -26.5t104 -74.5t58 -109.5t19 -136.5q0 -156 -82 -252t-251 -96t-250.5 96t-81.5 252zM248 1128q0 -85 38.5 -138.5t121.5 -53.5q82 0 120.5 53.5t38.5 138.5q0 86 -38.5 139.5t-120.5 53.5t-121 -54 t-39 -139z" />
<glyph unicode="&#xb1;" horiz-adv-x="1243" d="M92 121h1057v-252h-1057v252zM92 627v252h402v401h251v-401h404v-252h-404v-406h-251v406h-402z" />
<glyph unicode="&#xb2;" horiz-adv-x="667" d="M84 748v213q0 71 33.5 115t81 62t95 30.5t81 34.5t33.5 61q0 38 -21.5 49.5t-77.5 11.5q-69 0 -196 -27v164q88 31 213 31q44 0 79 -4.5t71 -18t60 -36.5t39 -62t15 -92v-43q0 -53 -23.5 -90t-59 -53t-76.5 -29.5t-76.5 -22t-59 -28t-23.5 -49.5v-56h306v-161h-494z" />
<glyph unicode="&#xb3;" horiz-adv-x="653" d="M70 754v166q116 -21 204 -21q65 0 92 16.5t27 63.5q0 37 -19 51t-69 14h-135v140h137q43 0 64.5 15t21.5 54q0 43 -24 57.5t-90 14.5q-103 0 -195 -27v166q98 29 199 29q46 0 81.5 -4t74.5 -16.5t65 -34t42.5 -60t16.5 -90.5q0 -137 -96 -162q113 -34 113 -172 q0 -59 -17 -101.5t-42.5 -66t-67.5 -37t-79.5 -17t-90.5 -3.5q-107 0 -213 25z" />
<glyph unicode="&#xb4;" horiz-adv-x="636" d="M72 1188l137 381h328l-252 -381h-213z" />
<glyph unicode="&#xb5;" horiz-adv-x="1220" d="M131 -467v1544h344v-766q96 -35 180 -35q77 0 105 35.5t28 132.5v633h338v-700q0 -216 -72 -315t-249 -99q-163 0 -330 64v-494h-344z" />
<glyph unicode="&#xb6;" horiz-adv-x="1210" d="M90 1161q0 147 69 220t197 73h820v-244h-101v-1550h-256v1550h-260v-1550h-260v1196q-103 16 -156 88t-53 217z" />
<glyph unicode="&#xb7;" horiz-adv-x="628" d="M129 532v332h371v-332h-371z" />
<glyph unicode="&#xb8;" horiz-adv-x="544" d="M117 -492l2 418h325v-61q0 -164 -87.5 -256.5t-239.5 -100.5z" />
<glyph unicode="&#xb9;" horiz-adv-x="419" d="M63 1300v175h254v-727h-188v552h-66z" />
<glyph unicode="&#xba;" horiz-adv-x="780" d="M113 932v160q0 125 66 179t210 54t211.5 -54t67.5 -179v-160q0 -125 -67.5 -180.5t-211.5 -55.5q-143 0 -209.5 55t-66.5 181zM299 944q0 -82 90 -82q44 0 68 21t24 61v135q0 78 -92 78q-90 0 -90 -78v-135z" />
<glyph unicode="&#xbb;" horiz-adv-x="917" d="M49 276v259l209 155l-209 156v258l361 -281v-266zM508 276v259l209 155l-209 156v258l360 -281v-266z" />
<glyph unicode="&#xbc;" horiz-adv-x="1394" d="M102 -43l846 1542h203l-850 -1542h-199zM121 1300v175h254v-727h-189v552h-65zM733 104v162l182 441h181l-183 -455h160v250h166v-250h53v-148h-53v-124h-170v124h-336z" />
<glyph unicode="&#xbd;" horiz-adv-x="1406" d="M102 -43l846 1542h203l-850 -1542h-199zM121 1300v175h254v-727h-189v552h-65zM799 -20v213q0 71 33.5 115t81 62t94.5 30.5t80.5 34.5t33.5 61q0 38 -21 49.5t-77 11.5q-70 0 -197 -27v164q88 31 213 31q44 0 79 -4.5t71 -18t60.5 -36.5t39.5 -62t15 -92v-43 q0 -53 -23.5 -90t-59 -53t-76.5 -29.5t-76.5 -22t-59 -28t-23.5 -49.5v-56h305v-161h-493z" />
<glyph unicode="&#xbe;" horiz-adv-x="1460" d="M102 754v166q115 -21 205 -21q65 0 92 16.5t27 63.5q0 37 -19 51t-69 14h-135v140h137q43 0 64.5 15t21.5 54q0 43 -24.5 57.5t-90.5 14.5q-103 0 -194 -27v166q98 29 198 29q46 0 82 -4t75 -16.5t64.5 -34t42.5 -60t17 -90.5q0 -137 -96 -162q112 -33 112 -172 q0 -59 -17 -101.5t-42.5 -66t-67.5 -37t-79.5 -17t-90.5 -3.5q-107 0 -213 25zM209 -43l846 1542h202l-849 -1542h-199zM799 104v162l182 441h180l-182 -455h160v250h166v-250h53v-148h-53v-124h-170v124h-336z" />
<glyph unicode="&#xbf;" horiz-adv-x="882" d="M53 330v141q0 63 16.5 111t43 76.5t58 50.5t63.5 40t58.5 38t43 51.5t16.5 74.5v82h307v-125q0 -83 -27 -140.5t-65 -86.5t-76 -52t-65 -56t-27 -80v-52q0 -41 16 -68t45.5 -39t58 -16t67.5 -4q162 0 270 39v-309q-128 -43 -289 -43q-514 0 -514 367zM328 1135v319h362 v-319h-362z" />
<glyph unicode="&#xc0;" horiz-adv-x="1263" d="M18 0l355 1454h542l332 -1454h-385l-57 281h-356l-64 -281h-367zM338 1946h330l135 -381h-213zM512 555h238q-68 319 -111 586q-54 -272 -127 -586z" />
<glyph unicode="&#xc1;" horiz-adv-x="1263" d="M18 0l355 1454h542l332 -1454h-385l-57 281h-356l-64 -281h-367zM461 1565l137 381h328l-252 -381h-213zM512 555h238q-68 319 -111 586q-54 -272 -127 -586z" />
<glyph unicode="&#xc2;" horiz-adv-x="1263" d="M18 0l355 1454h542l332 -1454h-385l-57 281h-356l-64 -281h-367zM223 1563l281 360h266l281 -360h-258l-156 211l-156 -211h-258zM512 555h238q-68 319 -111 586q-54 -272 -127 -586z" />
<glyph unicode="&#xc3;" horiz-adv-x="1263" d="M18 0l355 1454h542l332 -1454h-385l-57 281h-356l-64 -281h-367zM264 1528v217q82 94 191 94q76 0 176 -45q116 -53 172 -53q58 0 104 25t92 81v-217q-79 -94 -190 -94q-64 0 -178 43q-2 1 -19 9t-20.5 9.5t-18 8t-20 8t-18 6t-19.5 6t-17.5 4t-19.5 3.5t-18 1 q-60 0 -106.5 -25t-90.5 -81zM512 555h238q-68 319 -111 586q-54 -272 -127 -586z" />
<glyph unicode="&#xc4;" horiz-adv-x="1263" d="M18 0l355 1454h542l332 -1454h-385l-57 281h-356l-64 -281h-367zM219 1585v264h344v-264h-344zM512 555h238q-68 319 -111 586q-54 -272 -127 -586zM709 1585v264h344v-264h-344z" />
<glyph unicode="&#xc5;" horiz-adv-x="1263" d="M18 0l355 1454h542l332 -1454h-385l-57 281h-356l-64 -281h-367zM403 1735q0 103 58.5 157t175.5 54q121 0 176 -53.5t55 -157.5q0 -106 -54.5 -157.5t-176.5 -51.5q-234 0 -234 209zM512 555h238q-68 319 -111 586q-54 -272 -127 -586zM541 1735q0 -93 96 -93 q102 0 102 93q0 100 -102 100q-96 0 -96 -100z" />
<glyph unicode="&#xc6;" horiz-adv-x="1798" d="M18 0l355 1454h1343v-321h-569v-222h522v-303h-522v-282h582v-326h-957v281h-323l-64 -281h-367zM512 555h260v578h-135z" />
<glyph unicode="&#xc7;" horiz-adv-x="1153" d="M100 524v406q0 303 146 432t465 129q112 0 211.5 -18t140.5 -35v-348q-185 38 -367 38q-111 0 -165 -49.5t-54 -165.5v-374q0 -116 54 -165.5t165 -49.5q199 0 373 41v-351q-39 -16 -142 -33.5t-216 -17.5q-319 0 -465 129t-146 432zM494 -492l2 418h325v-61 q0 -164 -87.5 -256.5t-239.5 -100.5z" />
<glyph unicode="&#xc8;" d="M131 0v1454h967v-321h-592v-222h547v-303h-547v-282h604v-326h-979zM297 1946h330l135 -381h-213z" />
<glyph unicode="&#xc9;" d="M131 0v1454h967v-321h-592v-222h547v-303h-547v-282h604v-326h-979zM440 1565l138 381h327l-252 -381h-213z" />
<glyph unicode="&#xca;" d="M131 0v1454h967v-321h-592v-222h547v-303h-547v-282h604v-326h-979zM207 1563l280 360h267l280 -360h-258l-155 211l-156 -211h-258z" />
<glyph unicode="&#xcb;" d="M131 0v1454h967v-321h-592v-222h547v-303h-547v-282h604v-326h-979zM188 1585v264h344v-264h-344zM678 1585v264h344v-264h-344z" />
<glyph unicode="&#xcc;" horiz-adv-x="655" d="M35 1946h330l135 -381h-213zM139 0v1454h375v-1454h-375z" />
<glyph unicode="&#xcd;" horiz-adv-x="655" d="M139 0v1454h375v-1454h-375zM156 1565l137 381h328l-252 -381h-213z" />
<glyph unicode="&#xce;" horiz-adv-x="681" d="M-72 1563l281 360h266l281 -360h-258l-156 211l-156 -211h-258zM154 0v1454h374v-1454h-374z" />
<glyph unicode="&#xcf;" horiz-adv-x="675" d="M-78 1585v264h344v-264h-344zM150 0v1454h374v-1454h-374zM412 1585v264h344v-264h-344z" />
<glyph unicode="&#xd0;" horiz-adv-x="1312" d="M25 608v303h106v543h553q127 0 221 -24.5t164.5 -79t106.5 -149t36 -228.5v-492q0 -133 -36 -227.5t-106.5 -149.5t-164.5 -79.5t-221 -24.5h-553v608h-106zM506 322h178q59 0 89.5 14.5t46.5 59t16 130.5v404q0 86 -16 129.5t-46.5 58.5t-89.5 15h-178v-222h207v-303 h-207v-286z" />
<glyph unicode="&#xd1;" horiz-adv-x="1402" d="M127 0v1454h446l203 -399q68 -140 156 -348q-10 225 -10 407v340h354v-1454h-330l-307 567q-77 142 -168 348q8 -172 8 -391v-524h-352zM334 1528v217q82 94 190 94q76 0 176 -45q116 -53 172 -53q58 0 104.5 25t92.5 81v-217q-79 -94 -190 -94q-65 0 -179 43q-2 1 -19 9 t-20.5 9.5t-18 8t-20 8t-18 6t-19.5 6t-17.5 4t-19.5 3.5t-18 1q-60 0 -105.5 -25t-90.5 -81z" />
<glyph unicode="&#xd2;" horiz-adv-x="1400" d="M102 524v406q0 302 143.5 431.5t454.5 129.5t454.5 -129.5t143.5 -431.5v-406q0 -302 -143.5 -431.5t-454.5 -129.5t-454.5 129.5t-143.5 431.5zM406 1946h329l135 -381h-213zM475 535q0 -117 56.5 -168.5t168.5 -51.5q114 0 171 51.5t57 168.5v383q0 117 -57 168 t-171 51q-113 0 -169 -51t-56 -168v-383z" />
<glyph unicode="&#xd3;" horiz-adv-x="1400" d="M102 524v406q0 302 143.5 431.5t454.5 129.5t454.5 -129.5t143.5 -431.5v-406q0 -302 -143.5 -431.5t-454.5 -129.5t-454.5 129.5t-143.5 431.5zM475 535q0 -117 56.5 -168.5t168.5 -51.5q114 0 171 51.5t57 168.5v383q0 117 -57 168t-171 51q-113 0 -169 -51t-56 -168 v-383zM528 1565l138 381h327l-252 -381h-213z" />
<glyph unicode="&#xd4;" horiz-adv-x="1400" d="M102 524v406q0 302 143.5 431.5t454.5 129.5t454.5 -129.5t143.5 -431.5v-406q0 -302 -143.5 -431.5t-454.5 -129.5t-454.5 129.5t-143.5 431.5zM287 1563l280 360h267l280 -360h-258l-156 211l-155 -211h-258zM475 535q0 -117 56.5 -168.5t168.5 -51.5q114 0 171 51.5 t57 168.5v383q0 117 -57 168t-171 51q-113 0 -169 -51t-56 -168v-383z" />
<glyph unicode="&#xd5;" horiz-adv-x="1400" d="M102 524v406q0 302 143.5 431.5t454.5 129.5t454.5 -129.5t143.5 -431.5v-406q0 -302 -143.5 -431.5t-454.5 -129.5t-454.5 129.5t-143.5 431.5zM332 1528v217q82 94 190 94q76 0 176 -45q116 -53 172 -53q58 0 104.5 25t92.5 81v-217q-79 -94 -190 -94q-65 0 -179 43 q-2 1 -19 9t-20.5 9.5t-18 8t-20 8t-18 6t-19.5 6t-17.5 4t-19.5 3.5t-18 1q-60 0 -105.5 -25t-90.5 -81zM475 535q0 -117 56.5 -168.5t168.5 -51.5q114 0 171 51.5t57 168.5v383q0 117 -57 168t-171 51q-113 0 -169 -51t-56 -168v-383z" />
<glyph unicode="&#xd6;" horiz-adv-x="1400" d="M102 524v406q0 302 143.5 431.5t454.5 129.5t454.5 -129.5t143.5 -431.5v-406q0 -302 -143.5 -431.5t-454.5 -129.5t-454.5 129.5t-143.5 431.5zM283 1585v264h344v-264h-344zM475 535q0 -117 56.5 -168.5t168.5 -51.5q114 0 171 51.5t57 168.5v383q0 117 -57 168 t-171 51q-113 0 -169 -51t-56 -168v-383zM772 1585v264h344v-264h-344z" />
<glyph unicode="&#xd7;" horiz-adv-x="1318" d="M195 467l282 285l-282 282l178 178l284 -282l285 284l178 -178l-284 -284l286 -287l-180 -178l-285 284l-284 -282z" />
<glyph unicode="&#xd8;" horiz-adv-x="1398" d="M100 -154l131 256q-131 134 -131 422v406q0 302 143.5 431.5t454.5 129.5q122 0 234 -23l72 140h292l-133 -258q133 -133 133 -420v-406q0 -302 -143.5 -431.5t-454.5 -129.5q-140 0 -237 25l-74 -142h-287zM457 500l334 653q-45 10 -93 10q-122 0 -181.5 -54.5 t-59.5 -178.5v-430zM600 301q35 -12 98 -12q123 0 183.5 55t60.5 180v439z" />
<glyph unicode="&#xd9;" horiz-adv-x="1366" d="M109 494v960h380v-946q0 -109 43.5 -146.5t153.5 -37.5q109 0 154 38t45 146v946h370v-960q0 -149 -26.5 -246t-93 -163t-175.5 -94t-278 -28q-170 0 -279.5 28t-175.5 94t-92 163t-26 246zM389 1946h330l135 -381h-213z" />
<glyph unicode="&#xda;" horiz-adv-x="1366" d="M109 494v960h380v-946q0 -109 43.5 -146.5t153.5 -37.5q109 0 154 38t45 146v946h370v-960q0 -149 -26.5 -246t-93 -163t-175.5 -94t-278 -28q-170 0 -279.5 28t-175.5 94t-92 163t-26 246zM512 1565l137 381h328l-252 -381h-213z" />
<glyph unicode="&#xdb;" horiz-adv-x="1366" d="M109 494v960h380v-946q0 -109 43.5 -146.5t153.5 -37.5q109 0 154 38t45 146v946h370v-960q0 -149 -26.5 -246t-93 -163t-175.5 -94t-278 -28q-170 0 -279.5 28t-175.5 94t-92 163t-26 246zM268 1563l281 360h266l281 -360h-258l-156 211l-156 -211h-258z" />
<glyph unicode="&#xdc;" horiz-adv-x="1366" d="M109 494v960h380v-946q0 -109 43.5 -146.5t153.5 -37.5q109 0 154 38t45 146v946h370v-960q0 -149 -26.5 -246t-93 -163t-175.5 -94t-278 -28q-170 0 -279.5 28t-175.5 94t-92 163t-26 246zM266 1585v264h344v-264h-344zM756 1585v264h344v-264h-344z" />
<glyph unicode="&#xdd;" horiz-adv-x="1222" d="M4 1454h389l103 -252q62 -159 108 -295q54 151 123 293l121 254h371l-437 -915v-539h-374v539zM438 1565l137 381h328l-252 -381h-213z" />
<glyph unicode="&#xde;" horiz-adv-x="1204" d="M131 0v1454h375v-260h248q224 0 319.5 -107.5t95.5 -355.5q0 -250 -97 -370.5t-318 -120.5h-248v-240h-375zM506 565h186q63 0 91 36t28 126t-27.5 124t-91.5 34h-186v-320z" />
<glyph unicode="&#xdf;" horiz-adv-x="1478" d="M127 0v1149q0 342 424 342q73 0 135 -11t116.5 -36t92.5 -64t60 -97.5t22 -133.5v-315q0 -39 26 -65.5t70 -43t91.5 -30.5t101 -37t88.5 -54q44 -37 58.5 -95t14.5 -163q0 -213 -105.5 -298t-354.5 -85q-106 0 -177 7.5t-133 35.5v281q102 -39 244 -39q108 0 154.5 23 t46.5 81q0 25 -8 44t-18 30.5t-30 21t-33 13t-40 9.5t-37 9q-79 23 -129 46.5t-92.5 63.5t-62 100t-19.5 145v305q0 26 -5.5 42t-18 22.5t-24 8.5t-32.5 2t-33 -2t-25 -8.5t-18.5 -22.5t-5.5 -42v-1139h-344z" />
<glyph unicode="&#xe0;" d="M70 238v178q0 148 88.5 206t318.5 58q154 0 275 -23v41q0 74 -53 97.5t-193 23.5q-207 0 -332 -39v289q148 37 397 37q133 0 222 -16t157 -57t99.5 -115t31.5 -187v-731h-297l-10 100q-116 -137 -373 -137q-95 0 -160.5 19t-102 56.5t-52.5 86t-16 113.5zM297 1569h330 l135 -381h-213zM406 334q0 -62 25.5 -81.5t100.5 -19.5q132 0 220 66v154q-80 12 -179 12q-88 0 -127.5 -19t-39.5 -84v-28z" />
<glyph unicode="&#xe1;" d="M70 238v178q0 148 88.5 206t318.5 58q154 0 275 -23v41q0 74 -53 97.5t-193 23.5q-207 0 -332 -39v289q148 37 397 37q133 0 222 -16t157 -57t99.5 -115t31.5 -187v-731h-297l-10 100q-116 -137 -373 -137q-95 0 -160.5 19t-102 56.5t-52.5 86t-16 113.5zM406 334 q0 -62 25.5 -81.5t100.5 -19.5q132 0 220 66v154q-80 12 -179 12q-88 0 -127.5 -19t-39.5 -84v-28zM432 1188l137 381h328l-252 -381h-213z" />
<glyph unicode="&#xe2;" d="M70 238v178q0 148 88.5 206t318.5 58q154 0 275 -23v41q0 74 -53 97.5t-193 23.5q-207 0 -332 -39v289q148 37 397 37q133 0 222 -16t157 -57t99.5 -115t31.5 -187v-731h-297l-10 100q-116 -137 -373 -137q-95 0 -160.5 19t-102 56.5t-52.5 86t-16 113.5zM197 1186 l280 360h266l281 -360h-258l-156 211l-155 -211h-258zM406 334q0 -62 25.5 -81.5t100.5 -19.5q132 0 220 66v154q-80 12 -179 12q-88 0 -127.5 -19t-39.5 -84v-28z" />
<glyph unicode="&#xe3;" d="M70 238v178q0 148 88.5 206t318.5 58q154 0 275 -23v41q0 74 -53 97.5t-193 23.5q-207 0 -332 -39v289q148 37 397 37q133 0 222 -16t157 -57t99.5 -115t31.5 -187v-731h-297l-10 100q-116 -137 -373 -137q-95 0 -160.5 19t-102 56.5t-52.5 86t-16 113.5zM244 1151v217 q82 94 190 94q76 0 176 -45q116 -53 172 -53q58 0 104.5 25t92.5 81v-217q-79 -94 -191 -94q-64 0 -178 43q-2 1 -19 9t-20.5 9.5t-18 8t-20 8t-18 6t-19.5 6t-17.5 4t-19.5 3.5t-18 1q-60 0 -105.5 -25t-90.5 -81zM406 334q0 -62 25.5 -81.5t100.5 -19.5q132 0 220 66v154 q-80 12 -179 12q-88 0 -127.5 -19t-39.5 -84v-28z" />
<glyph unicode="&#xe4;" d="M70 238v178q0 148 88.5 206t318.5 58q154 0 275 -23v41q0 74 -53 97.5t-193 23.5q-207 0 -332 -39v289q148 37 397 37q133 0 222 -16t157 -57t99.5 -115t31.5 -187v-731h-297l-10 100q-116 -137 -373 -137q-95 0 -160.5 19t-102 56.5t-52.5 86t-16 113.5zM174 1208v265 h344v-265h-344zM406 334q0 -62 25.5 -81.5t100.5 -19.5q132 0 220 66v154q-80 12 -179 12q-88 0 -127.5 -19t-39.5 -84v-28zM664 1208v265h344v-265h-344z" />
<glyph unicode="&#xe5;" d="M70 238v178q0 148 88.5 206t318.5 58q154 0 275 -23v41q0 74 -53 97.5t-193 23.5q-207 0 -332 -39v289q148 37 397 37q133 0 222 -16t157 -57t99.5 -115t31.5 -187v-731h-297l-10 100q-116 -137 -373 -137q-95 0 -160.5 19t-102 56.5t-52.5 86t-16 113.5zM379 1358 q0 211 233 211q121 0 176.5 -53.5t55.5 -157.5q0 -106 -55 -157.5t-177 -51.5q-233 0 -233 209zM406 334q0 -62 25.5 -81.5t100.5 -19.5q132 0 220 66v154q-80 12 -179 12q-88 0 -127.5 -19t-39.5 -84v-28zM516 1358q0 -92 96 -92q103 0 103 92q0 100 -103 100 q-96 0 -96 -100z" />
<glyph unicode="&#xe6;" horiz-adv-x="1806" d="M70 238v178q0 148 88.5 206t318.5 58q154 0 275 -23v41q0 74 -53 97.5t-193 23.5q-207 0 -332 -39v289q148 37 397 37q102 0 179 -15t159 -59q99 74 338 74q144 0 234.5 -23.5t143.5 -80.5t73 -138.5t20 -210.5v-223h-633v-12q0 -85 58 -123.5t192 -38.5q79 0 197 12 t158 25v-289q-37 -13 -161.5 -27t-213.5 -14q-200 0 -310 42.5t-159 141.5q-167 -184 -445 -184q-95 0 -160.5 19t-102 56.5t-52.5 86t-16 113.5zM406 334q0 -62 25.5 -81.5t100.5 -19.5q132 0 220 66v154q-80 12 -179 12q-88 0 -127.5 -19t-39.5 -84v-28zM1085 659h322v13 q0 85 -35.5 122t-124.5 37q-88 0 -125 -37.5t-37 -121.5v-13z" />
<glyph unicode="&#xe7;" horiz-adv-x="964" d="M92 416v237q0 244 119 348.5t389 104.5q188 0 295 -41v-309q-102 37 -272 37q-107 0 -147 -35t-40 -127v-193q0 -92 40 -127t147 -35q174 0 276 37v-309q-120 -41 -299 -41q-270 0 -389 104.5t-119 348.5zM379 -492l2 418h326v-61q0 -164 -88 -256.5t-240 -100.5z" />
<glyph unicode="&#xe8;" horiz-adv-x="1144" d="M92 416v237q0 127 23.5 210t81 139t151.5 80t238 24t234.5 -23.5t143.5 -80.5t73 -138.5t20 -210.5v-223h-633v-12q0 -85 58 -125.5t190 -40.5q80 0 198 12t158 25v-285q-37 -13 -161.5 -27t-213.5 -14q-302 0 -431.5 104t-129.5 349zM279 1569h329l135 -381h-213z M424 659h321v13q0 85 -35 122t-124 37q-88 0 -125 -37.5t-37 -121.5v-13z" />
<glyph unicode="&#xe9;" horiz-adv-x="1144" d="M92 416v237q0 127 23.5 210t81 139t151.5 80t238 24t234.5 -23.5t143.5 -80.5t73 -138.5t20 -210.5v-223h-633v-12q0 -85 58 -125.5t190 -40.5q80 0 198 12t158 25v-285q-37 -13 -161.5 -27t-213.5 -14q-302 0 -431.5 104t-129.5 349zM401 1188l138 381h327l-252 -381 h-213zM424 659h321v13q0 85 -35 122t-124 37q-88 0 -125 -37.5t-37 -121.5v-13z" />
<glyph unicode="&#xea;" horiz-adv-x="1144" d="M92 416v237q0 127 23.5 210t81 139t151.5 80t238 24t234.5 -23.5t143.5 -80.5t73 -138.5t20 -210.5v-223h-633v-12q0 -85 58 -125.5t190 -40.5q80 0 198 12t158 25v-285q-37 -13 -161.5 -27t-213.5 -14q-302 0 -431.5 104t-129.5 349zM174 1186l281 360h266l280 -360 h-258l-155 211l-156 -211h-258zM424 659h321v13q0 85 -35 122t-124 37q-88 0 -125 -37.5t-37 -121.5v-13z" />
<glyph unicode="&#xeb;" horiz-adv-x="1144" d="M92 416v237q0 127 23.5 210t81 139t151.5 80t238 24t234.5 -23.5t143.5 -80.5t73 -138.5t20 -210.5v-223h-633v-12q0 -85 58 -125.5t190 -40.5q80 0 198 12t158 25v-285q-37 -13 -161.5 -27t-213.5 -14q-302 0 -431.5 104t-129.5 349zM156 1208v265h344v-265h-344z M424 659h321v13q0 85 -35 122t-124 37q-88 0 -125 -37.5t-37 -121.5v-13zM645 1208v265h344v-265h-344z" />
<glyph unicode="&#xec;" horiz-adv-x="606" d="M10 1569h330l135 -381h-213zM131 0v1077h344v-1077h-344z" />
<glyph unicode="&#xed;" horiz-adv-x="606" d="M131 0v1077h344v-1077h-344zM131 1188l137 381h328l-252 -381h-213z" />
<glyph unicode="&#xee;" horiz-adv-x="768" d="M-27 1186l281 360h266l281 -360h-258l-156 211l-156 -211h-258zM215 0v1077h344v-1077h-344z" />
<glyph unicode="&#xef;" horiz-adv-x="786" d="M-23 1208v265h345v-265h-345zM221 0v1077h344v-1077h-344zM467 1208v265h344v-265h-344z" />
<glyph unicode="&#xf0;" horiz-adv-x="1187" d="M92 389v205q0 91 20 155t54 103.5t91.5 62t121 30t153.5 7.5q134 0 183 -24q-19 111 -58 209l-295 -97v209l205 68q-45 77 -127 174h297q72 -73 86 -88l267 88v-209l-148 -49q154 -277 154 -678v-166q0 -228 -119.5 -327t-380.5 -99t-382.5 99.5t-121.5 326.5zM436 424 q0 -148 160 -148q162 0 162 148v135q0 143 -162 143q-80 0 -120 -34t-40 -109v-135z" />
<glyph unicode="&#xf1;" horiz-adv-x="1251" d="M123 0v1077h295l12 -100q62 68 155.5 98.5t233.5 30.5q158 0 236 -74.5t78 -226.5v-805h-345v690q0 101 -112 101q-126 0 -209 -54v-737h-344zM279 1151v217q82 94 190 94q76 0 176 -45q116 -53 172 -53q58 0 104.5 25t92.5 81v-217q-79 -94 -191 -94q-64 0 -178 43 q-2 1 -19 9t-20.5 9.5t-18 8t-20 8t-18 6t-19.5 6t-17.5 4t-19.5 3.5t-18 1q-60 0 -105.5 -25t-90.5 -81z" />
<glyph unicode="&#xf2;" horiz-adv-x="1193" d="M92 389v293q0 227 121.5 325.5t382.5 98.5q262 0 384 -98.5t122 -325.5v-293q0 -227 -122 -326.5t-384 -99.5q-261 0 -382.5 99.5t-121.5 326.5zM303 1569h330l135 -381h-213zM430 414q0 -148 166 -148q80 0 124 36.5t44 111.5v243q0 144 -168 144q-166 0 -166 -144v-243 z" />
<glyph unicode="&#xf3;" horiz-adv-x="1193" d="M92 389v293q0 227 121.5 325.5t382.5 98.5q262 0 384 -98.5t122 -325.5v-293q0 -227 -122 -326.5t-384 -99.5q-261 0 -382.5 99.5t-121.5 326.5zM426 1188l137 381h328l-252 -381h-213zM430 414q0 -148 166 -148q80 0 124 36.5t44 111.5v243q0 144 -168 144 q-166 0 -166 -144v-243z" />
<glyph unicode="&#xf4;" horiz-adv-x="1193" d="M92 389v293q0 227 121.5 325.5t382.5 98.5q262 0 384 -98.5t122 -325.5v-293q0 -227 -122 -326.5t-384 -99.5q-261 0 -382.5 99.5t-121.5 326.5zM182 1186l281 360h266l281 -360h-258l-156 211l-156 -211h-258zM430 414q0 -148 166 -148q80 0 124 36.5t44 111.5v243 q0 144 -168 144q-166 0 -166 -144v-243z" />
<glyph unicode="&#xf5;" horiz-adv-x="1193" d="M92 389v293q0 227 121.5 325.5t382.5 98.5q262 0 384 -98.5t122 -325.5v-293q0 -227 -122 -326.5t-384 -99.5q-261 0 -382.5 99.5t-121.5 326.5zM229 1151v217q82 94 191 94q76 0 176 -45q116 -53 172 -53q58 0 104.5 25t92.5 81v-217q-79 -94 -191 -94q-64 0 -178 43 q-2 1 -19 9t-20.5 9.5t-18 8t-20 8t-18 6t-19.5 6t-17.5 4t-19.5 3.5t-18 1q-60 0 -106.5 -25t-90.5 -81zM430 414q0 -148 166 -148q80 0 124 36.5t44 111.5v243q0 144 -168 144q-166 0 -166 -144v-243z" />
<glyph unicode="&#xf6;" horiz-adv-x="1193" d="M92 389v293q0 227 121.5 325.5t382.5 98.5q262 0 384 -98.5t122 -325.5v-293q0 -227 -122 -326.5t-384 -99.5q-261 0 -382.5 99.5t-121.5 326.5zM180 1208v265h344v-265h-344zM430 414q0 -148 166 -148q80 0 124 36.5t44 111.5v243q0 144 -168 144q-166 0 -166 -144v-243 zM670 1208v265h344v-265h-344z" />
<glyph unicode="&#xf7;" horiz-adv-x="1243" d="M92 627v252h1057v-252h-1057zM436 172v332h371v-332h-371zM436 1001v332h371v-332h-371z" />
<glyph unicode="&#xf8;" horiz-adv-x="1193" d="M92 -154l115 222q-115 100 -115 321v293q0 227 121.5 325.5t382.5 98.5q53 0 143 -8l70 133h293l-119 -227q119 -101 119 -322v-293q0 -227 -122 -326.5t-384 -99.5q-76 0 -154 10l-63 -127h-287zM410 418l213 413q-12 3 -27 3q-94 0 -140 -40.5t-46 -129.5v-246z M559 233h37q188 0 188 173v260z" />
<glyph unicode="&#xf9;" horiz-adv-x="1196" d="M100 332v745h342v-700q0 -58 33.5 -79.5t124.5 -21.5t124.5 22.5t33.5 78.5v700h338v-745q0 -192 -124.5 -280.5t-371.5 -88.5q-246 0 -373 88.5t-127 280.5zM303 1569h330l135 -381h-213z" />
<glyph unicode="&#xfa;" horiz-adv-x="1196" d="M100 332v745h342v-700q0 -58 33.5 -79.5t124.5 -21.5t124.5 22.5t33.5 78.5v700h338v-745q0 -192 -124.5 -280.5t-371.5 -88.5q-246 0 -373 88.5t-127 280.5zM426 1188l137 381h328l-252 -381h-213z" />
<glyph unicode="&#xfb;" horiz-adv-x="1196" d="M100 332v745h342v-700q0 -58 33.5 -79.5t124.5 -21.5t124.5 22.5t33.5 78.5v700h338v-745q0 -192 -124.5 -280.5t-371.5 -88.5q-246 0 -373 88.5t-127 280.5zM184 1186l281 360h266l281 -360h-258l-156 211l-156 -211h-258z" />
<glyph unicode="&#xfc;" horiz-adv-x="1196" d="M100 332v745h342v-700q0 -58 33.5 -79.5t124.5 -21.5t124.5 22.5t33.5 78.5v700h338v-745q0 -192 -124.5 -280.5t-371.5 -88.5q-246 0 -373 88.5t-127 280.5zM180 1208v265h344v-265h-344zM670 1208v265h344v-265h-344z" />
<glyph unicode="&#xfd;" horiz-adv-x="1230" d="M18 1077h394q143 -485 190 -692q57 206 236 692h376l-565 -1544h-377l152 418zM444 1188l138 381h327l-252 -381h-213z" />
<glyph unicode="&#xfe;" horiz-adv-x="1228" d="M127 -467v1940h344v-467q119 100 338 100q173 0 250.5 -101t77.5 -323v-313q0 -212 -78.5 -309t-257.5 -97q-193 0 -330 55v-485h-344zM471 313q93 -34 180 -34q78 0 110 36t32 131v185q0 82 -27.5 121t-93.5 39q-121 0 -201 -68v-410z" />
<glyph unicode="&#xff;" horiz-adv-x="1230" d="M18 1077h394q143 -485 190 -692q57 206 236 692h376l-565 -1544h-377l152 418zM199 1208v265h344v-265h-344zM688 1208v265h344v-265h-344z" />
<glyph unicode="&#x100;" horiz-adv-x="1263" d="M18 0l355 1454h542l332 -1454h-385l-57 281h-356l-64 -281h-367zM272 1559v229h719v-229h-719zM512 555h238q-68 319 -111 586q-54 -272 -127 -586z" />
<glyph unicode="&#x101;" d="M70 238v178q0 148 88.5 206t318.5 58q154 0 275 -23v41q0 74 -53 97.5t-193 23.5q-207 0 -332 -39v289q148 37 397 37q133 0 222 -16t157 -57t99.5 -115t31.5 -187v-731h-297l-10 100q-116 -137 -373 -137q-95 0 -160.5 19t-102 56.5t-52.5 86t-16 113.5zM242 1182v229 h719v-229h-719zM406 334q0 -62 25.5 -81.5t100.5 -19.5q132 0 220 66v154q-80 12 -179 12q-88 0 -127.5 -19t-39.5 -84v-28z" />
<glyph unicode="&#x102;" horiz-adv-x="1263" d="M18 0l355 1454h542l332 -1454h-385l-57 281h-356l-64 -281h-367zM276 1915h207q10 -164 156 -164q144 0 154 164h206q0 -88 -30 -159t-81 -114.5t-115 -66.5t-134 -23t-134.5 23t-116 66.5t-82 114.5t-30.5 159zM512 555h238q-68 319 -111 586q-54 -272 -127 -586z" />
<glyph unicode="&#x103;" d="M70 238v178q0 148 88.5 206t318.5 58q154 0 275 -23v41q0 74 -53 97.5t-193 23.5q-207 0 -332 -39v289q148 37 397 37q133 0 222 -16t157 -57t99.5 -115t31.5 -187v-731h-297l-10 100q-116 -137 -373 -137q-95 0 -160.5 19t-102 56.5t-52.5 86t-16 113.5zM240 1538h206 q10 -164 156 -164q144 0 154 164h207q0 -88 -30.5 -159t-81.5 -114t-114.5 -66t-134.5 -23q-95 0 -175.5 38.5t-133.5 122.5t-53 201zM406 334q0 -62 25.5 -81.5t100.5 -19.5q132 0 220 66v154q-80 12 -179 12q-88 0 -127.5 -19t-39.5 -84v-28z" />
<glyph unicode="&#x104;" horiz-adv-x="1263" d="M18 0l355 1454h542l332 -1454l-137 -72q-46 -25 -57 -40t-11 -46q0 -28 27 -38.5t80 -10.5q70 0 98 12v-286q-37 -11 -143 -11q-86 0 -149.5 12t-101 31t-60 48.5t-30 58.5t-7.5 66q0 84 58.5 138.5t170.5 94.5l123 43h-246l-57 281h-356l-64 -281h-367zM512 555h238 q-68 319 -111 586q-54 -272 -127 -586z" />
<glyph unicode="&#x105;" d="M70 238v178q0 148 88.5 206t318.5 58q154 0 275 -23v41q0 74 -53 97.5t-193 23.5q-207 0 -332 -39v289q148 37 397 37q133 0 222 -16t157 -57t99.5 -115t31.5 -187v-731l-137 -72q-46 -24 -56.5 -39.5t-10.5 -46.5q0 -28 26.5 -38.5t79.5 -10.5q70 0 98 12v-286 q-37 -11 -143 -11q-86 0 -149.5 12t-101 31t-60 48.5t-30 58.5t-7.5 66q0 84 58.5 138.5t170.5 94.5l123 43h-158l-10 100q-116 -137 -373 -137q-95 0 -160.5 19t-102 56.5t-52.5 86t-16 113.5zM406 334q0 -62 25.5 -81.5t100.5 -19.5q132 0 220 66v154q-80 12 -179 12 q-88 0 -127.5 -19t-39.5 -84v-28z" />
<glyph unicode="&#x106;" horiz-adv-x="1153" d="M100 524v406q0 303 146 432t465 129q112 0 211.5 -18t140.5 -35v-348q-185 38 -367 38q-111 0 -165 -49.5t-54 -165.5v-374q0 -116 54 -165.5t165 -49.5q199 0 373 41v-351q-39 -16 -142 -33.5t-216 -17.5q-319 0 -465 129t-146 432zM508 1565l137 381h328l-252 -381 h-213z" />
<glyph unicode="&#x107;" horiz-adv-x="964" d="M92 416v237q0 244 119 348.5t389 104.5q188 0 295 -41v-309q-102 37 -272 37q-107 0 -147 -35t-40 -127v-193q0 -92 40 -127t147 -35q174 0 276 37v-309q-120 -41 -299 -41q-270 0 -389 104.5t-119 348.5zM393 1188l137 381h328l-252 -381h-213z" />
<glyph unicode="&#x108;" horiz-adv-x="1153" d="M100 524v406q0 303 146 432t465 129q112 0 211.5 -18t140.5 -35v-348q-185 38 -367 38q-111 0 -165 -49.5t-54 -165.5v-374q0 -116 54 -165.5t165 -49.5q199 0 373 41v-351q-39 -16 -142 -33.5t-216 -17.5q-319 0 -465 129t-146 432zM233 1563l281 360h266l281 -360h-258 l-156 211l-155 -211h-259z" />
<glyph unicode="&#x109;" horiz-adv-x="964" d="M92 416v237q0 244 119 348.5t389 104.5q188 0 295 -41v-309q-102 37 -272 37q-107 0 -147 -35t-40 -127v-193q0 -92 40 -127t147 -35q174 0 276 37v-309q-120 -41 -299 -41q-270 0 -389 104.5t-119 348.5zM129 1186l281 360h266l280 -360h-258l-155 211l-156 -211h-258z " />
<glyph unicode="&#x10a;" horiz-adv-x="1153" d="M100 524v406q0 303 146 432t465 129q112 0 211.5 -18t140.5 -35v-348q-185 38 -367 38q-111 0 -165 -49.5t-54 -165.5v-374q0 -116 54 -165.5t165 -49.5q199 0 373 41v-351q-39 -16 -142 -33.5t-216 -17.5q-319 0 -465 129t-146 432zM479 1585v264h344v-264h-344z" />
<glyph unicode="&#x10b;" horiz-adv-x="964" d="M92 416v237q0 244 119 348.5t389 104.5q188 0 295 -41v-309q-102 37 -272 37q-107 0 -147 -35t-40 -127v-193q0 -92 40 -127t147 -35q174 0 276 37v-309q-120 -41 -299 -41q-270 0 -389 104.5t-119 348.5zM365 1208v265h344v-265h-344z" />
<glyph unicode="&#x10c;" horiz-adv-x="1153" d="M100 524v406q0 303 146 432t465 129q112 0 211.5 -18t140.5 -35v-348q-185 38 -367 38q-111 0 -165 -49.5t-54 -165.5v-374q0 -116 54 -165.5t165 -49.5q199 0 373 41v-351q-39 -16 -142 -33.5t-216 -17.5q-319 0 -465 129t-146 432zM244 1923h258l155 -209l156 209h258 l-280 -360h-267z" />
<glyph unicode="&#x10d;" horiz-adv-x="964" d="M92 416v237q0 244 119 348.5t389 104.5q188 0 295 -41v-309q-102 37 -272 37q-107 0 -147 -35t-40 -127v-193q0 -92 40 -127t147 -35q174 0 276 37v-309q-120 -41 -299 -41q-270 0 -389 104.5t-119 348.5zM123 1546h258l156 -209l155 209h258l-280 -360h-267z" />
<glyph unicode="&#x10e;" horiz-adv-x="1312" d="M131 0v1454h553q127 0 221 -24.5t164.5 -79t106.5 -149t36 -228.5v-492q0 -133 -36 -227.5t-106.5 -149.5t-164.5 -79.5t-221 -24.5h-553zM221 1923h258l156 -209l156 209h258l-281 -360h-266zM506 322h178q59 0 89.5 14.5t46.5 59t16 130.5v404q0 86 -16 129.5 t-46.5 58.5t-89.5 15h-178v-811z" />
<glyph unicode="&#x10f;" horiz-adv-x="1599" d="M92 387v313q0 212 78.5 309t259.5 97q189 0 328 -53v420h344v-1473h-295l-12 100q-58 -71 -157.5 -104t-217.5 -33q-173 0 -250.5 101t-77.5 323zM436 444q0 -81 28 -120t93 -39q119 0 201 67v410q-96 35 -180 35q-78 0 -110 -36.5t-32 -131.5v-185zM1231 811v662h368 v-199q0 -198 -100.5 -327t-267.5 -136z" />
<glyph unicode="&#x110;" horiz-adv-x="1312" d="M25 608v303h106v543h553q127 0 221 -24.5t164.5 -79t106.5 -149t36 -228.5v-492q0 -133 -36 -227.5t-106.5 -149.5t-164.5 -79.5t-221 -24.5h-553v608h-106zM506 322h178q59 0 89.5 14.5t46.5 59t16 130.5v404q0 86 -16 129.5t-46.5 58.5t-89.5 15h-178v-222h207v-303 h-207v-286z" />
<glyph unicode="&#x111;" horiz-adv-x="1228" d="M92 387v313q0 212 78.5 309t259.5 97q189 0 328 -53v100h-248v229h248v91h344v-91h127v-229h-127v-1153h-295l-12 100q-58 -71 -157.5 -104t-217.5 -33q-173 0 -250.5 101t-77.5 323zM436 444q0 -81 28 -120t93 -39q119 0 201 67v410q-96 35 -180 35q-78 0 -110 -36.5 t-32 -131.5v-185z" />
<glyph unicode="&#x112;" d="M131 0v1454h967v-321h-592v-222h547v-303h-547v-282h604v-326h-979zM264 1559v229h719v-229h-719z" />
<glyph unicode="&#x113;" horiz-adv-x="1144" d="M92 416v237q0 127 23.5 210t81 139t151.5 80t238 24t234.5 -23.5t143.5 -80.5t73 -138.5t20 -210.5v-223h-633v-12q0 -85 58 -125.5t190 -40.5q80 0 198 12t158 25v-285q-37 -13 -161.5 -27t-213.5 -14q-302 0 -431.5 104t-129.5 349zM225 1182v229h719v-229h-719z M424 659h321v13q0 85 -35 122t-124 37q-88 0 -125 -37.5t-37 -121.5v-13z" />
<glyph unicode="&#x114;" d="M131 0v1454h967v-321h-592v-222h547v-303h-547v-282h604v-326h-979zM258 1915h207q10 -164 156 -164q143 0 153 164h207q0 -88 -30 -159t-81 -114.5t-115 -66.5t-134 -23t-134.5 23t-116 66.5t-82 114.5t-30.5 159z" />
<glyph unicode="&#x115;" horiz-adv-x="1144" d="M92 416v237q0 127 23.5 210t81 139t151.5 80t238 24t234.5 -23.5t143.5 -80.5t73 -138.5t20 -210.5v-223h-633v-12q0 -85 58 -125.5t190 -40.5q80 0 198 12t158 25v-285q-37 -13 -161.5 -27t-213.5 -14q-302 0 -431.5 104t-129.5 349zM211 1538h207q10 -164 155 -164 q144 0 154 164h207q0 -88 -30.5 -159t-81.5 -114t-114.5 -66t-134.5 -23q-95 0 -175.5 38.5t-133.5 122.5t-53 201zM424 659h321v13q0 85 -35 122t-124 37q-88 0 -125 -37.5t-37 -121.5v-13z" />
<glyph unicode="&#x116;" d="M131 0v1454h967v-321h-592v-222h547v-303h-547v-282h604v-326h-979zM459 1585v264h344v-264h-344z" />
<glyph unicode="&#x117;" horiz-adv-x="1144" d="M92 416v237q0 127 23.5 210t81 139t151.5 80t238 24t234.5 -23.5t143.5 -80.5t73 -138.5t20 -210.5v-223h-633v-12q0 -85 58 -125.5t190 -40.5q80 0 198 12t158 25v-285q-37 -13 -161.5 -27t-213.5 -14q-302 0 -431.5 104t-129.5 349zM399 1208v265h344v-265h-344z M424 659h321v13q0 85 -35 122t-124 37q-88 0 -125 -37.5t-37 -121.5v-13z" />
<glyph unicode="&#x118;" d="M131 0v1454h967v-321h-592v-222h547v-303h-547v-282h604v-326l-137 -72q-46 -25 -57 -40t-11 -46q0 -28 27 -38.5t80 -10.5q70 0 98 12v-286q-37 -11 -143 -11q-86 0 -149.5 12t-101 31t-60.5 48.5t-30.5 58.5t-7.5 66q0 84 58.5 138.5t171.5 94.5l123 43h-840z" />
<glyph unicode="&#x119;" horiz-adv-x="1144" d="M92 416v237q0 127 23.5 210t81 139t151.5 80t238 24t234.5 -23.5t143.5 -80.5t73 -138.5t20 -210.5v-223h-633v-12q0 -85 58 -125.5t190 -40.5q80 0 198 12t158 25v-285q-108 -55 -155.5 -84.5t-56.5 -42.5t-9 -35q0 -28 26.5 -38.5t79.5 -10.5q71 0 99 12v-286 q-37 -11 -144 -11q-86 0 -149.5 12t-101 31t-60 48.5t-30 58.5t-7.5 66q0 84 58.5 138.5t171.5 94.5l34 12q-70 -6 -131 -6q-302 0 -431.5 104t-129.5 349zM424 659h321v13q0 85 -35 122t-124 37q-88 0 -125 -37.5t-37 -121.5v-13z" />
<glyph unicode="&#x11a;" d="M131 0v1454h967v-321h-592v-222h547v-303h-547v-282h604v-326h-979zM207 1923h258l156 -209l155 209h258l-280 -360h-267z" />
<glyph unicode="&#x11b;" horiz-adv-x="1144" d="M92 416v237q0 127 23.5 210t81 139t151.5 80t238 24t234.5 -23.5t143.5 -80.5t73 -138.5t20 -210.5v-223h-633v-12q0 -85 58 -125.5t190 -40.5q80 0 198 12t158 25v-285q-37 -13 -161.5 -27t-213.5 -14q-302 0 -431.5 104t-129.5 349zM168 1546h258l156 -209l155 209h258 l-280 -360h-266zM424 659h321v13q0 85 -35 122t-124 37q-88 0 -125 -37.5t-37 -121.5v-13z" />
<glyph unicode="&#x11c;" horiz-adv-x="1257" d="M100 524v406q0 300 155 430.5t476 130.5q115 0 226.5 -18.5t150.5 -34.5v-342q-189 39 -389 39q-246 0 -246 -215v-396q0 -116 54 -165.5t159 -49.5q68 0 109 8v480h354v-797q-121 -37 -471 -37q-296 0 -437 130t-141 431zM256 1563l281 360h266l280 -360h-258l-155 211 l-156 -211h-258z" />
<glyph unicode="&#x11d;" horiz-adv-x="1200" d="M92 469v231q0 110 20.5 182t73 124.5t145.5 76t236 23.5q183 0 298.5 -30t211.5 -83v-1030q0 -243 -132 -349t-408 -106q-99 0 -195.5 14t-134.5 29v308q103 -39 307 -39q112 0 165.5 37.5t53.5 126.5v161q-113 -102 -321 -102q-168 0 -244 102t-76 324zM186 1186 l281 360h266l281 -360h-258l-156 211l-156 -211h-258zM442 500q0 -81 25.5 -120.5t85.5 -39.5q106 0 180 68v383q-67 26 -143 26q-85 0 -116.5 -35.5t-31.5 -132.5v-149z" />
<glyph unicode="&#x11e;" horiz-adv-x="1257" d="M100 524v406q0 300 155 430.5t476 130.5q115 0 226.5 -18.5t150.5 -34.5v-342q-189 39 -389 39q-246 0 -246 -215v-396q0 -116 54 -165.5t159 -49.5q68 0 109 8v480h354v-797q-121 -37 -471 -37q-296 0 -437 130t-141 431zM307 1915h207q10 -164 156 -164q143 0 153 164 h207q0 -88 -30 -159t-81 -114.5t-115 -66.5t-134 -23t-134.5 23t-116 66.5t-82 114.5t-30.5 159z" />
<glyph unicode="&#x11f;" horiz-adv-x="1200" d="M92 469v231q0 110 20.5 182t73 124.5t145.5 76t236 23.5q183 0 298.5 -30t211.5 -83v-1030q0 -243 -132 -349t-408 -106q-99 0 -195.5 14t-134.5 29v308q103 -39 307 -39q112 0 165.5 37.5t53.5 126.5v161q-113 -102 -321 -102q-168 0 -244 102t-76 324zM238 1538h206 q10 -164 156 -164q144 0 154 164h207q0 -88 -30.5 -159t-81.5 -114t-114.5 -66t-134.5 -23q-95 0 -175.5 38.5t-133.5 122.5t-53 201zM442 500q0 -81 25.5 -120.5t85.5 -39.5q106 0 180 68v383q-67 26 -143 26q-85 0 -116.5 -35.5t-31.5 -132.5v-149z" />
<glyph unicode="&#x120;" horiz-adv-x="1257" d="M100 524v406q0 300 155 430.5t476 130.5q115 0 226.5 -18.5t150.5 -34.5v-342q-189 39 -389 39q-246 0 -246 -215v-396q0 -116 54 -165.5t159 -49.5q68 0 109 8v480h354v-797q-121 -37 -471 -37q-296 0 -437 130t-141 431zM506 1585v264h344v-264h-344z" />
<glyph unicode="&#x121;" horiz-adv-x="1200" d="M92 469v231q0 110 20.5 182t73 124.5t145.5 76t236 23.5q183 0 298.5 -30t211.5 -83v-1030q0 -243 -132 -349t-408 -106q-99 0 -195.5 14t-134.5 29v308q103 -39 307 -39q112 0 165.5 37.5t53.5 126.5v161q-113 -102 -321 -102q-168 0 -244 102t-76 324zM428 1208v265 h344v-265h-344zM442 500q0 -81 25.5 -120.5t85.5 -39.5q106 0 180 68v383q-67 26 -143 26q-85 0 -116.5 -35.5t-31.5 -132.5v-149z" />
<glyph unicode="&#x122;" horiz-adv-x="1257" d="M100 524v406q0 300 155 430.5t476 130.5q115 0 226.5 -18.5t150.5 -34.5v-342q-189 39 -389 39q-246 0 -246 -215v-396q0 -116 54 -165.5t159 -49.5q68 0 109 8v480h354v-797q-121 -37 -471 -37q-296 0 -437 130t-141 431zM522 -492l2 418h326v-61q0 -164 -88 -256.5 t-240 -100.5z" />
<glyph unicode="&#x123;" horiz-adv-x="1200" d="M92 469v231q0 110 20.5 182t73 124.5t145.5 76t236 23.5q183 0 298.5 -30t211.5 -83v-1030q0 -243 -132 -349t-408 -106q-99 0 -195.5 14t-134.5 29v308q103 -39 307 -39q112 0 165.5 37.5t53.5 126.5v161q-113 -102 -321 -102q-168 0 -244 102t-76 324zM436 1217v61 q0 164 88 256t240 100l-2 -417h-326zM442 500q0 -81 25.5 -120.5t85.5 -39.5q106 0 180 68v383q-67 26 -143 26q-85 0 -116.5 -35.5t-31.5 -132.5v-149z" />
<glyph unicode="&#x124;" horiz-adv-x="1378" d="M131 0v1454h375v-563h364v563h377v-1454h-377v582h-364v-582h-375zM274 1563l281 360h266l281 -360h-258l-156 211l-156 -211h-258z" />
<glyph unicode="&#x125;" horiz-adv-x="1255" d="M127 0v1473h344v-451q141 84 352 84q158 0 236 -74.5t78 -226.5v-805h-344v694q0 101 -113 101q-126 0 -209 -54v-741h-344zM127 1563l281 360h266l280 -360h-258l-155 211l-156 -211h-258z" />
<glyph unicode="&#x126;" horiz-adv-x="1378" d="M131 0v1454h375v-178h364v178h377v-1454h-377v582h-364v-582h-375zM506 891h364v156h-364v-156z" />
<glyph unicode="&#x127;" horiz-adv-x="1255" d="M0 1161v230h127v82h344v-82h248v-230h-248v-139q141 84 352 84q158 0 236 -74.5t78 -226.5v-805h-344v694q0 101 -113 101q-126 0 -209 -54v-741h-344v1161h-127z" />
<glyph unicode="&#x128;" horiz-adv-x="655" d="M-39 1528v217q82 94 191 94q76 0 176 -45q116 -53 172 -53q58 0 104 25t92 81v-217q-79 -94 -190 -94q-64 0 -178 43q-2 1 -19 9t-20.5 9.5t-18 8t-20 8t-18 6t-19.5 6t-17.5 4t-19.5 3.5t-18 1q-60 0 -106.5 -25t-90.5 -81zM139 0v1454h375v-1454h-375z" />
<glyph unicode="&#x129;" horiz-adv-x="706" d="M-14 1151v217q82 94 190 94q76 0 176 -45q116 -53 172 -53q58 0 104.5 25t92.5 81v-217q-79 -94 -191 -94q-64 0 -178 43q-2 1 -19 9t-20.5 9.5t-18 8t-20 8t-18 6t-19.5 6t-17.5 4t-19.5 3.5t-18 1q-60 0 -105.5 -25t-90.5 -81zM180 0v1077h344v-1077h-344z" />
<glyph unicode="&#x12a;" horiz-adv-x="655" d="M-31 1559v229h719v-229h-719zM139 0v1454h375v-1454h-375z" />
<glyph unicode="&#x12b;" horiz-adv-x="692" d="M-14 1182v229h719v-229h-719zM172 0v1077h344v-1077h-344z" />
<glyph unicode="&#x12c;" horiz-adv-x="655" d="M-33 1915h207q10 -164 156 -164q143 0 153 164h207q0 -88 -30 -159t-81 -114.5t-115 -66.5t-134 -23t-134.5 23t-116 66.5t-82 114.5t-30.5 159zM139 0v1454h375v-1454h-375z" />
<glyph unicode="&#x12d;" horiz-adv-x="702" d="M-12 1538h207q10 -164 155 -164q144 0 154 164h207q0 -88 -30.5 -159t-81.5 -114t-114.5 -66t-134.5 -23q-95 0 -175.5 38.5t-133.5 122.5t-53 201zM176 0v1077h344v-1077h-344z" />
<glyph unicode="&#x12e;" horiz-adv-x="655" d="M23 -276q0 84 58.5 138.5t170.5 94.5l123 43h-236v1454h375v-1454l-137 -72q-46 -25 -57 -40t-11 -46q0 -28 27 -38.5t80 -10.5q70 0 98 12v-286q-37 -11 -143 -11q-86 0 -149.5 12t-101 31t-60 48.5t-30 58.5t-7.5 66z" />
<glyph unicode="&#x12f;" horiz-adv-x="606" d="M-16 -276q0 84 58.5 138.5t170.5 94.5l123 43h-205v1077h344v-1077l-137 -72q-46 -25 -57 -40t-11 -46q0 -28 27 -38.5t80 -10.5q70 0 98 12v-286q-37 -11 -143 -11q-86 0 -149.5 12t-101 31t-60 48.5t-30 58.5t-7.5 66zM131 1208v265h344v-265h-344z" />
<glyph unicode="&#x130;" horiz-adv-x="655" d="M139 0v1454h375v-1454h-375zM156 1585v264h344v-264h-344z" />
<glyph unicode="&#x131;" horiz-adv-x="606" d="M131 0v1077h344v-1077h-344z" />
<glyph unicode="&#x132;" horiz-adv-x="1636" d="M139 0v1454h375v-1454h-375zM674 14v351q135 -41 301 -41q93 0 134.5 48.5t41.5 166.5v915h377v-930q0 -305 -131 -433t-434 -128q-99 0 -175.5 16t-113.5 35z" />
<glyph unicode="&#x133;" horiz-adv-x="1226" d="M131 0v1077h344v-1077h-344zM131 1208v265h344v-265h-344zM399 -139q118 -37 205 -37q158 0 158 164v1089h338v-1102q0 -115 -22.5 -199t-74.5 -145.5t-140.5 -92t-215.5 -30.5q-139 0 -248 50v303zM762 1208v265h338v-265h-338z" />
<glyph unicode="&#x134;" horiz-adv-x="980" d="M18 14v351q135 -41 301 -41q93 0 135 48.5t42 166.5v915h376v-930q0 -305 -131 -433t-434 -128q-99 0 -175.5 16t-113.5 35zM221 1563l281 360h266l281 -360h-258l-156 211l-156 -211h-258z" />
<glyph unicode="&#x135;" horiz-adv-x="729" d="M-135 -139q118 -37 205 -37q157 0 157 164v1089h338v-1102q0 -235 -102 -351t-350 -116q-139 0 -248 50v303zM-51 1186l280 360h267l280 -360h-258l-156 211l-155 -211h-258z" />
<glyph unicode="&#x136;" horiz-adv-x="1294" d="M131 0v1454h369v-618l344 618h411l-391 -657l430 -797h-442l-352 717v-717h-369zM483 -492l2 418h326v-61q0 -164 -88 -256.5t-240 -100.5z" />
<glyph unicode="&#x137;" horiz-adv-x="1134" d="M127 0v1473h344v-850l244 454h393l-287 -489l314 -588h-414l-250 510v-510h-344zM403 -492l3 418h325v-61q0 -164 -88 -256.5t-240 -100.5z" />
<glyph unicode="&#x139;" horiz-adv-x="989" d="M131 0v1454h375v-1128h446v-326h-821zM139 1565l137 381h328l-252 -381h-213z" />
<glyph unicode="&#x13a;" horiz-adv-x="598" d="M127 0v1473h344v-1473h-344zM127 1565l137 381h328l-252 -381h-213z" />
<glyph unicode="&#x13b;" horiz-adv-x="989" d="M131 0v1454h375v-1128h446v-326h-821zM371 -492l2 418h325v-61q0 -164 -87.5 -256.5t-239.5 -100.5z" />
<glyph unicode="&#x13c;" horiz-adv-x="598" d="M127 0v1473h344v-1473h-344zM135 -492l2 418h326v-61q0 -164 -88 -256.5t-240 -100.5z" />
<glyph unicode="&#x13d;" horiz-adv-x="989" d="M131 0v1454h375v-1128h446v-326h-821zM580 811v662h368v-199q0 -198 -100.5 -327t-267.5 -136z" />
<glyph unicode="&#x13e;" horiz-adv-x="598" d="M127 0v1473h344v-1473h-344zM598 811v662h369v-199q0 -198 -101 -327t-268 -136z" />
<glyph unicode="&#x13f;" horiz-adv-x="989" d="M131 0v1454h375v-1128h446v-326h-821zM549 678v264h344v-264h-344z" />
<glyph unicode="&#x140;" horiz-adv-x="942" d="M127 0v1473h344v-1473h-344zM598 594v264h344v-264h-344z" />
<glyph unicode="&#x141;" horiz-adv-x="989" d="M131 0v1454h375v-577l170 71v-235l-170 -76v-311h446v-326h-821z" />
<glyph unicode="&#x142;" horiz-adv-x="616" d="M27 506v235l108 43v689h344v-539l113 47v-238l-113 -47v-696h-344v547z" />
<glyph unicode="&#x143;" horiz-adv-x="1402" d="M127 0v1454h446l203 -399q68 -140 156 -348q-10 225 -10 407v340h354v-1454h-330l-307 567q-77 142 -168 348q8 -172 8 -391v-524h-352zM530 1565l138 381h327l-252 -381h-213z" />
<glyph unicode="&#x144;" horiz-adv-x="1251" d="M123 0v1077h295l12 -100q62 68 155.5 98.5t233.5 30.5q158 0 236 -74.5t78 -226.5v-805h-345v690q0 101 -112 101q-126 0 -209 -54v-737h-344zM455 1188l137 381h328l-252 -381h-213z" />
<glyph unicode="&#x145;" horiz-adv-x="1402" d="M127 0v1454h446l203 -399q68 -140 156 -348q-10 225 -10 407v340h354v-1454h-330l-307 567q-77 142 -168 348q8 -172 8 -391v-524h-352zM537 -492l2 418h325v-61q0 -164 -87.5 -256.5t-239.5 -100.5z" />
<glyph unicode="&#x146;" horiz-adv-x="1251" d="M123 0v1077h295l12 -100q62 68 155.5 98.5t233.5 30.5q158 0 236 -74.5t78 -226.5v-805h-345v690q0 101 -112 101q-126 0 -209 -54v-737h-344zM461 -492l2 418h325v-61q0 -164 -87.5 -256.5t-239.5 -100.5z" />
<glyph unicode="&#x147;" horiz-adv-x="1402" d="M127 0v1454h446l203 -399q68 -140 156 -348q-10 225 -10 407v340h354v-1454h-330l-307 567q-77 142 -168 348q8 -172 8 -391v-524h-352zM287 1923h258l155 -209l156 209h258l-280 -360h-267z" />
<glyph unicode="&#x148;" horiz-adv-x="1251" d="M123 0v1077h295l12 -100q62 68 155.5 98.5t233.5 30.5q158 0 236 -74.5t78 -226.5v-805h-345v690q0 101 -112 101q-126 0 -209 -54v-737h-344zM231 1546h258l156 -209l156 209h258l-281 -360h-266z" />
<glyph unicode="&#x14a;" horiz-adv-x="1402" d="M127 0v1454h446l203 -399q68 -140 156 -348q-10 225 -10 407v340h354v-1479q0 -115 -22.5 -199t-74.5 -145.5t-140.5 -92t-215.5 -30.5q-139 0 -248 50v303q118 -37 205 -37q158 0 158 164v26l-299 553q-77 142 -168 348q8 -172 8 -391v-524h-352z" />
<glyph unicode="&#x14b;" horiz-adv-x="1251" d="M123 0v1077h295l12 -100q62 68 155.5 98.5t233.5 30.5q158 0 236 -74.5t78 -226.5v-830q0 -115 -22.5 -199t-74.5 -145.5t-140.5 -92t-215.5 -30.5q-139 0 -248 50v303q118 -37 205 -37q76 0 113.5 39.5t37.5 124.5v702q0 101 -112 101q-126 0 -209 -54v-737h-344z" />
<glyph unicode="&#x14c;" horiz-adv-x="1400" d="M102 524v406q0 302 143.5 431.5t454.5 129.5t454.5 -129.5t143.5 -431.5v-406q0 -302 -143.5 -431.5t-454.5 -129.5t-454.5 129.5t-143.5 431.5zM340 1559v229h719v-229h-719zM475 535q0 -117 56.5 -168.5t168.5 -51.5q114 0 171 51.5t57 168.5v383q0 117 -57 168 t-171 51q-113 0 -169 -51t-56 -168v-383z" />
<glyph unicode="&#x14d;" horiz-adv-x="1193" d="M92 389v293q0 227 121.5 325.5t382.5 98.5q262 0 384 -98.5t122 -325.5v-293q0 -227 -122 -326.5t-384 -99.5q-261 0 -382.5 99.5t-121.5 326.5zM238 1182v229h718v-229h-718zM430 414q0 -148 166 -148q80 0 124 36.5t44 111.5v243q0 144 -168 144q-166 0 -166 -144v-243 z" />
<glyph unicode="&#x14e;" horiz-adv-x="1400" d="M102 524v406q0 302 143.5 431.5t454.5 129.5t454.5 -129.5t143.5 -431.5v-406q0 -302 -143.5 -431.5t-454.5 -129.5t-454.5 129.5t-143.5 431.5zM338 1915h207q10 -164 155 -164q144 0 154 164h207q0 -88 -30.5 -159t-81.5 -114.5t-115 -66.5t-134 -23t-134 23 t-115.5 66.5t-82 114.5t-30.5 159zM475 535q0 -117 56.5 -168.5t168.5 -51.5q114 0 171 51.5t57 168.5v383q0 117 -57 168t-171 51q-113 0 -169 -51t-56 -168v-383z" />
<glyph unicode="&#x14f;" horiz-adv-x="1193" d="M92 389v293q0 227 121.5 325.5t382.5 98.5q262 0 384 -98.5t122 -325.5v-293q0 -227 -122 -326.5t-384 -99.5q-261 0 -382.5 99.5t-121.5 326.5zM236 1538h206q10 -164 156 -164q144 0 154 164h206q0 -117 -52.5 -201t-132.5 -122.5t-175 -38.5t-175.5 38.5t-133.5 122.5 t-53 201zM430 414q0 -148 166 -148q80 0 124 36.5t44 111.5v243q0 144 -168 144q-166 0 -166 -144v-243z" />
<glyph unicode="&#x150;" horiz-adv-x="1400" d="M102 524v406q0 302 143.5 431.5t454.5 129.5t454.5 -129.5t143.5 -431.5v-406q0 -302 -143.5 -431.5t-454.5 -129.5t-454.5 129.5t-143.5 431.5zM322 1565l137 381h327l-251 -381h-213zM475 535q0 -117 56.5 -168.5t168.5 -51.5q114 0 171 51.5t57 168.5v383 q0 117 -57 168t-171 51q-113 0 -169 -51t-56 -168v-383zM739 1565l135 381h328l-252 -381h-211z" />
<glyph unicode="&#x151;" horiz-adv-x="1193" d="M92 389v293q0 227 121.5 325.5t382.5 98.5q262 0 384 -98.5t122 -325.5v-293q0 -227 -122 -326.5t-384 -99.5q-261 0 -382.5 99.5t-121.5 326.5zM217 1188l137 381h328l-252 -381h-213zM430 414q0 -148 166 -148q80 0 124 36.5t44 111.5v243q0 144 -168 144 q-166 0 -166 -144v-243zM635 1188l135 381h328l-252 -381h-211z" />
<glyph unicode="&#x152;" horiz-adv-x="1871" d="M100 524v406q0 153 35.5 255t112.5 161t184.5 83.5t265.5 24.5h1090v-321h-569v-222h524v-303h-524v-282h583v-326h-1104q-158 0 -265.5 24.5t-184.5 83.5t-112.5 161t-35.5 255zM473 539q0 -116 56 -165.5t169 -49.5h146v809h-146q-112 0 -168.5 -51.5t-56.5 -168.5 v-374z" />
<glyph unicode="&#x153;" horiz-adv-x="1812" d="M92 389v293q0 227 121.5 325.5t382.5 98.5q217 0 324 -66q104 66 333 66q144 0 234.5 -23.5t143.5 -80.5t73 -138.5t20 -210.5v-223h-632v-12q0 -85 57.5 -123.5t191.5 -38.5q79 0 197 12t158 25v-289q-35 -13 -160.5 -27t-214.5 -14q-255 0 -383 76q-113 -76 -342 -76 q-261 0 -382.5 99.5t-121.5 326.5zM436 424q0 -148 160 -148q162 0 162 148v223q0 144 -162 144q-80 0 -120 -34.5t-40 -109.5v-223zM1092 659h321v13q0 85 -35.5 122t-124.5 37q-88 0 -124.5 -37t-36.5 -122v-13z" />
<glyph unicode="&#x154;" horiz-adv-x="1302" d="M131 0v1454h678q375 0 375 -340v-84q0 -96 -17.5 -156.5t-45 -89.5t-77.5 -55q40 -17 67 -36t52.5 -53.5t38 -91t12.5 -134.5v-414h-376v416q0 79 -27 118t-86 39h-229v-573h-365zM479 1565l137 381h328l-252 -381h-213zM496 862h225q110 0 110 137q0 140 -110 140h-225 v-277z" />
<glyph unicode="&#x155;" horiz-adv-x="823" d="M123 0v1077h305l10 -100q60 64 141 94t205 35v-324q-74 9 -100 9q-116 0 -217 -66v-725h-344zM240 1188l137 381h328l-252 -381h-213z" />
<glyph unicode="&#x156;" horiz-adv-x="1302" d="M131 0v1454h678q375 0 375 -340v-84q0 -96 -17.5 -156.5t-45 -89.5t-77.5 -55q40 -17 67 -36t52.5 -53.5t38 -91t12.5 -134.5v-414h-376v416q0 79 -27 118t-86 39h-229v-573h-365zM487 -492l2 418h326v-61q0 -164 -88 -256.5t-240 -100.5zM496 862h225q110 0 110 137 q0 140 -110 140h-225v-277z" />
<glyph unicode="&#x157;" horiz-adv-x="823" d="M123 0v1077h305l10 -100q60 64 141 94t205 35v-324q-74 9 -100 9q-116 0 -217 -66v-725h-344zM129 -492l2 418h326v-61q0 -164 -88 -256.5t-240 -100.5z" />
<glyph unicode="&#x158;" horiz-adv-x="1302" d="M131 0v1454h678q375 0 375 -340v-84q0 -96 -17.5 -156.5t-45 -89.5t-77.5 -55q40 -17 67 -36t52.5 -53.5t38 -91t12.5 -134.5v-414h-376v416q0 79 -27 118t-86 39h-229v-573h-365zM217 1923h258l156 -209l155 209h258l-280 -360h-266zM496 862h225q110 0 110 137 q0 140 -110 140h-225v-277z" />
<glyph unicode="&#x159;" horiz-adv-x="823" d="M-2 1546h258l156 -209l155 209h258l-280 -360h-266zM123 0v1077h305l10 -100q60 64 141 94t205 35v-324q-74 9 -100 9q-116 0 -217 -66v-725h-344z" />
<glyph unicode="&#x15a;" d="M86 942v74q0 89 15 158.5t40 119t66.5 85.5t86.5 57.5t108 34t123 16.5t139 4q206 0 362 -53v-338q-208 45 -381 45q-118 0 -160.5 -24t-42.5 -89q0 -53 17 -77t59 -35q2 0 254 -50q44 -9 72.5 -15.5t67 -19.5t62.5 -28.5t51 -41t42 -57t25 -76.5t10 -100v-120 q0 -83 -16 -148.5t-43.5 -112.5t-72 -81t-93.5 -54.5t-116.5 -32.5t-132.5 -16t-149 -4q-218 0 -366 51v338q205 -43 383 -43q142 0 197 24.5t55 94.5q0 67 -39.5 94t-143.5 39q-190 22 -315 80q-88 40 -126 114.5t-38 186.5zM420 1565l137 381h328l-252 -381h-213z" />
<glyph unicode="&#x15b;" horiz-adv-x="1089" d="M66 700v58q0 54 10.5 98.5t28 78t45.5 59.5t57 44t69.5 31t76 20t83 11t84.5 5t86 1q192 0 371 -45v-268q-226 38 -371 38q-39 0 -55.5 -0.5t-46 -2t-42.5 -6t-28.5 -12.5t-21.5 -21t-6 -31q0 -21 5 -34t18.5 -21t23.5 -11.5t34 -9.5q25 -5 57 -9.5t85 -10t86 -9.5 q30 -4 41.5 -6t44 -8t48.5 -11.5t45 -16.5t45 -23.5t37 -31t31.5 -40.5t18.5 -51.5t8 -63.5v-79q0 -71 -19.5 -127t-49.5 -93t-78 -64t-93.5 -41t-109 -22t-110.5 -10t-111 -2q-194 0 -373 45v281q224 -39 367 -39q134 0 182.5 15.5t48.5 66.5q0 36 -31 49t-98 18 q-98 8 -170 19q-44 8 -68.5 13t-64 16.5t-62 24t-50.5 34t-42.5 47.5t-25 63.5t-10.5 83.5zM373 1188l137 381h328l-252 -381h-213z" />
<glyph unicode="&#x15c;" d="M86 942v74q0 89 15 158.5t40 119t66.5 85.5t86.5 57.5t108 34t123 16.5t139 4q206 0 362 -53v-338q-208 45 -381 45q-118 0 -160.5 -24t-42.5 -89q0 -53 17 -77t59 -35q2 0 254 -50q44 -9 72.5 -15.5t67 -19.5t62.5 -28.5t51 -41t42 -57t25 -76.5t10 -100v-120 q0 -83 -16 -148.5t-43.5 -112.5t-72 -81t-93.5 -54.5t-116.5 -32.5t-132.5 -16t-149 -4q-218 0 -366 51v338q205 -43 383 -43q142 0 197 24.5t55 94.5q0 67 -39.5 94t-143.5 39q-190 22 -315 80q-88 40 -126 114.5t-38 186.5zM176 1563l281 360h266l281 -360h-259l-155 211 l-156 -211h-258z" />
<glyph unicode="&#x15d;" horiz-adv-x="1089" d="M66 700v58q0 54 10.5 98.5t28 78t45.5 59.5t57 44t69.5 31t76 20t83 11t84.5 5t86 1q192 0 371 -45v-268q-226 38 -371 38q-39 0 -55.5 -0.5t-46 -2t-42.5 -6t-28.5 -12.5t-21.5 -21t-6 -31q0 -21 5 -34t18.5 -21t23.5 -11.5t34 -9.5q25 -5 57 -9.5t85 -10t86 -9.5 q30 -4 41.5 -6t44 -8t48.5 -11.5t45 -16.5t45 -23.5t37 -31t31.5 -40.5t18.5 -51.5t8 -63.5v-79q0 -71 -19.5 -127t-49.5 -93t-78 -64t-93.5 -41t-109 -22t-110.5 -10t-111 -2q-194 0 -373 45v281q224 -39 367 -39q134 0 182.5 15.5t48.5 66.5q0 36 -31 49t-98 18 q-98 8 -170 19q-44 8 -68.5 13t-64 16.5t-62 24t-50.5 34t-42.5 47.5t-25 63.5t-10.5 83.5zM131 1186l281 360h266l280 -360h-258l-155 211l-156 -211h-258z" />
<glyph unicode="&#x15e;" d="M86 942v74q0 89 15 158.5t40 119t66.5 85.5t86.5 57.5t108 34t123 16.5t139 4q206 0 362 -53v-338q-208 45 -381 45q-118 0 -160.5 -24t-42.5 -89q0 -53 17 -77t59 -35q2 0 254 -50q44 -9 72.5 -15.5t67 -19.5t62.5 -28.5t51 -41t42 -57t25 -76.5t10 -100v-120 q0 -83 -16 -148.5t-43.5 -112.5t-72 -81t-93.5 -54.5t-116.5 -32.5t-132.5 -16t-149 -4q-218 0 -366 51v338q205 -43 383 -43q142 0 197 24.5t55 94.5q0 67 -39.5 94t-143.5 39q-190 22 -315 80q-88 40 -126 114.5t-38 186.5zM426 -492l2 418h326v-61q0 -164 -88 -256.5 t-240 -100.5z" />
<glyph unicode="&#x15f;" horiz-adv-x="1089" d="M66 700v58q0 54 10.5 98.5t28 78t45.5 59.5t57 44t69.5 31t76 20t83 11t84.5 5t86 1q192 0 371 -45v-268q-226 38 -371 38q-39 0 -55.5 -0.5t-46 -2t-42.5 -6t-28.5 -12.5t-21.5 -21t-6 -31q0 -21 5 -34t18.5 -21t23.5 -11.5t34 -9.5q25 -5 57 -9.5t85 -10t86 -9.5 q30 -4 41.5 -6t44 -8t48.5 -11.5t45 -16.5t45 -23.5t37 -31t31.5 -40.5t18.5 -51.5t8 -63.5v-79q0 -71 -19.5 -127t-49.5 -93t-78 -64t-93.5 -41t-109 -22t-110.5 -10t-111 -2q-194 0 -373 45v281q224 -39 367 -39q134 0 182.5 15.5t48.5 66.5q0 36 -31 49t-98 18 q-98 8 -170 19q-44 8 -68.5 13t-64 16.5t-62 24t-50.5 34t-42.5 47.5t-25 63.5t-10.5 83.5zM381 -492l2 418h326v-61q0 -164 -88 -256.5t-240 -100.5z" />
<glyph unicode="&#x160;" d="M86 942v74q0 89 15 158.5t40 119t66.5 85.5t86.5 57.5t108 34t123 16.5t139 4q206 0 362 -53v-338q-208 45 -381 45q-118 0 -160.5 -24t-42.5 -89q0 -53 17 -77t59 -35q2 0 254 -50q44 -9 72.5 -15.5t67 -19.5t62.5 -28.5t51 -41t42 -57t25 -76.5t10 -100v-120 q0 -83 -16 -148.5t-43.5 -112.5t-72 -81t-93.5 -54.5t-116.5 -32.5t-132.5 -16t-149 -4q-218 0 -366 51v338q205 -43 383 -43q142 0 197 24.5t55 94.5q0 67 -39.5 94t-143.5 39q-190 22 -315 80q-88 40 -126 114.5t-38 186.5zM197 1923h258l155 -209l156 209h258l-281 -360 h-266z" />
<glyph unicode="&#x161;" horiz-adv-x="1089" d="M66 700v58q0 54 10.5 98.5t28 78t45.5 59.5t57 44t69.5 31t76 20t83 11t84.5 5t86 1q192 0 371 -45v-268q-226 38 -371 38q-39 0 -55.5 -0.5t-46 -2t-42.5 -6t-28.5 -12.5t-21.5 -21t-6 -31q0 -21 5 -34t18.5 -21t23.5 -11.5t34 -9.5q25 -5 57 -9.5t85 -10t86 -9.5 q30 -4 41.5 -6t44 -8t48.5 -11.5t45 -16.5t45 -23.5t37 -31t31.5 -40.5t18.5 -51.5t8 -63.5v-79q0 -71 -19.5 -127t-49.5 -93t-78 -64t-93.5 -41t-109 -22t-110.5 -10t-111 -2q-194 0 -373 45v281q224 -39 367 -39q134 0 182.5 15.5t48.5 66.5q0 36 -31 49t-98 18 q-98 8 -170 19q-44 8 -68.5 13t-64 16.5t-62 24t-50.5 34t-42.5 47.5t-25 63.5t-10.5 83.5zM131 1546h258l156 -209l155 209h258l-280 -360h-266z" />
<glyph unicode="&#x162;" horiz-adv-x="1097" d="M31 1133v321h1036v-321h-334v-1133h-375v1133h-327zM377 -492l2 418h326v-61q0 -164 -88 -256.5t-240 -100.5z" />
<glyph unicode="&#x163;" horiz-adv-x="694" d="M18 831v246h117v264h338v-264h191v-246h-191v-499q0 -50 21.5 -70t72.5 -20q56 0 97 10v-266q-70 -23 -197 -23q-164 2 -248 78t-84 238v552h-117zM244 -492l2 418h325v-61q0 -164 -87.5 -256.5t-239.5 -100.5z" />
<glyph unicode="&#x164;" horiz-adv-x="1097" d="M31 1133v321h1036v-321h-334v-1133h-375v1133h-327zM135 1923h258l156 -209l156 209h258l-281 -360h-266z" />
<glyph unicode="&#x165;" horiz-adv-x="1093" d="M18 831v246h117v264h338v-264h191v-246h-191v-499q0 -50 21.5 -70t72.5 -20q56 0 97 10v-266q-70 -23 -197 -23q-164 2 -248 78t-84 238v552h-117zM725 811v662h369v-199q0 -198 -101 -327t-268 -136z" />
<glyph unicode="&#x166;" horiz-adv-x="1097" d="M31 1133v321h1036v-321h-334v-402h154v-270h-154v-461h-375v461h-149v270h149v402h-327z" />
<glyph unicode="&#x167;" horiz-adv-x="694" d="M18 831v246h117v264h338v-264h191v-246h-191v-163h172v-248h-172v-88q0 -50 21.5 -70t72.5 -20q56 0 97 10v-266q-70 -23 -197 -23q-164 2 -248 78t-84 238v141h-94v248h94v163h-117z" />
<glyph unicode="&#x168;" horiz-adv-x="1366" d="M109 494v960h380v-946q0 -109 43.5 -146.5t153.5 -37.5q109 0 154 38t45 146v946h370v-960q0 -149 -26.5 -246t-93 -163t-175.5 -94t-278 -28q-170 0 -279.5 28t-175.5 94t-92 163t-26 246zM315 1528v217q82 94 191 94q76 0 176 -45q116 -53 172 -53q58 0 104.5 25 t92.5 81v-217q-79 -94 -191 -94q-64 0 -178 43q-2 1 -19 9t-20.5 9.5t-18 8t-20 8t-18 6t-19.5 6t-17.5 4t-19.5 3.5t-18 1q-60 0 -106.5 -25t-90.5 -81z" />
<glyph unicode="&#x169;" horiz-adv-x="1196" d="M100 332v745h342v-700q0 -58 33.5 -79.5t124.5 -21.5t124.5 22.5t33.5 78.5v700h338v-745q0 -192 -124.5 -280.5t-371.5 -88.5q-246 0 -373 88.5t-127 280.5zM229 1151v217q82 94 191 94q76 0 176 -45q116 -53 172 -53q58 0 104.5 25t92.5 81v-217q-79 -94 -191 -94 q-64 0 -178 43q-2 1 -19 9t-20.5 9.5t-18 8t-20 8t-18 6t-19.5 6t-17.5 4t-19.5 3.5t-18 1q-60 0 -106.5 -25t-90.5 -81z" />
<glyph unicode="&#x16a;" horiz-adv-x="1366" d="M109 494v960h380v-946q0 -109 43.5 -146.5t153.5 -37.5q109 0 154 38t45 146v946h370v-960q0 -149 -26.5 -246t-93 -163t-175.5 -94t-278 -28q-170 0 -279.5 28t-175.5 94t-92 163t-26 246zM324 1559v229h718v-229h-718z" />
<glyph unicode="&#x16b;" horiz-adv-x="1196" d="M100 332v745h342v-700q0 -58 33.5 -79.5t124.5 -21.5t124.5 22.5t33.5 78.5v700h338v-745q0 -192 -124.5 -280.5t-371.5 -88.5q-246 0 -373 88.5t-127 280.5zM238 1182v229h718v-229h-718z" />
<glyph unicode="&#x16c;" horiz-adv-x="1366" d="M109 494v960h380v-946q0 -109 43.5 -146.5t153.5 -37.5q109 0 154 38t45 146v946h370v-960q0 -149 -26.5 -246t-93 -163t-175.5 -94t-278 -28q-170 0 -279.5 28t-175.5 94t-92 163t-26 246zM322 1915h206q10 -164 156 -164q144 0 154 164h206q0 -88 -30 -159t-81 -114.5 t-115 -66.5t-134 -23t-134 23t-115.5 66.5t-82 114.5t-30.5 159z" />
<glyph unicode="&#x16d;" horiz-adv-x="1196" d="M100 332v745h342v-700q0 -58 33.5 -79.5t124.5 -21.5t124.5 22.5t33.5 78.5v700h338v-745q0 -192 -124.5 -280.5t-371.5 -88.5q-246 0 -373 88.5t-127 280.5zM236 1538h206q10 -164 156 -164q144 0 154 164h206q0 -117 -52.5 -201t-132.5 -122.5t-175 -38.5t-175.5 38.5 t-133.5 122.5t-53 201z" />
<glyph unicode="&#x16e;" horiz-adv-x="1366" d="M109 494v960h380v-946q0 -109 43.5 -146.5t153.5 -37.5q109 0 154 38t45 146v946h370v-960q0 -149 -26.5 -246t-93 -163t-175.5 -94t-278 -28q-170 0 -279.5 28t-175.5 94t-92 163t-26 246zM451 1735q0 211 233 211q121 0 176 -53.5t55 -157.5q0 -106 -54.5 -157.5 t-176.5 -51.5q-233 0 -233 209zM588 1735q0 -93 96 -93q102 0 102 93q0 100 -102 100q-96 0 -96 -100z" />
<glyph unicode="&#x16f;" horiz-adv-x="1196" d="M100 332v745h342v-700q0 -58 33.5 -79.5t124.5 -21.5t124.5 22.5t33.5 78.5v700h338v-745q0 -192 -124.5 -280.5t-371.5 -88.5q-246 0 -373 88.5t-127 280.5zM365 1358q0 211 233 211q121 0 176 -53.5t55 -157.5q0 -106 -54.5 -157.5t-176.5 -51.5q-233 0 -233 209z M502 1358q0 -92 96 -92q102 0 102 92q0 100 -102 100q-96 0 -96 -100z" />
<glyph unicode="&#x170;" horiz-adv-x="1366" d="M109 494v960h380v-946q0 -109 43.5 -146.5t153.5 -37.5q109 0 154 38t45 146v946h370v-960q0 -149 -26.5 -246t-93 -163t-175.5 -94t-278 -28q-170 0 -279.5 28t-175.5 94t-92 163t-26 246zM303 1565l137 381h328l-252 -381h-213zM721 1565l135 381h328l-252 -381h-211z " />
<glyph unicode="&#x171;" horiz-adv-x="1196" d="M100 332v745h342v-700q0 -58 33.5 -79.5t124.5 -21.5t124.5 22.5t33.5 78.5v700h338v-745q0 -192 -124.5 -280.5t-371.5 -88.5q-246 0 -373 88.5t-127 280.5zM219 1188l137 381h328l-252 -381h-213zM637 1188l135 381h328l-252 -381h-211z" />
<glyph unicode="&#x172;" horiz-adv-x="1366" d="M109 494v960h380v-946q0 -109 43.5 -146.5t153.5 -37.5q109 0 154 38t45 146v946h370v-960q0 -120 -19 -202.5t-65.5 -142t-113.5 -98.5t-174 -74q-57 -19 -92.5 -36.5t-49 -35.5t-16 -28.5t-2.5 -28.5v-6q0 -28 26.5 -38.5t79.5 -10.5q71 0 99 12v-286q-37 -11 -144 -11 q-86 0 -149.5 12t-101 31t-60 48.5t-30 58.5t-7.5 66q0 84 58.5 138.5t171.5 94.5l16 6q-170 0 -279.5 28t-175.5 94t-92 163t-26 246z" />
<glyph unicode="&#x173;" horiz-adv-x="1196" d="M100 332v745h342v-700q0 -58 33.5 -79.5t124.5 -21.5t124.5 22.5t33.5 78.5v700h338v-745q0 -63 -15.5 -113t-41.5 -85.5t-70.5 -65.5t-92 -50.5t-116.5 -42.5q-139 -44 -153 -97q-3 -9 -3 -36q0 -28 27 -38.5t80 -10.5q70 0 98 12v-286q-37 -11 -143 -11 q-86 0 -149.5 12t-101 31t-60.5 48.5t-30.5 58.5t-7.5 66q0 84 58.5 138.5t171.5 94.5l18 6q-231 6 -348 94.5t-117 274.5z" />
<glyph unicode="&#x174;" horiz-adv-x="1746" d="M23 1454h389q91 -636 129 -983q57 386 172 983h331q114 -632 166 -983q55 402 156 983h358l-276 -1454h-440q-115 656 -140 874q-5 -29 -19.5 -124t-27 -172t-40 -234t-62.5 -344h-443zM459 1563l280 360h267l280 -360h-258l-156 211l-155 -211h-258z" />
<glyph unicode="&#x175;" horiz-adv-x="1773" d="M23 1077h364q102 -525 135 -747q35 186 172 747h381q111 -464 164 -745q50 267 162 745h350l-274 -1077h-457q-107 454 -139 684q-35 -224 -148 -684h-459zM473 1186l281 360h266l280 -360h-258l-155 211l-156 -211h-258z" />
<glyph unicode="&#x176;" horiz-adv-x="1222" d="M4 1454h389l103 -252q62 -159 108 -295q54 151 123 293l121 254h371l-437 -915v-539h-374v539zM197 1563l280 360h266l281 -360h-258l-156 211l-155 -211h-258z" />
<glyph unicode="&#x177;" horiz-adv-x="1230" d="M18 1077h394q143 -485 190 -692q57 206 236 692h376l-565 -1544h-377l152 418zM201 1186l280 360h267l280 -360h-258l-156 211l-155 -211h-258z" />
<glyph unicode="&#x178;" horiz-adv-x="1222" d="M4 1454h389l103 -252q62 -159 108 -295q54 151 123 293l121 254h371l-437 -915v-539h-374v539zM195 1585v264h344v-264h-344zM684 1585v264h344v-264h-344z" />
<glyph unicode="&#x179;" horiz-adv-x="1116" d="M63 0v356l527 777h-504v321h975v-260l-565 -868h565v-326h-998zM387 1565l137 381h328l-252 -381h-213z" />
<glyph unicode="&#x17a;" horiz-adv-x="1077" d="M63 0v295l496 508h-461v274h910v-241l-504 -551h520v-285h-961zM367 1188l137 381h327l-251 -381h-213z" />
<glyph unicode="&#x17b;" horiz-adv-x="1116" d="M63 0v356l527 777h-504v321h975v-260l-565 -868h565v-326h-998zM414 1585v264h344v-264h-344z" />
<glyph unicode="&#x17c;" horiz-adv-x="1077" d="M63 0v295l496 508h-461v274h910v-241l-504 -551h520v-285h-961zM397 1208v265h344v-265h-344z" />
<glyph unicode="&#x17d;" horiz-adv-x="1116" d="M63 0v356l527 777h-504v321h975v-260l-565 -868h565v-326h-998zM164 1923h258l156 -209l155 209h258l-280 -360h-267z" />
<glyph unicode="&#x17e;" horiz-adv-x="1077" d="M63 0v295l496 508h-461v274h910v-241l-504 -551h520v-285h-961zM145 1546h258l156 -209l156 209h258l-281 -360h-266z" />
<glyph unicode="&#x1e80;" horiz-adv-x="1746" d="M23 1454h389q91 -636 129 -983q57 386 172 983h331q114 -632 166 -983q55 402 156 983h358l-276 -1454h-440q-115 656 -140 874q-5 -29 -19.5 -124t-27 -172t-40 -234t-62.5 -344h-443zM580 1946h329l135 -381h-213z" />
<glyph unicode="&#x1e81;" horiz-adv-x="1773" d="M23 1077h364q102 -525 135 -747q35 186 172 747h381q111 -464 164 -745q50 267 162 745h350l-274 -1077h-457q-107 454 -139 684q-35 -224 -148 -684h-459zM592 1569h330l135 -381h-213z" />
<glyph unicode="&#x1e82;" horiz-adv-x="1746" d="M23 1454h389q91 -636 129 -983q57 386 172 983h331q114 -632 166 -983q55 402 156 983h358l-276 -1454h-440q-115 656 -140 874q-5 -29 -19.5 -124t-27 -172t-40 -234t-62.5 -344h-443zM702 1565l138 381h327l-252 -381h-213z" />
<glyph unicode="&#x1e83;" horiz-adv-x="1773" d="M23 1077h364q102 -525 135 -747q35 186 172 747h381q111 -464 164 -745q50 267 162 745h350l-274 -1077h-457q-107 454 -139 684q-35 -224 -148 -684h-459zM715 1188l137 381h328l-252 -381h-213z" />
<glyph unicode="&#x1e84;" horiz-adv-x="1746" d="M23 1454h389q91 -636 129 -983q57 386 172 983h331q114 -632 166 -983q55 402 156 983h358l-276 -1454h-440q-115 656 -140 874q-5 -29 -19.5 -124t-27 -172t-40 -234t-62.5 -344h-443zM457 1585v264h344v-264h-344zM946 1585v264h344v-264h-344z" />
<glyph unicode="&#x1e85;" horiz-adv-x="1773" d="M23 1077h364q102 -525 135 -747q35 186 172 747h381q111 -464 164 -745q50 267 162 745h350l-274 -1077h-457q-107 454 -139 684q-35 -224 -148 -684h-459zM469 1208v265h344v-265h-344zM958 1208v265h345v-265h-345z" />
<glyph unicode="&#x1ef2;" horiz-adv-x="1222" d="M4 1454h389l103 -252q62 -159 108 -295q54 151 123 293l121 254h371l-437 -915v-539h-374v539zM317 1946h330l135 -381h-213z" />
<glyph unicode="&#x1ef3;" horiz-adv-x="1230" d="M18 1077h394q143 -485 190 -692q57 206 236 692h376l-565 -1544h-377l152 418zM322 1569h329l135 -381h-213z" />
<glyph unicode="&#x2000;" horiz-adv-x="973" />
<glyph unicode="&#x2001;" horiz-adv-x="1946" />
<glyph unicode="&#x2002;" horiz-adv-x="973" />
<glyph unicode="&#x2003;" horiz-adv-x="1946" />
<glyph unicode="&#x2004;" horiz-adv-x="648" />
<glyph unicode="&#x2005;" horiz-adv-x="486" />
<glyph unicode="&#x2006;" horiz-adv-x="324" />
<glyph unicode="&#x2007;" horiz-adv-x="324" />
<glyph unicode="&#x2008;" horiz-adv-x="243" />
<glyph unicode="&#x2009;" horiz-adv-x="389" />
<glyph unicode="&#x200a;" horiz-adv-x="108" />
<glyph unicode="&#x2010;" horiz-adv-x="661" d="M53 539v270h555v-270h-555z" />
<glyph unicode="&#x2011;" horiz-adv-x="661" d="M53 539v270h555v-270h-555z" />
<glyph unicode="&#x2012;" horiz-adv-x="661" d="M53 539v270h555v-270h-555z" />
<glyph unicode="&#x2013;" horiz-adv-x="1101" d="M53 539v270h998v-270h-998z" />
<glyph unicode="&#x2014;" horiz-adv-x="1519" d="M53 539v270h1413v-270h-1413z" />
<glyph unicode="&#x2018;" horiz-adv-x="536" d="M82 1274v199h369v-662q-167 7 -268 136t-101 327z" />
<glyph unicode="&#x2019;" horiz-adv-x="536" d="M84 811v662h369v-199q0 -198 -101 -327t-268 -136z" />
<glyph unicode="&#x201a;" horiz-adv-x="536" d="M82 -332l2 664h369v-201q0 -197 -102 -325.5t-269 -137.5z" />
<glyph unicode="&#x201c;" horiz-adv-x="1073" d="M82 1274v199h369v-662q-167 7 -268 136t-101 327zM618 1274v199h369v-662q-167 7 -268 136t-101 327z" />
<glyph unicode="&#x201d;" horiz-adv-x="1073" d="M84 811v662h369v-199q0 -198 -101 -327t-268 -136zM621 811v662h368v-199q0 -198 -100.5 -327t-267.5 -136z" />
<glyph unicode="&#x201e;" horiz-adv-x="1073" d="M82 -332l2 664h369v-201q0 -197 -102 -325.5t-269 -137.5zM618 -332l3 664h368v-201q0 -197 -102 -325.5t-269 -137.5z" />
<glyph unicode="&#x2020;" horiz-adv-x="1015" d="M100 915v213h273v326h274v-326h268v-213h-268v-915h-274v915h-273z" />
<glyph unicode="&#x2021;" horiz-adv-x="1015" d="M100 326v213h273v376h-273v213h273v326h274v-326h268v-213h-268v-376h268v-213h-268v-326h-274v326h-273z" />
<glyph unicode="&#x2022;" horiz-adv-x="901" d="M100 752q0 153 93 247.5t258 94.5q167 0 258.5 -94t91.5 -248q0 -150 -91.5 -244t-258.5 -94q-164 0 -257.5 94.5t-93.5 243.5z" />
<glyph unicode="&#x2026;" horiz-adv-x="2375" d="M154 0v332h370v-332h-370zM1001 0v332h371v-332h-371zM1849 0v332h371v-332h-371z" />
<glyph unicode="&#x202f;" horiz-adv-x="389" />
<glyph unicode="&#x2030;" horiz-adv-x="2086" d="M102 997v226q0 149 65 209.5t206 60.5q140 0 204 -60.5t64 -209.5v-226q0 -149 -64 -208.5t-204 -59.5q-142 0 -206.5 59.5t-64.5 208.5zM207 -43l846 1542h202l-849 -1542h-199zM287 1001q0 -57 21 -77.5t65 -20.5q43 0 63.5 20.5t20.5 77.5v218q0 57 -20.5 77.5 t-63.5 20.5q-44 0 -65 -20.5t-21 -77.5v-218zM821 229v226q0 149 65 209.5t206 60.5q140 0 204 -60.5t64 -209.5v-226q0 -149 -64 -208.5t-204 -59.5q-142 0 -206.5 59.5t-64.5 208.5zM1006 233q0 -57 21 -77.5t65 -20.5q43 0 63.5 20.5t20.5 77.5v218q0 57 -20.5 77.5 t-63.5 20.5q-44 0 -65 -20.5t-21 -77.5v-218zM1446 229v226q0 149 64.5 209.5t205.5 60.5q140 0 204.5 -60.5t64.5 -209.5v-226q0 -149 -64.5 -208.5t-204.5 -59.5q-141 0 -205.5 59.5t-64.5 208.5zM1630 233q0 -57 21 -77.5t65 -20.5q43 0 63.5 20.5t20.5 77.5v218 q0 57 -20.5 77.5t-63.5 20.5q-44 0 -65 -20.5t-21 -77.5v-218z" />
<glyph unicode="&#x2039;" horiz-adv-x="458" d="M49 557v266l361 281v-258l-211 -156l211 -155v-259z" />
<glyph unicode="&#x203a;" horiz-adv-x="458" d="M49 276v259l209 155l-209 156v258l361 -281v-266z" />
<glyph unicode="&#x2044;" horiz-adv-x="380" d="M-334 -43l846 1542h203l-850 -1542h-199z" />
<glyph unicode="&#x205f;" horiz-adv-x="486" />
<glyph unicode="&#x25fc;" horiz-adv-x="1075" d="M0 0v1075h1075v-1075h-1075z" />
</font>
</defs>
</svg>
