<?xml version="1.0" standalone="no"?>
<!DOCTYPE svg PUBLIC "-//W3C//DTD SVG 1.1//EN" "http://www.w3.org/Graphics/SVG/1.1/DTD/svg11.dtd" >
<svg xmlns="http://www.w3.org/2000/svg">
<metadata></metadata>
<defs>
<font id="board_of_directors_rgbold" horiz-adv-x="1378" >
<font-face units-per-em="2048" ascent="1536" descent="-512" />
<missing-glyph horiz-adv-x="585" />
<glyph unicode="&#x28;C&#x29;" horiz-adv-x="1394" d="M90 289v809q0 158 67.5 223t229.5 65h621q160 0 228.5 -65.5t68.5 -222.5v-809q0 -157 -69 -223t-228 -66h-621q-162 0 -229.5 65.5t-67.5 223.5zM262 266q0 -65 27 -93t88 -28h641q59 0 85.5 28t26.5 93v852q0 65 -26.5 93t-85.5 28h-641q-61 0 -88 -28t-27 -93v-852z M496 545v315q0 61 27.5 89t88.5 28h271v-143h-185q-20 0 -28 -9.5t-8 -31.5v-179q0 -21 8 -30t28 -9h187v-147h-273q-61 0 -88.5 28t-27.5 89z" />
<glyph unicode="&#x28;R&#x29;" horiz-adv-x="1394" d="M90 289v809q0 158 67.5 223t229.5 65h621q160 0 228.5 -65.5t68.5 -222.5v-809q0 -157 -69 -223t-228 -66h-621q-162 0 -229.5 65.5t-67.5 223.5zM262 266q0 -65 27 -93t88 -28h641q59 0 85.5 28t26.5 93v852q0 65 -26.5 93t-85.5 28h-641q-61 0 -88 -28t-27 -93v-852z M449 428v549h385q94 0 94 -92v-121q0 -47 -18 -66t-54 -24q82 -4 82 -70v-176h-150v145q0 16 -9.5 23.5t-35.5 7.5h-86v119h78q27 0 36 9t9 28v59q0 19 -8 27t-27 8h-147v-426h-149z" />
<glyph horiz-adv-x="0" />
<glyph horiz-adv-x="682" />
<glyph horiz-adv-x="585" />
<glyph unicode=" "  horiz-adv-x="585" />
<glyph unicode="&#x09;" horiz-adv-x="585" />
<glyph unicode="&#xa0;" horiz-adv-x="585" />
<glyph unicode="!" horiz-adv-x="557" d="M123 0v309h309v-309h-309zM123 432v954h309v-954h-309z" />
<glyph unicode="&#x22;" horiz-adv-x="917" d="M98 838v632h244v-632h-244zM573 838v632h244v-632h-244z" />
<glyph unicode="#" horiz-adv-x="1140" d="M55 369v168h176l60 317h-170v170h201l67 362h213l-67 -362h210l66 362h217l-67 -362h122v-170h-151l-60 -317h148v-168h-178l-68 -369h-215l68 369h-211l-68 -369h-213l68 369h-148zM446 537h211l58 317h-209z" />
<glyph unicode="$" horiz-adv-x="1081" d="M102 195v245h537q68 0 68 68v70q0 57 -58 57h-385q-162 0 -162 147v269q0 94 44 137t151 43h168v155h242v-155h278v-225h-532q-37 0 -52.5 -16.5t-15.5 -51.5v-53q0 -58 57 -58h392q80 0 119.5 -39t39.5 -106v-307q0 -94 -44 -137t-148 -43h-94v-195h-242v195h-363z" />
<glyph unicode="%" horiz-adv-x="1589" d="M88 836v450q0 63 28 92t95 29h334q67 0 95 -29t28 -92v-450q0 -63 -28 -92t-95 -29h-334q-67 0 -95 29t-28 92zM293 0v137q0 40 7.5 61t35.5 56l735 940q16 21 16 55v137h195v-137q0 -40 -7.5 -61t-35.5 -58l-735 -937q-19 -24 -19 -56v-137h-192zM303 940q0 -29 27 -29 h96q27 0 27 29v250q0 29 -27 29h-96q-27 0 -27 -29v-250zM924 100v451q0 63 28 92t95 29h333q67 0 95 -29t28 -92v-451q0 -63 -28 -91.5t-95 -28.5h-333q-67 0 -95 28.5t-28 91.5zM1139 205q0 -29 26 -29h97q26 0 26 29v250q0 28 -26 28h-97q-26 0 -26 -28v-250z" />
<glyph unicode="&#x26;" horiz-adv-x="1320" d="M92 236v364q0 138 166 152q-158 17 -158 174v225q0 120 58.5 177.5t187.5 57.5h428v-258h-248q-84 0 -84 -86v-131q0 -67 74 -67h768v-240h-119v-604h-835q-128 0 -183 57.5t-55 178.5zM440 393q0 -45 18.5 -65.5t63.5 -20.5h352v297h-358q-76 0 -76 -61v-150z" />
<glyph unicode="'" horiz-adv-x="442" d="M98 838v632h244v-632h-244z" />
<glyph unicode="(" horiz-adv-x="774" d="M186 240v901q0 520 529 536v-190q-164 -14 -232.5 -90.5t-68.5 -255.5v-901q0 -179 68.5 -255.5t232.5 -90.5v-191q-529 13 -529 537z" />
<glyph unicode=")" horiz-adv-x="774" d="M59 -106q163 14 231 89.5t68 254.5v903q0 179 -68.5 255.5t-230.5 90.5v190q179 -5 293 -64.5t174 -189.5t60 -338v-794q0 -207 -60 -336t-174 -188t-293 -64v191z" />
<glyph unicode="*" horiz-adv-x="1097" d="M33 1022l59 186l373 -137l-14 397h194l-12 -395l373 135l59 -186l-379 -109l244 -313l-158 -115l-223 330l-223 -332l-156 117l244 311z" />
<glyph unicode="+" horiz-adv-x="1286" d="M100 604v221h430v430h224v-430h432v-221h-432v-434h-224v434h-430z" />
<glyph unicode="," horiz-adv-x="532" d="M51 -160l53 168q17 58 17 94v207h309v-172q0 -51 -33 -127l-71 -170h-275z" />
<glyph unicode="-" horiz-adv-x="772" d="M51 602v201h668v-201h-668z" />
<glyph unicode="." horiz-adv-x="514" d="M102 0v309h310v-309h-310z" />
<glyph unicode="/" horiz-adv-x="800" d="M53 -59v321q0 31 6 50t23 50l418 742q10 16 12 26t2 33v307h231v-323q0 -33 -5 -52t-21 -48l-418 -742q-16 -29 -16 -59v-305h-232z" />
<glyph unicode="0" horiz-adv-x="1323" d="M92 242v903q0 126 54.5 183.5t185.5 57.5h659q131 0 185.5 -57.5t54.5 -183.5v-903q0 -126 -54.5 -184t-185.5 -58h-659q-131 0 -185.5 58t-54.5 184zM440 408q0 -46 18.5 -67.5t63.5 -21.5h279q43 0 61.5 21.5t18.5 67.5v581q0 45 -18.5 66.5t-61.5 21.5h-279 q-45 0 -63.5 -21t-18.5 -67v-581z" />
<glyph unicode="1" horiz-adv-x="663" d="M33 1092v294h334q108 0 152 -47.5t44 -154.5v-1184h-346v1018q0 38 -16.5 56t-53.5 18h-114z" />
<glyph unicode="2" horiz-adv-x="1265" d="M98 242v397q0 94 49.5 145.5t149.5 51.5h453q67 0 67 71v97q0 45 -18.5 66.5t-61.5 21.5h-626v294h817q132 0 185.5 -57t53.5 -184v-371q0 -94 -49 -145t-149 -51h-455q-68 0 -68 -74v-109q0 -47 18.5 -67.5t63.5 -20.5h639v-307h-829q-132 0 -186 58t-54 184z" />
<glyph unicode="3" horiz-adv-x="1183" d="M68 0v307h596q43 0 61 20.5t18 65.5v133q0 60 -73 60h-580v237h580q71 0 71 70v113q0 86 -84 86h-583v294h762q130 0 187.5 -57t57.5 -178v-260q0 -158 -157 -174q168 -14 168 -152v-329q0 -121 -55.5 -178.5t-184.5 -57.5h-784z" />
<glyph unicode="4" horiz-adv-x="1306" d="M55 264v185q0 70 9.5 104t44.5 78l604 755h491v-1386h-340v264h-809zM432 543h432v542l-422 -507q-10 -10 -10 -35z" />
<glyph unicode="5" horiz-adv-x="1269" d="M102 0v307h639q44 0 62 20.5t18 67.5v109q0 74 -67 74h-453q-100 0 -149.5 51.5t-49.5 144.5v612h1055v-294h-706v-185q0 -71 67 -71h455q100 0 149 -51.5t49 -145.5v-397q0 -127 -53.5 -184.5t-185.5 -57.5h-830z" />
<glyph unicode="6" horiz-adv-x="1269" d="M92 242v903q0 126 54 183.5t186 57.5h809v-294h-633q-45 0 -63.5 -21t-18.5 -67v-156h553q197 0 197 -197v-409q0 -127 -53.5 -184.5t-186.5 -57.5h-604q-132 0 -186 58t-54 184zM426 371q0 -46 18.5 -67t63.5 -21h260q45 0 63.5 21t18.5 67v170q0 71 -68 71h-356v-241z " />
<glyph unicode="7" horiz-adv-x="1132" d="M53 1092v294h1012v-180q0 -62 -15 -106.5t-59 -118.5l-305 -504q-15 -27 -19.5 -42.5t-4.5 -47.5v-387h-351v399q0 61 9 91.5t40 82.5l291 474q8 16 8 45h-606z" />
<glyph unicode="8" horiz-adv-x="1337" d="M92 236v329q0 138 166 152q-158 17 -158 174v260q0 120 58.5 177.5t187.5 57.5h643q130 0 188 -57.5t58 -177.5v-260q0 -158 -158 -174q168 -14 168 -152v-329q0 -122 -55 -179t-184 -57h-676q-128 0 -183 57.5t-55 178.5zM432 356q0 -44 18.5 -65t63.5 -21h309 q43 0 61.5 21t18.5 65v181q0 61 -74 61h-321q-76 0 -76 -61v-181zM434 881q0 -68 74 -68h321q72 0 72 68v161q0 86 -84 86h-299q-84 0 -84 -86v-161z" />
<glyph unicode="9" horiz-adv-x="1275" d="M98 754v391q0 126 54 183.5t186 57.5h604q133 0 186.5 -57t53.5 -184v-903q0 -127 -53.5 -184.5t-186.5 -57.5h-809v307h635q44 0 62 20.5t18 67.5v162h-551q-100 0 -149.5 51t-49.5 146zM424 864q0 -71 70 -71h354v237q0 45 -18.5 65.5t-61.5 20.5h-260 q-45 0 -64.5 -20.5t-19.5 -65.5v-166z" />
<glyph unicode=":" horiz-adv-x="540" d="M115 0v309h309v-309h-309zM115 729v309h309v-309h-309z" />
<glyph unicode=";" horiz-adv-x="542" d="M47 -160l53 168q17 58 17 94v207h309v-172q0 -51 -33 -127l-71 -170h-275zM117 729v309h309v-309h-309z" />
<glyph unicode="&#x3c;" horiz-adv-x="1286" d="M100 596v162l1086 444v-241l-703 -283l703 -283v-239z" />
<glyph unicode="=" horiz-adv-x="1286" d="M100 362v220h1086v-220h-1086zM100 848v221h1086v-221h-1086z" />
<glyph unicode="&#x3e;" horiz-adv-x="1286" d="M100 156v239l703 283l-703 283v241l1086 -444v-162z" />
<glyph unicode="?" horiz-adv-x="1069" d="M76 1092v294h686q133 0 188.5 -57.5t55.5 -183.5v-297q0 -250 -199 -250h-293q-68 0 -68 -74v-92h-307v213q0 94 49.5 145.5t149.5 51.5h254q70 0 70 71v91q0 88 -84 88h-502zM137 0v309h309v-309h-309z" />
<glyph unicode="@" horiz-adv-x="1271" d="M92 -164v1204q0 99 40 143t140 44h727q99 0 140 -44t41 -143v-772q0 -99 -40 -142.5t-141 -43.5h-333q-101 0 -142 43.5t-41 142.5v387q0 98 44.5 142.5t138.5 44.5h245v-193h-147q-32 0 -47 -16t-15 -51v-240q0 -36 14 -52t48 -16h145q33 0 47.5 16t14.5 52v625 q0 36 -14.5 51.5t-47.5 15.5h-524q-34 0 -47.5 -15.5t-13.5 -51.5v-1000q0 -37 13.5 -53t47.5 -16h774v-248h-887q-100 0 -140 43.5t-40 142.5z" />
<glyph unicode="A" d="M80 0v606q0 53 9 86t34 70l409 624h312l409 -624q25 -37 34 -70t9 -86v-606h-370v301h-492v-301h-354zM434 547h492v35q0 29 -4 43.5t-17 36.5l-225 335l-225 -335q-13 -22 -17 -36.5t-4 -43.5v-35z" />
<glyph unicode="B" horiz-adv-x="1425" d="M102 0v1386h967q129 0 185.5 -57t56.5 -178v-260q0 -84 -37 -125t-111 -49q166 -14 166 -152v-329q0 -122 -54.5 -179t-184.5 -57h-988zM475 313h406q43 0 61.5 21t18.5 65v138q0 61 -74 61h-355v213h347q71 0 71 70v118q0 86 -84 86h-391v-772z" />
<glyph unicode="C" horiz-adv-x="1132" d="M92 242v903q0 126 54.5 183.5t185.5 57.5h729v-323h-520q-45 0 -64.5 -21.5t-19.5 -66.5v-553q0 -45 19.5 -66.5t64.5 -21.5h524v-334h-733q-131 0 -185.5 58t-54.5 184z" />
<glyph unicode="D" horiz-adv-x="1380" d="M102 0v1386h816q185 0 277.5 -90t92.5 -264v-678q0 -174 -92.5 -264t-277.5 -90h-816zM465 307h315q138 0 138 139v492q0 68 -35.5 103.5t-102.5 35.5h-315v-770z" />
<glyph unicode="E" horiz-adv-x="1218" d="M92 242v903q0 126 54.5 183.5t185.5 57.5h784v-309h-551q-45 0 -63.5 -21t-18.5 -67v-162h629v-243h-629v-176q0 -46 18.5 -67.5t63.5 -21.5h551v-319h-784q-131 0 -185.5 58t-54.5 184z" />
<glyph unicode="F" horiz-adv-x="1110" d="M102 0v1145q0 126 54.5 183.5t185.5 57.5h707v-323h-484q-45 0 -63.5 -21t-18.5 -67v-191h561v-266h-561v-518h-381z" />
<glyph unicode="G" horiz-adv-x="1320" d="M92 242v903q0 126 54.5 183.5t185.5 57.5h878v-323h-665q-45 0 -63.5 -20.5t-18.5 -65.5v-582q0 -47 18.5 -67.5t63.5 -20.5h356v453h324v-760h-893q-131 0 -185.5 58t-54.5 184z" />
<glyph unicode="H" horiz-adv-x="1435" d="M102 0v1386h371v-532h488v532h370v-1386h-370v555h-488v-555h-371z" />
<glyph unicode="I" horiz-adv-x="587" d="M106 0v1386h373v-1386h-373z" />
<glyph unicode="J" horiz-adv-x="927" d="M45 0v334h332q45 0 63.5 21t18.5 67v964h368v-1144q0 -127 -53.5 -184.5t-183.5 -57.5h-545z" />
<glyph unicode="K" horiz-adv-x="1429" d="M102 0v1386h369v-604l436 539q23 26 23 65h416q0 -37 -6 -60t-29 -48l-467 -533l530 -645q29 -36 29 -100h-440q0 35 -15 55l-477 623v-678h-369z" />
<glyph unicode="L" horiz-adv-x="1099" d="M98 242v1144h371v-964q0 -46 18.5 -67t63.5 -21h500v-334h-713q-131 0 -185.5 58t-54.5 184z" />
<glyph unicode="M" horiz-adv-x="1638" d="M98 0v1386h246q69 0 102.5 -23t65.5 -87l305 -602l318 602q33 63 68.5 86.5t107.5 23.5h227v-1386h-346v768l-240 -487q-22 -45 -80 -45h-108q-30 0 -46 10t-28 35l-246 487v-768h-346z" />
<glyph unicode="N" horiz-adv-x="1435" d="M100 0v1386h228q74 0 110 -18.5t76 -71.5l467 -628v718h352v-1386h-164q-51 0 -79.5 13t-55.5 48l-585 748v-809h-349z" />
<glyph unicode="O" d="M92 242v903q0 126 54.5 183.5t185.5 57.5h715q131 0 185 -57.5t54 -183.5v-903q0 -126 -54.5 -184t-184.5 -58h-715q-131 0 -185.5 58t-54.5 184zM455 406q0 -45 19.5 -67t62.5 -22h305q43 0 61.5 21.5t18.5 67.5v587q0 45 -18.5 65.5t-61.5 20.5h-305q-44 0 -63 -20.5 t-19 -65.5v-587z" />
<glyph unicode="P" horiz-adv-x="1359" d="M102 0v1386h949q131 0 185 -57.5t54 -183.5v-572q0 -126 -54 -183.5t-185 -57.5h-519v289h318q43 0 61.5 21.5t18.5 66.5v280q0 45 -18.5 66.5t-61.5 21.5h-375v-1077h-373z" />
<glyph unicode="Q" d="M92 242v903q0 126 54.5 183.5t185.5 57.5h715q131 0 185 -57.5t54 -183.5v-903q0 -126 -54.5 -184t-184.5 -58h-134l33 -143h-274l-31 143h-309q-131 0 -185.5 58t-54.5 184zM455 406q0 -45 19.5 -67t62.5 -22h34l-22 105h268l23 -105q46 0 64 21.5t18 67.5v587 q0 45 -18.5 65.5t-61.5 20.5h-305q-44 0 -63 -20.5t-19 -65.5v-587z" />
<glyph unicode="R" horiz-adv-x="1425" d="M102 0v1386h961q131 0 187.5 -57t56.5 -178v-324q0 -190 -174 -209q196 -11 196 -167v-451h-373v403q0 62 -73 62h-351v264h334q68 0 68 68v194q0 86 -84 86h-377v-1077h-371z" />
<glyph unicode="S" horiz-adv-x="1259" d="M94 0v307h631q44 0 62 20.5t18 67.5v107q0 71 -68 71h-444q-100 0 -149.5 51.5t-49.5 145.5v375q0 126 54 183.5t186 57.5h819v-294h-616q-45 0 -63.5 -21t-18.5 -67v-95q0 -71 67 -71h447q100 0 149 -51.5t49 -145.5v-399q0 -127 -53.5 -184.5t-185.5 -57.5h-834z" />
<glyph unicode="T" horiz-adv-x="1075" d="M35 1077v309h1003v-309h-315v-1077h-369v1077h-319z" />
<glyph unicode="U" d="M98 242v1144h371v-974q0 -45 19.5 -66.5t62.5 -21.5h291q45 0 63.5 21t18.5 67v974h356v-1144q0 -126 -55.5 -184t-184.5 -58h-702q-131 0 -185.5 58t-54.5 184z" />
<glyph unicode="V" d="M80 778v608h375v-585q0 -44 20 -78l221 -340l222 340q13 19 15.5 33t2.5 45v585h360v-608q0 -52 -9 -84t-34 -69l-407 -625h-314l-409 625q-24 38 -33.5 70t-9.5 83z" />
<glyph unicode="W" horiz-adv-x="1935" d="M98 242v1144h359v-978q0 -46 18.5 -67.5t63.5 -21.5h266v1067h342v-1067h266q43 0 62.5 22t19.5 67v978h342v-1144q0 -126 -55.5 -184t-184.5 -58h-1259q-131 0 -185.5 58t-54.5 184z" />
<glyph unicode="X" horiz-adv-x="1421" d="M25 0q0 41 6.5 66.5t25.5 54.5l381 618l-340 523q-19 29 -25.5 55.5t-6.5 68.5h401q0 -41 25 -81l243 -394l236 389q26 43 26 86h379q0 -41 -6.5 -67t-26.5 -57l-350 -553l369 -588q33 -50 33 -121h-406q0 37 -24 78l-269 440l-264 -440q-22 -38 -22 -78h-385z" />
<glyph unicode="Y" horiz-adv-x="1333" d="M57 1075v311h375v-313q0 -49 29 -86l213 -272l213 270q28 38 28 88v313h359v-311q0 -86 -60 -166l-360 -489v-420h-373v418l-368 491q-32 40 -44 77.5t-12 88.5z" />
<glyph unicode="Z" horiz-adv-x="1296" d="M88 0v211q0 49 13 83.5t44 70.5l621 706h-660v315h1102v-215q0 -43 -10.5 -70t-42.5 -65l-590 -710h643v-326h-1120z" />
<glyph unicode="[" horiz-adv-x="626" d="M141 -297v1974h426v-182h-198v-1604h198v-188h-426z" />
<glyph unicode="\" horiz-adv-x="800" d="M53 1147v323h232v-307q0 -28 16 -59l418 -742q16 -29 21 -48t5 -52v-321h-231v305q0 36 -14 59l-418 742q-17 31 -23 50t-6 50z" />
<glyph unicode="]" horiz-adv-x="626" d="M59 -109h201v1604h-201v182h426v-1974h-426v188z" />
<glyph unicode="^" horiz-adv-x="1083" d="M78 657v99q0 60 10 96.5t39 77.5l324 456h178l323 -452q29 -41 40.5 -75.5t11.5 -84.5v-117h-277v103q0 26 -3 38t-15 29l-172 244l-170 -240q-21 -35 -21 -71v-103h-268z" />
<glyph unicode="_" horiz-adv-x="1243" d="M0 -133h1247v-211h-1247v211z" />
<glyph unicode="`" horiz-adv-x="970" d="M100 1415v238l770 -279v-182z" />
<glyph unicode="a" horiz-adv-x="1222" d="M98 195v251q0 117 36 158t136 41h500v-182h-332q-35 0 -48 -16t-13 -58v-55q0 -38 14.5 -55t48.5 -17h320q38 0 53.5 17.5t15.5 56.5v387q0 37 -15.5 55.5t-53.5 18.5h-645v239h817q110 0 153 -47.5t43 -154.5v-631q0 -108 -43.5 -155.5t-152.5 -47.5h-653 q-98 0 -139.5 47.5t-41.5 147.5z" />
<glyph unicode="b" horiz-adv-x="1183" d="M98 203v1267h308v-1120q0 -41 15 -58.5t52 -17.5h244q37 0 52 17.5t15 58.5v348q0 41 -15.5 58.5t-51.5 17.5h-254v262h430q101 0 150 -49t49 -153v-631q0 -107 -44.5 -155t-154.5 -48h-596q-111 0 -155 48t-44 155z" />
<glyph unicode="c" horiz-adv-x="993" d="M92 203v631q0 107 44.5 154.5t154.5 47.5h624v-266h-448q-37 0 -52.5 -17.5t-15.5 -56.5v-344q0 -39 15 -56t53 -17h448v-279h-624q-110 0 -154.5 48t-44.5 155z" />
<glyph unicode="d" horiz-adv-x="1189" d="M92 203v631q0 107 48.5 154.5t150.5 47.5h428v-262h-252q-35 0 -51.5 -18t-16.5 -58v-348q0 -41 15 -58.5t53 -17.5h244q38 0 53.5 18t15.5 58v1120h305v-1267q0 -108 -43.5 -155.5t-152.5 -47.5h-598q-110 0 -154.5 48t-44.5 155z" />
<glyph unicode="e" horiz-adv-x="1204" d="M84 203v631q0 107 44 154.5t155 47.5h651q99 0 139.5 -46.5t40.5 -147.5v-219q0 -117 -36 -158t-136 -41h-502v180h334q34 0 47 16.5t13 57.5v41q0 38 -14.5 55t-49.5 17h-319q-37 0 -52.5 -17.5t-15.5 -56.5v-385q0 -39 15.5 -57.5t52.5 -18.5h645v-256h-813 q-111 0 -155 48t-44 155z" />
<glyph unicode="f" horiz-adv-x="727" d="M39 803v233h98v232q0 107 44.5 154.5t154.5 47.5h352v-221h-176q-36 0 -52 -18t-16 -57v-138h234v-233h-234v-803h-307v803h-98z" />
<glyph unicode="g" horiz-adv-x="1157" d="M80 289v545q0 107 44.5 154.5t154.5 47.5h598q110 0 153 -47.5t43 -154.5v-981q0 -107 -44 -155t-152 -48h-572v268h393q38 0 54 17.5t16 56.5v706q0 39 -16.5 57.5t-53.5 18.5h-243q-37 0 -52.5 -18.5t-15.5 -57.5v-290q0 -39 15.5 -56.5t52.5 -17.5h252v-248h-428 q-110 0 -154.5 48t-44.5 155z" />
<glyph unicode="h" horiz-adv-x="1196" d="M102 0v1470h308v-434h489q101 0 149 -47.5t48 -154.5v-834h-305v698q0 41 -17 58.5t-53 17.5h-311v-774h-308z" />
<glyph unicode="i" horiz-adv-x="522" d="M106 1159v311h310v-311h-310zM109 0v1036h305v-1036h-305z" />
<glyph unicode="j" horiz-adv-x="559" d="M-43 -350l152 325q18 37 23 66t5 88v907h307v-921q0 -77 -8 -117t-35 -98l-114 -250h-330zM135 1159v311h309v-311h-309z" />
<glyph unicode="k" horiz-adv-x="1185" d="M102 0v1470h308v-901l348 410q16 18 16 57h359q0 -33 -9 -54t-34 -48l-363 -389l399 -453q19 -22 25 -40t6 -52h-373q0 37 -14 53l-360 445v-498h-308z" />
<glyph unicode="l" horiz-adv-x="512" d="M102 0v1470h308v-1470h-308z" />
<glyph unicode="m" horiz-adv-x="1662" d="M98 0v834q0 108 48 155t151 47h1067q199 0 199 -202v-834h-299v698q0 76 -70 76h-223v-774h-281v774h-223q-70 0 -70 -76v-698h-299z" />
<glyph unicode="n" horiz-adv-x="1189" d="M98 0v834q0 107 48.5 154.5t150.5 47.5h596q197 0 197 -202v-834h-306v698q0 76 -69 76h-242q-35 0 -51 -18t-16 -58v-698h-308z" />
<glyph unicode="o" horiz-adv-x="1179" d="M92 203v631q0 107 44.5 154.5t154.5 47.5h598q110 0 153 -47.5t43 -154.5v-631q0 -108 -43.5 -155.5t-152.5 -47.5h-598q-110 0 -154.5 48t-44.5 155zM399 348q0 -39 15.5 -57.5t52.5 -18.5h244q37 0 53 18.5t16 57.5v350q0 39 -16 57.5t-53 18.5h-244q-37 0 -52.5 -18.5 t-15.5 -57.5v-350z" />
<glyph unicode="p" horiz-adv-x="1179" d="M98 -350v1184q0 107 44 154.5t155 47.5h596q110 0 154.5 -47.5t44.5 -154.5v-631q0 -104 -47.5 -153.5t-151.5 -49.5h-430v272h254q67 0 67 76v350q0 40 -15 58t-52 18h-244q-37 0 -52 -18t-15 -58v-1048h-308z" />
<glyph unicode="q" horiz-adv-x="1185" d="M92 203v631q0 107 44.5 154.5t154.5 47.5h598q110 0 153 -47.5t43 -154.5v-1184h-305v1048q0 39 -16 57.5t-53 18.5h-244q-37 0 -52.5 -18.5t-15.5 -57.5v-350q0 -39 16 -57.5t52 -18.5h252v-272h-428q-104 0 -151.5 50t-47.5 153z" />
<glyph unicode="r" horiz-adv-x="811" d="M98 0v834q0 107 48.5 154.5t150.5 47.5h463v-266h-287q-35 0 -51 -17t-16 -57v-696h-308z" />
<glyph unicode="s" horiz-adv-x="1091" d="M98 0v256h516q38 0 54 16t16 50v51q0 55 -57 55h-367q-162 0 -162 147v281q0 94 44 137t151 43h688v-245h-516q-37 0 -52.5 -16.5t-15.5 -51.5v-51q0 -56 56 -56h376q162 0 162 -145v-291q0 -94 -44.5 -137t-149.5 -43h-699z" />
<glyph unicode="t" horiz-adv-x="727" d="M39 803v233h98v273h307v-273h232v-233h-232v-492q0 -37 16 -55t52 -18h156v-238h-332q-110 0 -154.5 48t-44.5 155v600h-98z" />
<glyph unicode="u" horiz-adv-x="1185" d="M98 203v833h310v-688q0 -39 15.5 -56.5t53.5 -17.5h242q36 0 51.5 17.5t15.5 56.5v688h299v-833q0 -108 -43.5 -155.5t-154.5 -47.5h-590q-110 0 -154.5 48t-44.5 155z" />
<glyph unicode="v" horiz-adv-x="1222" d="M80 612v424h319v-418q0 -27 7 -43.5t24 -39.5l180 -226l178 226q18 21 24.5 38t6.5 45v418h324v-424q0 -61 -13 -95t-51 -83l-329 -434h-277l-332 434q-37 47 -49 81.5t-12 96.5z" />
<glyph unicode="w" horiz-adv-x="1662" d="M98 203v833h293v-694q0 -40 16.5 -57t53.5 -17h229v768h283v-768h229q68 0 68 74v694h293v-833q0 -108 -47.5 -155.5t-149.5 -47.5h-1069q-103 0 -151 47.5t-48 155.5z" />
<glyph unicode="x" horiz-adv-x="1169" d="M25 0q0 32 4.5 50.5t21.5 43.5l307 455l-266 389q-29 42 -29 98h340q0 -33 17 -57l184 -295l184 293q17 28 17 59h323q0 -56 -26 -96l-283 -410l295 -438q27 -42 27 -92h-346q0 25 -17 55l-203 326l-204 -320q-17 -30 -17 -61h-329z" />
<glyph unicode="y" horiz-adv-x="1226" d="M80 612v424h323v-424q0 -41 21 -67l190 -240l189 240q20 25 20 67v424h322v-424q0 -61 -13 -95t-51 -83l-317 -409v-375h-307v377l-316 407q-37 50 -49 83t-12 95z" />
<glyph unicode="z" horiz-adv-x="1112" d="M90 0v158q0 91 60 151l477 471h-531v256h926v-164q0 -37 -14 -63.5t-47 -60.5l-461 -482h522v-266h-932z" />
<glyph unicode="{" horiz-adv-x="739" d="M84 614v150h29q42 0 66 28.5t24 75.5v349q0 235 115 345t362 115v-190q-129 -4 -188.5 -70.5t-59.5 -199.5v-349q0 -84 -26.5 -123t-83.5 -55q57 -16 83.5 -56t26.5 -124v-348q0 -132 59.5 -198t188.5 -70v-191q-247 3 -362 113t-115 346v348q0 48 -24 76t-66 28h-29z " />
<glyph unicode="|" horiz-adv-x="520" d="M145 -297v1974h228v-1974h-228z" />
<glyph unicode="}" horiz-adv-x="743" d="M59 -106q128 4 188 70t60 196v295q0 200 109 235q-60 17 -84.5 63t-24.5 142v322q0 132 -60 199t-188 71v190q254 -4 365 -120.5t111 -366.5v-322q0 -48 23 -77t65 -29h30v-148h-30q-41 0 -64.5 -28t-23.5 -76v-322q0 -250 -111 -366t-365 -119v191z" />
<glyph unicode="~" horiz-adv-x="1286" d="M100 561v242l248 76q27 8 51 8q18 0 39 -6l400 -105q20 -4 26 -4q7 0 25 6l295 88v-241l-248 -74q-30 -10 -49 -10q-18 0 -39 6l-399 106q-20 4 -25 4q-9 0 -27 -6z" />
<glyph unicode="&#xa1;" horiz-adv-x="557" d="M123 0v954h309v-954h-309zM123 1077v309h309v-309h-309z" />
<glyph unicode="&#xa2;" horiz-adv-x="993" d="M92 408v630q0 107 44.5 155t154.5 48h166v145h241v-145h217v-278h-448q-37 0 -52.5 -17.5t-15.5 -56.5v-322q0 -40 15 -57.5t53 -17.5h448v-287h-217v-205h-241v205h-166q-110 0 -154.5 48t-44.5 155z" />
<glyph unicode="&#xa3;" horiz-adv-x="1191" d="M68 0v307h194v311h-194v183h194v383q0 107 43.5 154.5t153.5 47.5h631v-294h-412q-36 0 -52 -17.5t-16 -56.5v-217h467v-183h-467v-311h498v-307h-1040z" />
<glyph unicode="&#xa4;" horiz-adv-x="1142" d="M100 317l207 207v353l-207 204l88 93l205 -207h352l203 207l92 -93l-206 -204v-353l206 -207q-78 -78 -92 -90l-203 209h-352l-205 -209zM422 551h295v299h-295v-299z" />
<glyph unicode="&#xa5;" horiz-adv-x="1323" d="M102 176v158h385v117h-385v157h383l-342 496q-24 34 -32.5 63t-8.5 74v145h353v-149q0 -44 20 -74l193 -297l192 297q23 39 23 74v149h336v-145q0 -76 -41 -137l-342 -496h383v-157h-383v-117h383v-158h-383v-176h-349v176h-385z" />
<glyph unicode="&#xa6;" horiz-adv-x="520" d="M145 -297v807h228v-807h-228zM145 870v807h228v-807h-228z" />
<glyph unicode="&#xa7;" horiz-adv-x="1210" d="M102 193v991q0 107 44.5 154.5t154.5 47.5h797v-243h-647q-37 0 -53.5 -18.5t-16.5 -57.5v-178h528q108 0 152.5 -48t44.5 -155v-1008q0 -107 -44.5 -154.5t-152.5 -47.5h-788v254h639q36 0 51.5 18t15.5 57v185h-526q-110 0 -154.5 48t-44.5 155zM381 322 q0 -39 16.5 -57.5t53.5 -18.5h376v323q0 39 -15.5 57.5t-51.5 18.5h-379v-323z" />
<glyph unicode="&#xa8;" horiz-adv-x="1138" d="M100 1227v311h324v-311h-324zM715 1227v311h323v-311h-323z" />
<glyph unicode="&#xaa;" horiz-adv-x="800" d="M113 721v139q0 64 20 86.5t76 22.5h244v-103h-127q-13 0 -18 -5t-5 -19v-27q0 -27 23 -27h135q24 0 24 27v193q0 26 -24 26h-338v150h455q62 0 86 -26t24 -85v-348q0 -59 -24 -85t-86 -26h-365q-55 0 -77.5 25.5t-22.5 81.5z" />
<glyph unicode="&#xab;" horiz-adv-x="1257" d="M49 653l406 459l161 -145l-297 -314l297 -315l-161 -148zM637 653l405 459l162 -145l-297 -314l297 -315l-162 -148z" />
<glyph unicode="&#xac;" horiz-adv-x="1286" d="M100 639v223h1086v-708h-223v485h-863z" />
<glyph unicode="&#xad;" horiz-adv-x="772" d="M51 602v201h668v-201h-668z" />
<glyph unicode="&#xaf;" horiz-adv-x="1163" d="M100 1298v226h961v-226h-961z" />
<glyph unicode="&#xb0;" horiz-adv-x="753" d="M100 1069v277q0 67 27.5 95.5t95.5 28.5h303q71 0 99 -28.5t28 -95.5v-277q0 -67 -28 -96t-99 -29h-303q-68 0 -95.5 29t-27.5 96zM229 1106q0 -24 9 -33.5t32 -9.5h209q23 0 32 9.5t9 33.5v209q0 24 -9 33.5t-32 9.5h-209q-23 0 -32 -9.5t-9 -33.5v-209z" />
<glyph unicode="&#xb1;" horiz-adv-x="1286" d="M100 47h1086v-221h-1086v221zM100 604v221h430v430h224v-430h432v-221h-432v-434h-224v434h-430z" />
<glyph unicode="&#xb2;" horiz-adv-x="698" d="M78 836v206q0 99 100 99h205q23 0 23 24v33q0 29 -27 29h-295v180h416q66 0 93.5 -29t27.5 -92v-194q0 -99 -101 -99h-207q-20 0 -20 -24v-37q0 -29 24 -29h304v-188h-422q-67 0 -94 28.5t-27 92.5z" />
<glyph unicode="&#xb3;" horiz-adv-x="657" d="M61 715v188h281q25 0 25 27v53q0 18 -23 18h-270v129h270q23 0 23 23v47q0 27 -27 27h-274v180h387q66 0 95.5 -28.5t29.5 -88.5v-131q0 -79 -80 -86q84 -7 84 -76v-166q0 -60 -27.5 -88t-93.5 -28h-400z" />
<glyph unicode="&#xb4;" horiz-adv-x="970" d="M100 1190v182l770 279v-238z" />
<glyph unicode="&#xb5;" horiz-adv-x="1187" d="M102 -350v1386h308v-768h307q37 0 53 18.5t16 57.5v692h297v-833q0 -108 -43.5 -155.5t-152.5 -47.5h-477v-350h-308z" />
<glyph unicode="&#xb6;" horiz-adv-x="1507" d="M66 766v397q0 114 52 168.5t175 54.5h1167v-221h-137v-1515h-274v1515h-226v-1515h-274v1515h-150q-32 0 -45.5 -15.5t-13.5 -49.5v-260q0 -64 59 -64h88v-235h-200q-221 0 -221 225z" />
<glyph unicode="&#xb7;" horiz-adv-x="514" d="M102 532v310h310v-310h-310z" />
<glyph unicode="&#xb8;" horiz-adv-x="520" d="M74 -524l53 168q16 55 16 94v139h275v-104q0 -56 -31 -127l-72 -170h-241z" />
<glyph unicode="&#xb9;" horiz-adv-x="419" d="M45 1227v180h197q56 0 78 -23t22 -77v-592h-215v487q0 25 -23 25h-59z" />
<glyph unicode="&#xba;" horiz-adv-x="774" d="M111 725v348q0 59 24.5 85t85.5 26h334q61 0 86 -26t25 -85v-348q0 -59 -25 -85t-86 -26h-334q-61 0 -85.5 26t-24.5 85zM317 823q0 -24 25 -24h92q25 0 25 24v160q0 27 -25 27h-92q-25 0 -25 -27v-160z" />
<glyph unicode="&#xbb;" horiz-adv-x="1253" d="M49 338l299 315l-299 314l164 145l401 -459l-401 -463zM635 338l299 315l-299 314l164 145l401 -459l-401 -463z" />
<glyph unicode="&#xbc;" horiz-adv-x="1316" d="M88 1227v180h197q56 0 78 -23t22 -77v-592h-215v487q0 25 -23 25h-59zM117 0v137q0 40 7.5 61t35.5 56l735 940q16 21 16 55v137h195v-137q0 -40 -7.5 -61t-35.5 -58l-735 -937q-19 -24 -19 -56v-137h-192zM647 98v109q0 38 5 57.5t26 48.5l250 359h303v-692h-209v118 h-375zM868 268h154v217l-150 -202q-4 -4 -4 -15z" />
<glyph unicode="&#xbd;" horiz-adv-x="1421" d="M88 1227v180h197q56 0 78 -23t22 -77v-592h-215v487q0 25 -23 25h-59zM117 0v137q0 40 7.5 61t35.5 56l735 940q16 21 16 55v137h195v-137q0 -40 -7.5 -61t-35.5 -58l-735 -937q-19 -24 -19 -56v-137h-192zM793 100v207q0 99 100 99h205q22 0 22 24v33q0 29 -26 29h-295 v180h415q66 0 93.5 -29t27.5 -92v-195q0 -98 -100 -98h-207q-20 0 -20 -25v-36q0 -29 24 -29h303v-188h-422q-67 0 -93.5 28t-26.5 92z" />
<glyph unicode="&#xbe;" horiz-adv-x="1415" d="M88 715v188h281q24 0 24 27v53q0 18 -22 18h-271v129h271q22 0 22 23v47q0 27 -26 27h-275v180h387q66 0 95.5 -28.5t29.5 -88.5v-131q0 -79 -80 -86q84 -7 84 -76v-166q0 -60 -27.5 -88t-93.5 -28h-399zM236 0v137q0 40 7.5 61t35.5 56l735 940q16 21 16 55v137h195 v-137q0 -40 -7.5 -61t-35.5 -58l-736 -937q-18 -23 -18 -56v-137h-192zM745 98v109q0 38 5 57.5t26 48.5l250 359h303v-692h-209v118h-375zM967 268h153v217l-149 -202q-4 -4 -4 -15z" />
<glyph unicode="&#xbf;" horiz-adv-x="1069" d="M68 242v297q0 249 198 249h293q68 0 68 74v92h307v-213q0 -93 -49.5 -144.5t-149.5 -51.5h-254q-69 0 -69 -72v-90q0 -88 84 -88h501v-295h-686q-133 0 -188 58t-55 184zM627 1077v309h309v-309h-309z" />
<glyph unicode="&#xc0;" d="M80 0v606q0 53 9 86t34 70l409 624h312l409 -624q25 -37 34 -70t9 -86v-606h-370v301h-492v-301h-354zM242 1765v238l770 -279v-182zM434 547h492v35q0 29 -4 43.5t-17 36.5l-225 335l-225 -335q-13 -22 -17 -36.5t-4 -43.5v-35z" />
<glyph unicode="&#xc1;" d="M80 0v606q0 53 9 86t34 70l409 624h312l409 -624q25 -37 34 -70t9 -86v-606h-370v301h-492v-301h-354zM365 1540v182l770 279v-238zM434 547h492v35q0 29 -4 43.5t-17 36.5l-225 335l-225 -335q-13 -22 -17 -36.5t-4 -43.5v-35z" />
<glyph unicode="&#xc2;" d="M80 0v606q0 53 9 86t34 70l409 624h312l409 -624q25 -37 34 -70t9 -86v-606h-370v301h-492v-301h-354zM174 1536v49q0 41 8 61t35 44l340 311h248v-2l342 -309q27 -24 35 -43.5t8 -61.5v-49h-252v33q0 21 -5 32t-20 25l-223 207l-223 -207q-15 -13 -19 -24t-4 -33v-33 h-270zM434 547h492v35q0 29 -4 43.5t-17 36.5l-225 335l-225 -335q-13 -22 -17 -36.5t-4 -43.5v-35z" />
<glyph unicode="&#xc3;" d="M80 0v606q0 53 9 86t34 70l409 624h312l409 -624q25 -37 34 -70t9 -86v-606h-370v301h-492v-301h-354zM248 1649v225h882v-225h-882zM434 547h492v35q0 29 -4 43.5t-17 36.5l-225 335l-225 -335q-13 -22 -17 -36.5t-4 -43.5v-35z" />
<glyph unicode="&#xc4;" d="M80 0v606q0 53 9 86t34 70l409 624h312l409 -624q25 -37 34 -70t9 -86v-606h-370v301h-492v-301h-354zM219 1577v311h324v-311h-324zM434 547h492v35q0 29 -4 43.5t-17 36.5l-225 335l-225 -335q-13 -22 -17 -36.5t-4 -43.5v-35zM834 1577v311h323v-311h-323z" />
<glyph unicode="&#xc5;" d="M80 0v606q0 53 9 86t34 70l409 624h312l409 -624q25 -37 34 -70t9 -86v-606h-370v301h-492v-301h-354zM434 547h492v35q0 29 -4 43.5t-17 36.5l-225 335l-225 -335q-13 -22 -17 -36.5t-4 -43.5v-35zM442 1661v215q0 67 27.5 96t95.5 29h244q71 0 99 -29t28 -96v-215 q0 -67 -28 -96t-99 -29h-244q-68 0 -95.5 29t-27.5 96zM561 1692q0 -24 9 -33.5t32 -9.5h172q22 0 30.5 10t8.5 33v159q0 23 -8.5 33t-30.5 10h-172q-23 0 -32 -9.5t-9 -33.5v-159z" />
<glyph unicode="&#xc6;" horiz-adv-x="1923" d="M88 0v606q0 51 9.5 84.5t33.5 71.5l410 624h1278v-309h-584v-250h580v-243h-580v-176q0 -45 19.5 -67t62.5 -22h502v-319h-705q-131 0 -201.5 72.5t-70.5 193.5v39h-400v-305h-354zM442 547h400v530h-111l-268 -401q-13 -22 -17 -36.5t-4 -45.5v-47z" />
<glyph unicode="&#xc7;" horiz-adv-x="1132" d="M92 242v903q0 126 54.5 183.5t185.5 57.5h729v-323h-520q-45 0 -64.5 -21.5t-19.5 -66.5v-553q0 -45 19.5 -66.5t64.5 -21.5h524v-334h-733q-131 0 -185.5 58t-54.5 184zM393 -524l53 168q17 58 17 94v139h274v-104q0 -58 -30 -127l-72 -170h-242z" />
<glyph unicode="&#xc8;" horiz-adv-x="1218" d="M92 242v903q0 126 54.5 183.5t185.5 57.5h784v-309h-551q-45 0 -63.5 -21t-18.5 -67v-162h629v-243h-629v-176q0 -46 18.5 -67.5t63.5 -21.5h551v-319h-784q-131 0 -185.5 58t-54.5 184zM182 1765v238l770 -279v-182z" />
<glyph unicode="&#xc9;" horiz-adv-x="1218" d="M92 242v903q0 126 54.5 183.5t185.5 57.5h784v-309h-551q-45 0 -63.5 -21t-18.5 -67v-162h629v-243h-629v-176q0 -46 18.5 -67.5t63.5 -21.5h551v-319h-784q-131 0 -185.5 58t-54.5 184zM285 1540v182l770 279v-238z" />
<glyph unicode="&#xca;" horiz-adv-x="1218" d="M92 242v903q0 126 54.5 183.5t185.5 57.5h784v-309h-551q-45 0 -63.5 -21t-18.5 -67v-162h629v-243h-629v-176q0 -46 18.5 -67.5t63.5 -21.5h551v-319h-784q-131 0 -185.5 58t-54.5 184zM121 1536v49q0 41 8 61t35 44l340 311h248v-2l342 -309q27 -24 35 -43.5t8 -61.5 v-49h-252v33q0 21 -5 32t-20 25l-223 207l-223 -207q-15 -13 -19 -24t-4 -33v-33h-270z" />
<glyph unicode="&#xcb;" horiz-adv-x="1218" d="M92 242v903q0 126 54.5 183.5t185.5 57.5h784v-309h-551q-45 0 -63.5 -21t-18.5 -67v-162h629v-243h-629v-176q0 -46 18.5 -67.5t63.5 -21.5h551v-319h-784q-131 0 -185.5 58t-54.5 184zM160 1577v311h323v-311h-323zM774 1577v311h324v-311h-324z" />
<glyph unicode="&#xcc;" horiz-adv-x="587" d="M-152 1765v238l770 -279v-182zM106 0v1386h373v-1386h-373z" />
<glyph unicode="&#xcd;" horiz-adv-x="587" d="M-29 1540v182l770 279v-238zM106 0v1386h373v-1386h-373z" />
<glyph unicode="&#xce;" horiz-adv-x="587" d="M-213 1536v49q0 41 8 61t35 44l340 311h248v-2l342 -309q27 -24 35 -43.5t8 -61.5v-49h-252v33q0 21 -5 32t-20 25l-223 207l-223 -207q-15 -13 -19 -24t-4 -33v-33h-270zM106 0v1386h373v-1386h-373z" />
<glyph unicode="&#xcf;" horiz-adv-x="587" d="M-174 1577v311h324v-311h-324zM106 0v1386h373v-1386h-373zM440 1577v311h324v-311h-324z" />
<glyph unicode="&#xd0;" d="M20 584v243h82v559h816q185 0 277.5 -90t92.5 -264v-678q0 -174 -92.5 -264t-277.5 -90h-816v584h-82zM463 301h323q67 0 102.5 35.5t35.5 103.5v494q0 156 -138 156h-323v-263h254v-243h-254v-283z" />
<glyph unicode="&#xd1;" horiz-adv-x="1435" d="M100 0v1386h228q74 0 110 -18.5t76 -71.5l467 -628v718h352v-1386h-164q-51 0 -79.5 13t-55.5 48l-585 748v-809h-349zM276 1649v225h883v-225h-883z" />
<glyph unicode="&#xd2;" d="M92 242v903q0 126 54.5 183.5t185.5 57.5h715q131 0 185 -57.5t54 -183.5v-903q0 -126 -54.5 -184t-184.5 -58h-715q-131 0 -185.5 58t-54.5 184zM242 1765v238l770 -279v-182zM455 406q0 -45 19.5 -67t62.5 -22h305q43 0 61.5 21.5t18.5 67.5v587q0 45 -18.5 65.5 t-61.5 20.5h-305q-44 0 -63 -20.5t-19 -65.5v-587z" />
<glyph unicode="&#xd3;" d="M92 242v903q0 126 54.5 183.5t185.5 57.5h715q131 0 185 -57.5t54 -183.5v-903q0 -126 -54.5 -184t-184.5 -58h-715q-131 0 -185.5 58t-54.5 184zM365 1540v182l770 279v-238zM455 406q0 -45 19.5 -67t62.5 -22h305q43 0 61.5 21.5t18.5 67.5v587q0 45 -18.5 65.5 t-61.5 20.5h-305q-44 0 -63 -20.5t-19 -65.5v-587z" />
<glyph unicode="&#xd4;" d="M92 242v903q0 126 54.5 183.5t185.5 57.5h715q131 0 185 -57.5t54 -183.5v-903q0 -126 -54.5 -184t-184.5 -58h-715q-131 0 -185.5 58t-54.5 184zM180 1536v49q0 41 8 61t35 44l340 311h248v-2l342 -309q27 -24 35 -43.5t8 -61.5v-49h-252v33q0 22 -4.5 33t-19.5 24 l-224 207l-223 -207q-14 -13 -18 -23.5t-4 -33.5v-33h-271zM455 406q0 -45 19.5 -67t62.5 -22h305q43 0 61.5 21.5t18.5 67.5v587q0 45 -18.5 65.5t-61.5 20.5h-305q-44 0 -63 -20.5t-19 -65.5v-587z" />
<glyph unicode="&#xd5;" d="M92 242v903q0 126 54.5 183.5t185.5 57.5h715q131 0 185 -57.5t54 -183.5v-903q0 -126 -54.5 -184t-184.5 -58h-715q-131 0 -185.5 58t-54.5 184zM248 1649v225h882v-225h-882zM455 406q0 -45 19.5 -67t62.5 -22h305q43 0 61.5 21.5t18.5 67.5v587q0 45 -18.5 65.5 t-61.5 20.5h-305q-44 0 -63 -20.5t-19 -65.5v-587z" />
<glyph unicode="&#xd6;" d="M92 242v903q0 126 54.5 183.5t185.5 57.5h715q131 0 185 -57.5t54 -183.5v-903q0 -126 -54.5 -184t-184.5 -58h-715q-131 0 -185.5 58t-54.5 184zM219 1577v311h324v-311h-324zM455 406q0 -45 19.5 -67t62.5 -22h305q43 0 61.5 21.5t18.5 67.5v587q0 45 -18.5 65.5 t-61.5 20.5h-305q-44 0 -63 -20.5t-19 -65.5v-587zM834 1577v311h323v-311h-323z" />
<glyph unicode="&#xd7;" horiz-adv-x="1286" d="M180 410l303 303l-303 303l158 160l303 -306l305 306l158 -156l-305 -305l307 -307l-160 -158l-305 307l-305 -305z" />
<glyph unicode="&#xd8;" d="M92 242v903q0 126 54.5 183.5t185.5 57.5h506l53 148h205l-54 -148h5q131 0 185 -57.5t54 -183.5v-903q0 -126 -54.5 -184t-184.5 -58h-506l-52 -145h-206l51 145h-2q-131 0 -185.5 58t-54.5 184zM455 406q0 -36 8 -52l262 725h-188q-44 0 -63 -20.5t-19 -65.5v-587z M655 317h187q43 0 61.5 21.5t18.5 67.5v587q0 22 -7 43z" />
<glyph unicode="&#xd9;" d="M98 242v1144h371v-974q0 -45 19.5 -66.5t62.5 -21.5h291q45 0 63.5 21t18.5 67v974h356v-1144q0 -126 -55.5 -184t-184.5 -58h-702q-131 0 -185.5 58t-54.5 184zM242 1765v238l770 -279v-182z" />
<glyph unicode="&#xda;" d="M98 242v1144h371v-974q0 -45 19.5 -66.5t62.5 -21.5h291q45 0 63.5 21t18.5 67v974h356v-1144q0 -126 -55.5 -184t-184.5 -58h-702q-131 0 -185.5 58t-54.5 184zM365 1540v182l770 279v-238z" />
<glyph unicode="&#xdb;" d="M98 242v1144h371v-974q0 -45 19.5 -66.5t62.5 -21.5h291q45 0 63.5 21t18.5 67v974h356v-1144q0 -126 -55.5 -184t-184.5 -58h-702q-131 0 -185.5 58t-54.5 184zM180 1536v49q0 41 8 61t35 44l340 311h248v-2l342 -309q27 -24 35 -43.5t8 -61.5v-49h-252v33q0 22 -4.5 33 t-19.5 24l-224 207l-223 -207q-14 -13 -18 -23.5t-4 -33.5v-33h-271z" />
<glyph unicode="&#xdc;" d="M98 242v1144h371v-974q0 -45 19.5 -66.5t62.5 -21.5h291q45 0 63.5 21t18.5 67v974h356v-1144q0 -126 -55.5 -184t-184.5 -58h-702q-131 0 -185.5 58t-54.5 184zM219 1577v311h324v-311h-324zM834 1577v311h323v-311h-323z" />
<glyph unicode="&#xdd;" horiz-adv-x="1333" d="M57 1075v311h375v-313q0 -49 29 -86l213 -272l213 270q28 38 28 88v313h359v-311q0 -86 -60 -166l-360 -489v-420h-373v418l-368 491q-32 40 -44 77.5t-12 88.5zM342 1540v182l770 279v-238z" />
<glyph unicode="&#xde;" horiz-adv-x="1357" d="M102 0v1386h371v-196h578q130 0 184.5 -58t54.5 -184v-540q0 -126 -54.5 -184t-184.5 -58h-519v278h316q43 0 62.5 21.5t19.5 66.5v261q0 45 -19.5 66.5t-62.5 21.5h-375v-881h-371z" />
<glyph unicode="&#xdf;" horiz-adv-x="1435" d="M98 0v1268q0 107 44.5 154.5t154.5 47.5h457q108 0 153 -48t45 -154v-357q0 -31 10.5 -42t38.5 -11h181q82 0 121.5 -38t39.5 -107v-533q0 -95 -44 -137.5t-150 -42.5h-531v233h340q35 0 50.5 16t15.5 52v281q0 53 -57 53h-136q-82 0 -118.5 35.5t-36.5 109.5v394 q0 38 -15 56.5t-51 18.5h-141q-34 0 -48.5 -18.5t-14.5 -56.5v-1174h-308z" />
<glyph unicode="&#xe0;" horiz-adv-x="1222" d="M98 195v251q0 117 36 158t136 41h500v-182h-332q-35 0 -48 -16t-13 -58v-55q0 -38 14.5 -55t48.5 -17h320q38 0 53.5 17.5t15.5 56.5v387q0 37 -15.5 55.5t-53.5 18.5h-645v239h817q110 0 153 -47.5t43 -154.5v-631q0 -108 -43.5 -155.5t-152.5 -47.5h-653 q-98 0 -139.5 47.5t-41.5 147.5zM164 1415v238l770 -279v-182z" />
<glyph unicode="&#xe1;" horiz-adv-x="1222" d="M98 195v251q0 117 36 158t136 41h500v-182h-332q-35 0 -48 -16t-13 -58v-55q0 -38 14.5 -55t48.5 -17h320q38 0 53.5 17.5t15.5 56.5v387q0 37 -15.5 55.5t-53.5 18.5h-645v239h817q110 0 153 -47.5t43 -154.5v-631q0 -108 -43.5 -155.5t-152.5 -47.5h-653 q-98 0 -139.5 47.5t-41.5 147.5zM287 1190v182l770 279v-238z" />
<glyph unicode="&#xe2;" horiz-adv-x="1222" d="M98 195v251q0 117 36 158t136 41h500v-182h-332q-35 0 -48 -16t-13 -58v-55q0 -38 14.5 -55t48.5 -17h320q38 0 53.5 17.5t15.5 56.5v387q0 37 -15.5 55.5t-53.5 18.5h-645v239h817q110 0 153 -47.5t43 -154.5v-631q0 -108 -43.5 -155.5t-152.5 -47.5h-653 q-98 0 -139.5 47.5t-41.5 147.5zM102 1186v49q0 41 8 60.5t35 43.5l340 312h248v-2l342 -310q28 -25 35.5 -43.5t7.5 -60.5v-49h-252v33q0 22 -4.5 33t-19.5 24l-224 207l-223 -207q-14 -13 -18 -23.5t-4 -33.5v-33h-271z" />
<glyph unicode="&#xe3;" horiz-adv-x="1222" d="M98 195v251q0 117 36 158t136 41h500v-182h-332q-35 0 -48 -16t-13 -58v-55q0 -38 14.5 -55t48.5 -17h320q38 0 53.5 17.5t15.5 56.5v387q0 37 -15.5 55.5t-53.5 18.5h-645v239h817q110 0 153 -47.5t43 -154.5v-631q0 -108 -43.5 -155.5t-152.5 -47.5h-653 q-98 0 -139.5 47.5t-41.5 147.5zM170 1298v226h883v-226h-883z" />
<glyph unicode="&#xe4;" horiz-adv-x="1222" d="M98 195v251q0 117 36 158t136 41h500v-182h-332q-35 0 -48 -16t-13 -58v-55q0 -38 14.5 -55t48.5 -17h320q38 0 53.5 17.5t15.5 56.5v387q0 37 -15.5 55.5t-53.5 18.5h-645v239h817q110 0 153 -47.5t43 -154.5v-631q0 -108 -43.5 -155.5t-152.5 -47.5h-653 q-98 0 -139.5 47.5t-41.5 147.5zM141 1227v311h324v-311h-324zM756 1227v311h323v-311h-323z" />
<glyph unicode="&#xe5;" horiz-adv-x="1222" d="M98 195v251q0 117 36 158t136 41h500v-182h-332q-35 0 -48 -16t-13 -58v-55q0 -38 14.5 -55t48.5 -17h320q38 0 53.5 17.5t15.5 56.5v387q0 37 -15.5 55.5t-53.5 18.5h-645v239h817q110 0 153 -47.5t43 -154.5v-631q0 -108 -43.5 -155.5t-152.5 -47.5h-653 q-98 0 -139.5 47.5t-41.5 147.5zM365 1311v215q0 67 27 96t95 29h244q71 0 99 -29t28 -96v-215q0 -67 -28 -96t-99 -29h-244q-68 0 -95 29t-27 96zM483 1341q0 -24 9 -33.5t32 -9.5h172q22 0 30.5 10t8.5 33v160q0 23 -8.5 33t-30.5 10h-172q-23 0 -32 -9.5t-9 -33.5v-160z " />
<glyph unicode="&#xe6;" horiz-adv-x="1800" d="M102 195v235q0 117 36 158t136 41h422v-183h-252q-34 0 -46.5 -15.5t-12.5 -57.5v-33q0 -38 14 -56t50 -18h307v531h-637v239h1403q99 0 139.5 -46.5t40.5 -147.5v-207q0 -117 -36 -158t-136 -41h-418v180h246q35 0 47 13t12 53v33q0 38 -13.5 54.5t-47.5 16.5h-301v-530 h628v-256h-1400q-99 0 -140 47t-41 148z" />
<glyph unicode="&#xe7;" horiz-adv-x="993" d="M92 203v631q0 107 44.5 154.5t154.5 47.5h624v-266h-448q-37 0 -52.5 -17.5t-15.5 -56.5v-344q0 -39 15 -56t53 -17h448v-279h-624q-110 0 -154.5 48t-44.5 155zM324 -524l53 168q16 55 16 94v139h275v-104q0 -56 -31 -127l-72 -170h-241z" />
<glyph unicode="&#xe8;" horiz-adv-x="1204" d="M84 203v631q0 107 44 154.5t155 47.5h651q99 0 139.5 -46.5t40.5 -147.5v-219q0 -117 -36 -158t-136 -41h-502v180h334q34 0 47 16.5t13 57.5v41q0 38 -14.5 55t-49.5 17h-319q-37 0 -52.5 -17.5t-15.5 -56.5v-385q0 -39 15.5 -57.5t52.5 -18.5h645v-256h-813 q-111 0 -155 48t-44 155zM156 1415v238l770 -279v-182z" />
<glyph unicode="&#xe9;" horiz-adv-x="1204" d="M84 203v631q0 107 44 154.5t155 47.5h651q99 0 139.5 -46.5t40.5 -147.5v-219q0 -117 -36 -158t-136 -41h-502v180h334q34 0 47 16.5t13 57.5v41q0 38 -14.5 55t-49.5 17h-319q-37 0 -52.5 -17.5t-15.5 -56.5v-385q0 -39 15.5 -57.5t52.5 -18.5h645v-256h-813 q-111 0 -155 48t-44 155zM279 1190v182l770 279v-238z" />
<glyph unicode="&#xea;" horiz-adv-x="1204" d="M84 203v631q0 107 44 154.5t155 47.5h651q99 0 139.5 -46.5t40.5 -147.5v-219q0 -117 -36 -158t-136 -41h-502v180h334q34 0 47 16.5t13 57.5v41q0 38 -14.5 55t-49.5 17h-319q-37 0 -52.5 -17.5t-15.5 -56.5v-385q0 -39 15.5 -57.5t52.5 -18.5h645v-256h-813 q-111 0 -155 48t-44 155zM94 1186v49q0 41 8 60.5t35 43.5l340 312h248v-2l342 -310q28 -25 35.5 -43.5t7.5 -60.5v-49h-252v33q0 22 -4.5 33t-19.5 24l-224 207l-223 -207q-14 -13 -18 -23.5t-4 -33.5v-33h-271z" />
<glyph unicode="&#xeb;" horiz-adv-x="1204" d="M84 203v631q0 107 44 154.5t155 47.5h651q99 0 139.5 -46.5t40.5 -147.5v-219q0 -117 -36 -158t-136 -41h-502v180h334q34 0 47 16.5t13 57.5v41q0 38 -14.5 55t-49.5 17h-319q-37 0 -52.5 -17.5t-15.5 -56.5v-385q0 -39 15.5 -57.5t52.5 -18.5h645v-256h-813 q-111 0 -155 48t-44 155zM133 1227v311h324v-311h-324zM748 1227v311h323v-311h-323z" />
<glyph unicode="&#xec;" horiz-adv-x="700" d="M-6 1415v238l770 -279v-182zM287 0v1036h305v-1036h-305z" />
<glyph unicode="&#xed;" horiz-adv-x="700" d="M-61 1190v182l770 279v-238zM109 0v1036h305v-1036h-305z" />
<glyph unicode="&#xee;" horiz-adv-x="1015" d="M0 1186v49q0 41 8 60.5t35 43.5l340 312h248v-2l342 -310q28 -25 35.5 -43.5t7.5 -60.5v-49h-252v33q0 21 -5 32t-20 25l-223 207l-223 -207q-15 -13 -19 -24t-4 -33v-33h-270zM354 0v1036h305v-1036h-305z" />
<glyph unicode="&#xef;" horiz-adv-x="937" d="M0 1227v311h324v-311h-324zM315 0v1036h306v-1036h-306zM614 1227v311h324v-311h-324z" />
<glyph unicode="&#xf0;" horiz-adv-x="1236" d="M92 203v502q0 107 48.5 154.5t150.5 47.5h428v-258h-252q-68 0 -68 -74v-227q0 -39 15.5 -56.5t52.5 -17.5h244q36 0 51.5 17.5t15.5 56.5v594q0 63 -9 96t-36 74l-43 64l-371 -140v123l304 115l-131 196h333l66 -96l254 96v-124l-184 -70l61 -86q40 -59 51.5 -107 t11.5 -153v-727q0 -108 -44 -155.5t-154 -47.5h-596q-110 0 -154.5 48t-44.5 155z" />
<glyph unicode="&#xf1;" horiz-adv-x="1189" d="M98 0v834q0 107 48.5 154.5t150.5 47.5h596q197 0 197 -202v-834h-306v698q0 76 -69 76h-242q-35 0 -51 -18t-16 -58v-698h-308zM154 1298v226h882v-226h-882z" />
<glyph unicode="&#xf2;" horiz-adv-x="1179" d="M92 203v631q0 107 44.5 154.5t154.5 47.5h598q110 0 153 -47.5t43 -154.5v-631q0 -108 -43.5 -155.5t-152.5 -47.5h-598q-110 0 -154.5 48t-44.5 155zM143 1415v238l770 -279v-182zM399 348q0 -39 15.5 -57.5t52.5 -18.5h244q37 0 53 18.5t16 57.5v350q0 39 -16 57.5 t-53 18.5h-244q-37 0 -52.5 -18.5t-15.5 -57.5v-350z" />
<glyph unicode="&#xf3;" horiz-adv-x="1179" d="M92 203v631q0 107 44.5 154.5t154.5 47.5h598q110 0 153 -47.5t43 -154.5v-631q0 -108 -43.5 -155.5t-152.5 -47.5h-598q-110 0 -154.5 48t-44.5 155zM266 1190v182l770 279v-238zM399 348q0 -39 15.5 -57.5t52.5 -18.5h244q37 0 53 18.5t16 57.5v350q0 39 -16 57.5 t-53 18.5h-244q-37 0 -52.5 -18.5t-15.5 -57.5v-350z" />
<glyph unicode="&#xf4;" horiz-adv-x="1179" d="M82 1186v49q0 41 8 60.5t35 43.5l340 312h248v-2l342 -310q28 -25 35.5 -43.5t7.5 -60.5v-49h-252v33q0 21 -5 32t-20 25l-223 207l-223 -207q-15 -13 -19 -24t-4 -33v-33h-270zM92 203v631q0 107 44.5 154.5t154.5 47.5h598q110 0 153 -47.5t43 -154.5v-631 q0 -108 -43.5 -155.5t-152.5 -47.5h-598q-110 0 -154.5 48t-44.5 155zM399 348q0 -39 15.5 -57.5t52.5 -18.5h244q37 0 53 18.5t16 57.5v350q0 39 -16 57.5t-53 18.5h-244q-37 0 -52.5 -18.5t-15.5 -57.5v-350z" />
<glyph unicode="&#xf5;" horiz-adv-x="1179" d="M92 203v631q0 107 44.5 154.5t154.5 47.5h598q110 0 153 -47.5t43 -154.5v-631q0 -108 -43.5 -155.5t-152.5 -47.5h-598q-110 0 -154.5 48t-44.5 155zM147 1298v226h883v-226h-883zM399 348q0 -39 15.5 -57.5t52.5 -18.5h244q37 0 53 18.5t16 57.5v350q0 39 -16 57.5 t-53 18.5h-244q-37 0 -52.5 -18.5t-15.5 -57.5v-350z" />
<glyph unicode="&#xf6;" horiz-adv-x="1179" d="M92 203v631q0 107 44.5 154.5t154.5 47.5h598q110 0 153 -47.5t43 -154.5v-631q0 -108 -43.5 -155.5t-152.5 -47.5h-598q-110 0 -154.5 48t-44.5 155zM121 1227v311h323v-311h-323zM399 348q0 -39 15.5 -57.5t52.5 -18.5h244q37 0 53 18.5t16 57.5v350q0 39 -16 57.5 t-53 18.5h-244q-37 0 -52.5 -18.5t-15.5 -57.5v-350zM735 1227v311h324v-311h-324z" />
<glyph unicode="&#xf7;" horiz-adv-x="1286" d="M100 604v221h1086v-221h-1086zM487 131v309h310v-309h-310zM487 989v309h310v-309h-310z" />
<glyph unicode="&#xf8;" horiz-adv-x="1179" d="M92 203v631q0 107 44.5 154.5t154.5 47.5h414l47 117h180l-47 -117q112 0 156 -47t44 -155v-631q0 -108 -43.5 -155.5t-152.5 -47.5h-416l-57 -145h-180l57 145q-111 0 -156 48t-45 155zM399 354q1 -17 8.5 -23.5t24.5 -6.5q88 225 180 450h-145q-37 0 -52.5 -18.5 t-15.5 -57.5v-344zM571 272h140q37 0 53 18.5t16 57.5v318q0 48 -24 69z" />
<glyph unicode="&#xf9;" horiz-adv-x="1185" d="M98 203v833h310v-688q0 -39 15.5 -56.5t53.5 -17.5h242q36 0 51.5 17.5t15.5 56.5v688h299v-833q0 -108 -43.5 -155.5t-154.5 -47.5h-590q-110 0 -154.5 48t-44.5 155zM145 1415v238l770 -279v-182z" />
<glyph unicode="&#xfa;" horiz-adv-x="1185" d="M98 203v833h310v-688q0 -39 15.5 -56.5t53.5 -17.5h242q36 0 51.5 17.5t15.5 56.5v688h299v-833q0 -108 -43.5 -155.5t-154.5 -47.5h-590q-110 0 -154.5 48t-44.5 155zM268 1190v182l770 279v-238z" />
<glyph unicode="&#xfb;" horiz-adv-x="1185" d="M86 1186v49q0 41 8 60.5t35 43.5l340 312h248v-2l342 -310q28 -25 35.5 -43.5t7.5 -60.5v-49h-252v33q0 21 -5 32t-20 25l-223 207l-223 -207q-15 -13 -19 -24t-4 -33v-33h-270zM98 203v833h310v-688q0 -39 15.5 -56.5t53.5 -17.5h242q36 0 51.5 17.5t15.5 56.5v688h299 v-833q0 -108 -43.5 -155.5t-154.5 -47.5h-590q-110 0 -154.5 48t-44.5 155z" />
<glyph unicode="&#xfc;" horiz-adv-x="1185" d="M98 203v833h310v-688q0 -39 15.5 -56.5t53.5 -17.5h242q36 0 51.5 17.5t15.5 56.5v688h299v-833q0 -108 -43.5 -155.5t-154.5 -47.5h-590q-110 0 -154.5 48t-44.5 155zM123 1227v311h323v-311h-323zM737 1227v311h324v-311h-324z" />
<glyph unicode="&#xfd;" horiz-adv-x="1226" d="M80 612v424h323v-424q0 -41 21 -67l190 -240l189 240q20 25 20 67v424h322v-424q0 -61 -13 -95t-51 -83l-317 -409v-375h-307v377l-316 407q-37 50 -49 83t-12 95zM289 1190v182l770 279v-238z" />
<glyph unicode="&#xfe;" horiz-adv-x="1189" d="M102 -350v1820h308v-1196h311q38 0 54 18t16 58v348q0 41 -17 58.5t-53 17.5h-254v262h432q99 0 148 -49t49 -153v-631q0 -107 -44.5 -155t-152.5 -48h-489v-350h-308z" />
<glyph unicode="&#xff;" horiz-adv-x="1226" d="M80 612v424h323v-424q0 -41 21 -67l190 -240l189 240q20 25 20 67v424h322v-424q0 -61 -13 -95t-51 -83l-317 -409v-375h-307v377l-316 407q-37 50 -49 83t-12 95zM143 1227v311h324v-311h-324zM758 1227v311h323v-311h-323z" />
<glyph unicode="&#x152;" horiz-adv-x="1826" d="M92 242v903q0 126 54.5 183.5t185.5 57.5h1392v-309h-542v-250h538v-243h-538v-265h542v-319h-1392q-131 0 -185.5 58t-54.5 184zM459 408q0 -45 19.5 -67t62.5 -22h280v758h-280q-43 0 -62.5 -21.5t-19.5 -66.5v-581z" />
<glyph unicode="&#x153;" horiz-adv-x="1761" d="M92 203v631q0 107 44.5 154.5t154.5 47.5h1192q98 0 138 -46.5t40 -147.5v-219q0 -116 -35.5 -157.5t-134.5 -41.5h-416v180h244q34 0 46.5 16t12.5 58v37q0 37 -14 54t-47 17h-301v-530h629v-256h-1354q-110 0 -154.5 48t-44.5 155zM399 350q0 -41 15 -58.5t53 -17.5 h252v500h-252q-37 0 -52.5 -18.5t-15.5 -57.5v-348z" />
<glyph unicode="&#x178;" horiz-adv-x="1333" d="M57 1075v311h375v-313q0 -49 29 -86l213 -272l213 270q28 38 28 88v313h359v-311q0 -86 -60 -166l-360 -489v-420h-373v418l-368 491q-32 40 -44 77.5t-12 88.5zM201 1577v311h323v-311h-323zM815 1577v311h324v-311h-324z" />
<glyph unicode="&#x2c6;" horiz-adv-x="1216" d="M100 1186v49q0 41 8 60.5t35 43.5l340 312h248v-2l342 -310q28 -25 35.5 -43.5t7.5 -60.5v-49h-252v33q0 22 -4.5 33t-19.5 24l-224 207l-223 -207q-14 -13 -18 -23.5t-4 -33.5v-33h-271z" />
<glyph unicode="&#x2dc;" horiz-adv-x="1083" d="M100 1298v226h883v-226h-883z" />
<glyph unicode="&#x2000;" horiz-adv-x="1001" />
<glyph unicode="&#x2001;" horiz-adv-x="2003" />
<glyph unicode="&#x2002;" horiz-adv-x="1001" />
<glyph unicode="&#x2003;" horiz-adv-x="2003" />
<glyph unicode="&#x2004;" horiz-adv-x="667" />
<glyph unicode="&#x2005;" horiz-adv-x="500" />
<glyph unicode="&#x2006;" horiz-adv-x="333" />
<glyph unicode="&#x2007;" horiz-adv-x="333" />
<glyph unicode="&#x2008;" horiz-adv-x="250" />
<glyph unicode="&#x2009;" horiz-adv-x="400" />
<glyph unicode="&#x200a;" horiz-adv-x="111" />
<glyph unicode="&#x2010;" horiz-adv-x="772" d="M51 602v201h668v-201h-668z" />
<glyph unicode="&#x2011;" horiz-adv-x="772" d="M51 602v201h668v-201h-668z" />
<glyph unicode="&#x2012;" horiz-adv-x="772" d="M51 602v201h668v-201h-668z" />
<glyph unicode="&#x2013;" horiz-adv-x="1413" d="M51 586v233h1309v-233h-1309z" />
<glyph unicode="&#x2014;" horiz-adv-x="2357" d="M51 586v233h2253v-233h-2253z" />
<glyph unicode="&#x2018;" horiz-adv-x="532" d="M102 1298v172h310v-206q0 -40 16 -95l53 -168h-274l-74 170q-31 71 -31 127z" />
<glyph unicode="&#x2019;" horiz-adv-x="532" d="M51 1001l53 168q17 58 17 95v206h309v-172q0 -51 -33 -127l-71 -170h-275z" />
<glyph unicode="&#x201a;" horiz-adv-x="532" d="M51 -160l53 168q17 58 17 94v207h309v-172q0 -51 -33 -127l-71 -170h-275z" />
<glyph unicode="&#x201c;" horiz-adv-x="983" d="M102 1298v172h310v-206q0 -40 16 -95l53 -168h-274l-74 170q-31 71 -31 127zM553 1298v172h309v-206q0 -37 17 -95l53 -168h-275l-73 170q-31 71 -31 127z" />
<glyph unicode="&#x201d;" horiz-adv-x="983" d="M51 1001l53 168q17 58 17 95v206h309v-172q0 -51 -33 -127l-71 -170h-275zM502 1001l53 168q16 55 16 95v206h310v-172q0 -51 -33 -127l-72 -170h-274z" />
<glyph unicode="&#x201e;" horiz-adv-x="983" d="M51 -160l53 168q17 58 17 94v207h309v-172q0 -51 -33 -127l-71 -170h-275zM502 -160l53 168q16 55 16 94v207h310v-172q0 -51 -33 -127l-72 -170h-274z" />
<glyph unicode="&#x2022;" horiz-adv-x="657" d="M100 569v224q0 64 27.5 92t93.5 28h217q66 0 92.5 -28t26.5 -92v-224q0 -63 -26.5 -91.5t-92.5 -28.5h-217q-66 0 -93.5 28.5t-27.5 91.5z" />
<glyph unicode="&#x2026;" horiz-adv-x="2570" d="M102 0v309h310v-309h-310zM1130 0v309h310v-309h-310zM2159 0v309h309v-309h-309z" />
<glyph unicode="&#x202f;" horiz-adv-x="400" />
<glyph unicode="&#x2039;" horiz-adv-x="669" d="M49 653l406 459l161 -145l-297 -314l297 -315l-161 -148z" />
<glyph unicode="&#x203a;" horiz-adv-x="667" d="M49 338l299 315l-299 314l164 145l401 -459l-401 -463z" />
<glyph unicode="&#x205f;" horiz-adv-x="500" />
<glyph unicode="&#x20ac;" horiz-adv-x="1181" d="M29 500l32 147h58v109h-90l32 147h58v242q0 127 53 184t184 57h762q-15 -51 -46.5 -151.5t-47.5 -151.5h-485q-43 0 -61.5 -21.5t-18.5 -66.5v-92h495l-49 -147h-446v-109h409l-47 -147h-362v-99q0 -45 18.5 -66.5t61.5 -21.5h559v-313h-742q-131 0 -184 57.5t-53 184.5 v258h-90z" />
<glyph unicode="&#x2122;" horiz-adv-x="1583" d="M57 1206v180h527v-180h-154v-547h-215v547h-158zM711 659v727h120q46 0 69 -13t46 -54l154 -283l143 281q20 41 44.5 55t74.5 14h119v-727h-193v369l-108 -201q-15 -28 -27 -36.5t-39 -8.5h-33q-30 0 -41.5 8t-27.5 37l-107 201v-369h-194z" />
<glyph unicode="&#x25fc;" horiz-adv-x="1034" d="M0 0v1034h1034v-1034h-1034z" />
</font>
</defs>
</svg>
