<?xml version="1.0" standalone="no"?>
<!DOCTYPE svg PUBLIC "-//W3C//DTD SVG 1.1//EN" "http://www.w3.org/Graphics/SVG/1.1/DTD/svg11.dtd" >
<svg xmlns="http://www.w3.org/2000/svg" xmlns:xlink="http://www.w3.org/1999/xlink" version="1.1">
<metadata></metadata>
<defs>
<font id="naked_powerlight" horiz-adv-x="1679" >
<font-face units-per-em="2048" ascent="1536" descent="-512" />
<missing-glyph horiz-adv-x="610" />
<glyph unicode="&#x28;C&#x29;" horiz-adv-x="1665" d="M76 725q0 154 60 294t161 241t240 161t292 60q155 0 295.5 -60t241.5 -161t161 -241t60 -294q0 -153 -60 -293t-161 -241.5t-241.5 -161.5t-295.5 -60q-152 0 -291.5 60t-240.5 161.5t-161 241.5t-60 293zM178 725q0 -176 87.5 -326.5t237.5 -238.5t326 -88q178 0 329 88 t239 238.5t88 326.5q0 177 -88 327t-239 237t-329 87q-176 0 -326 -87t-237.5 -237t-87.5 -327zM469 727q0 165 106.5 267t264.5 102q164 0 256 -101l-43 -75q-81 84 -211 84q-118 0 -195.5 -75t-77.5 -196q0 -124 70.5 -199t200.5 -75q152 0 260 125l47 -64 q-61 -75 -143 -113t-170 -38q-174 0 -269.5 97.5t-95.5 260.5z" />
<glyph unicode="&#x28;R&#x29;" horiz-adv-x="1665" d="M76 725q0 154 60 294t161 241t240 161t292 60q155 0 295.5 -60t241.5 -161t161 -241t60 -294q0 -153 -60 -293t-161 -241.5t-241.5 -161.5t-295.5 -60q-152 0 -291.5 60t-240.5 161.5t-161 241.5t-60 293zM178 725q0 -176 87.5 -326.5t237.5 -238.5t326 -88q178 0 329 88 t239 238.5t88 326.5q0 177 -88 327t-239 237t-329 87q-176 0 -326 -87t-237.5 -237t-87.5 -327zM537 381v719h272q66 0 121.5 -12t104 -37.5t76.5 -74t28 -114.5q0 -190 -232 -223l275 -258h-133l-244 235h-166v-235h-102zM639 692h170q225 0 225 162q0 88 -62.5 127 t-162.5 39h-170v-328z" />
<glyph horiz-adv-x="0" />
<glyph horiz-adv-x="682" />
<glyph horiz-adv-x="610" />
<glyph unicode=" "  horiz-adv-x="610" />
<glyph unicode="&#x09;" horiz-adv-x="610" />
<glyph unicode="&#xa0;" horiz-adv-x="610" />
<glyph unicode="!" horiz-adv-x="460" d="M135 780v697h191v-697l-43 -325h-107zM145 0v377h168v-377h-168z" />
<glyph unicode="&#x22;" horiz-adv-x="716" d="M86 1024v426h174v-426l-39 -315h-94zM444 1024v426h174v-426l-38 -315h-95z" />
<glyph unicode="#" horiz-adv-x="1118" d="M72 424v102h186l94 406h-229v102h254l98 416h125l-98 -416h280l99 416h127l-99 -416h133v-102h-157l-94 -406h200v-102h-225l-100 -424h-125l98 424h-281l-100 -424h-125l100 424h-161zM383 526h281l94 406h-281z" />
<glyph unicode="$" horiz-adv-x="1071" d="M51 389l103 90q66 -98 159 -140t219 -44q38 0 69.5 2t73 8t73 19t59.5 33t43.5 53t15.5 75q0 70 -39 105t-108 47q-37 6 -196 18t-240 39q-95 33 -151 105t-56 170q0 56 17.5 101.5t49 76.5t70 53.5t87 35.5t94 19.5t95.5 8.5v186h97v-188q210 -14 338 -113l-68 -127 q-120 104 -334 108q-35 0 -62.5 -1.5t-65 -6.5t-65 -16t-52.5 -27.5t-38.5 -44.5t-13.5 -65q0 -54 29 -89.5t74.5 -51t109.5 -25t124.5 -12t129.5 -10.5t115 -21q96 -29 149.5 -93.5t53.5 -162.5q0 -154 -123 -258q-100 -83 -301 -94v-152h-97v152q-315 11 -438 237z" />
<glyph unicode="%" horiz-adv-x="1699" d="M76 1110q0 168 87 271.5t249 103.5t249 -103.5t87 -271.5q0 -112 -32 -194.5t-109 -133.5t-195 -51t-195 51t-109 133.5t-32 194.5zM211 1106q0 -275 201 -275q108 0 154 72t46 203q0 127 -48.5 201.5t-151.5 74.5q-104 0 -152.5 -74.5t-48.5 -201.5zM221 -78l1112 1594 h129l-1110 -1594h-131zM952 344q0 168 87 271.5t249 103.5t249 -103.5t87 -271.5q0 -112 -32 -194.5t-109 -133.5t-195 -51t-195 51t-109 133.5t-32 194.5zM1087 340q0 -131 46.5 -202.5t154.5 -71.5t154.5 71.5t46.5 202.5q0 127 -48.5 201.5t-152.5 74.5t-152.5 -74.5 t-48.5 -201.5z" />
<glyph unicode="&#x26;" horiz-adv-x="1689" d="M53 475q0 157 90.5 282.5t239.5 190.5q-51 94 -51 193q0 67 23 121.5t64 90.5t91 61.5t111.5 39t118 19.5t116.5 6q129 0 233.5 -22.5t190.5 -84.5l-57 -129q-118 98 -340 98q-63 0 -123.5 -11.5t-114.5 -35t-87.5 -65.5t-33.5 -96q0 -136 121 -285q209 -259 537 -479 q213 226 293 583l104 -78q-77 -352 -279 -583q185 -110 377 -182l-71 -138q-215 72 -426 203q-250 -203 -566 -203q-117 0 -218 32.5t-178 94t-121 158.5t-44 219zM225 489q0 -92 33 -164t91 -117t133.5 -68t164.5 -23q229 0 410 145q-145 100 -282 231t-306 330 q-244 -136 -244 -334z" />
<glyph unicode="'" horiz-adv-x="358" d="M86 1024v426h174v-426l-39 -315h-94z" />
<glyph unicode="(" horiz-adv-x="749" d="M195 465v518q0 171 33.5 303t97.5 222.5t146 149t190 97.5l49 -104q-200 -75 -294.5 -237t-94.5 -429v-518q0 -275 99 -437.5t290 -232.5l-49 -106q-108 39 -190 97.5t-146 149t-97.5 223.5t-33.5 304z" />
<glyph unicode=")" horiz-adv-x="749" d="M41 -203q192 70 291.5 232.5t99.5 437.5v518q0 266 -95.5 428.5t-295.5 237.5l51 104q85 -31 153.5 -73t128 -106.5t99 -147t62 -195.5t22.5 -250v-518q0 -138 -22.5 -251t-62 -196t-99 -147.5t-127.5 -106.5t-154 -73z" />
<glyph unicode="*" horiz-adv-x="978" d="M37 1094l51 127l344 -129l-22 358h159l-24 -360l350 131l45 -129l-362 -97l235 -278l-129 -86l-195 301l-204 -299l-123 86l235 274z" />
<glyph unicode="+" horiz-adv-x="1316" d="M123 696v115h477v477h117v-477h477v-115h-477v-477h-117v477h-477z" />
<glyph unicode="," horiz-adv-x="421" d="M100 -330l72 328l-41 14v402h188v-394l-159 -350h-60z" />
<glyph unicode="-" horiz-adv-x="823" d="M59 561v137h703v-137h-703z" />
<glyph unicode="." horiz-adv-x="391" d="M100 0v414h191v-414h-191z" />
<glyph unicode="/" horiz-adv-x="1028" d="M10 -195l887 1727h121l-887 -1727h-121z" />
<glyph unicode="0" horiz-adv-x="1488" d="M86 731q0 130 26.5 243t80.5 206t132 159.5t185.5 103t237.5 36.5q160 0 286 -56t206.5 -157t122.5 -236.5t42 -298.5q0 -133 -22.5 -245.5t-72.5 -208.5t-125.5 -163t-186.5 -105t-250 -38q-141 0 -252.5 38t-187.5 105t-126.5 163t-73 208.5t-22.5 245.5zM270 725 q0 -138 25.5 -246.5t80.5 -192t149 -128.5t223 -45q473 0 473 612q0 134 -28 243.5t-84 193t-148 129.5t-213 46q-122 0 -215 -46t-150 -129.5t-85 -193t-28 -243.5z" />
<glyph unicode="1" horiz-adv-x="450" d="M127 0v1419l154 60h28v-1479h-182z" />
<glyph unicode="2" horiz-adv-x="1280" d="M66 0v74q0 180 58 311.5t202 202.5q87 44 267.5 86.5t244.5 66.5q97 35 148.5 108t51.5 177q0 79 -34 138.5t-91.5 92.5t-123 48.5t-138.5 15.5q-155 0 -276 -71.5t-162 -213.5l-125 86q57 179 210.5 268t352.5 89q86 0 164 -15.5t148.5 -50t122 -86t82 -127.5t30.5 -170 q0 -58 -10.5 -109t-26.5 -90t-45 -74t-56 -60.5t-70 -49t-76.5 -38.5t-86 -32t-88 -27t-92.5 -24q-54 -14 -85.5 -23t-78.5 -26.5t-75 -35t-61 -46t-50.5 -62.5t-30 -81.5t-12.5 -104.5h922v-147h-1110z" />
<glyph unicode="3" horiz-adv-x="1335" d="M18 358l162 64q31 -86 78.5 -146.5t109.5 -94t129.5 -48t149.5 -14.5q225 0 341 86t116 272q0 142 -94.5 218.5t-243.5 76.5q-92 0 -197 -31l-67 62l434 506h-766v141h1053v-27l-488 -557q40 11 103 11q189 0 311.5 -108.5t122.5 -291.5q0 -127 -49 -226t-135 -159 t-197 -90.5t-242 -30.5q-108 0 -197 18.5t-172.5 61t-149.5 120t-112 187.5z" />
<glyph unicode="4" horiz-adv-x="1380" d="M16 487l947 963h165v-987h236v-146h-236v-317h-170v317h-897zM190 463h768v774z" />
<glyph unicode="5" horiz-adv-x="1320" d="M47 369l154 65q66 -157 178.5 -229t306.5 -72q82 0 154 19.5t132.5 61t96 114.5t35.5 170q0 98 -35 170.5t-95.5 113t-130.5 59.5t-151 19q-248 0 -454 -158l-115 56l45 692h971v-141h-832l-33 -435q203 123 459 123q112 0 206.5 -29.5t168 -88.5t115 -156t41.5 -223 q0 -129 -46 -231.5t-126 -166.5t-184 -97.5t-224 -33.5q-229 0 -384.5 90.5t-252.5 307.5z" />
<glyph unicode="6" horiz-adv-x="1390" d="M86 709q0 164 44.5 303.5t127.5 244t211.5 163.5t288.5 59q190 0 320 -67t214 -232l-135 -64q-65 120 -153 170.5t-220 50.5q-530 0 -530 -671q80 127 224.5 211t340.5 84q105 0 194 -25t160.5 -76t112.5 -138t41 -202q0 -139 -48 -246t-133 -172t-193.5 -98t-235.5 -33 q-294 0 -462.5 189.5t-168.5 548.5zM270 506q37 -183 148.5 -289t296.5 -106q122 0 218 43t155 136.5t59 225.5q0 307 -354 307q-177 0 -310 -85t-213 -232z" />
<glyph unicode="7" horiz-adv-x="1142" d="M29 1305v145h1091v-127q-176 -171 -324.5 -382.5t-253 -462.5t-120.5 -478h-195q9 176 72 362t164 354t223.5 317t259.5 272h-917z" />
<glyph unicode="8" horiz-adv-x="1363" d="M66 416q0 89 31 155.5t87.5 107.5t120.5 64.5t146 36.5q-69 8 -127 31t-105 62.5t-73.5 101t-26.5 139.5q0 75 25 135t70 98.5t98.5 65.5t120.5 41t126 19.5t123 5.5t123 -5.5t126 -19.5t120.5 -41t98.5 -65.5t70 -98.5t25 -135q0 -78 -26.5 -139.5t-73.5 -101 t-105 -62.5t-127 -31q65 -11 117.5 -27t103.5 -44.5t85.5 -67.5t55.5 -96t21 -129q0 -76 -19 -139.5t-51.5 -108.5t-79.5 -80t-99 -57t-115 -35.5t-123 -19t-127 -5.5t-127.5 5.5t-123.5 19t-115.5 35.5t-99.5 57t-79.5 80t-51.5 108.5t-19 139.5zM233 420q0 -73 27.5 -129 t71 -89.5t104.5 -55t120 -29.5t126 -8q85 0 158 14t141.5 46.5t108.5 96.5t40 154q0 68 -28 120t-72 83t-105.5 50.5t-119.5 26.5t-123 7t-123 -7t-119.5 -26.5t-105.5 -50.5t-72.5 -83t-28.5 -120zM281 1083q0 -62 25.5 -109.5t65 -74.5t95 -44t106.5 -22.5t109 -5.5 q75 0 138.5 10t126.5 36t99.5 79.5t36.5 130.5q0 62 -25.5 109.5t-65.5 76t-95 46.5t-107 24.5t-108 6.5t-108 -6.5t-107 -24.5t-95 -46.5t-65.5 -76t-25.5 -109.5z" />
<glyph unicode="9" horiz-adv-x="1390" d="M70 946q0 133 47.5 236.5t130.5 167.5t191 96.5t235 32.5q294 0 462.5 -189.5t168.5 -548.5q0 -164 -44.5 -304t-127.5 -244t-211.5 -163t-288.5 -59q-191 0 -321.5 66.5t-213.5 232.5l135 62q65 -120 153 -170.5t222 -50.5q139 0 242 48t165 136t92 203.5t30 259.5v37 q-37 -60 -89.5 -112.5t-122.5 -98t-161.5 -71.5t-192.5 -26q-83 0 -156 15t-137 50t-109.5 87t-72 130.5t-26.5 176.5zM250 952q0 -327 348 -327q179 0 313.5 86t208.5 239q-37 185 -148 291.5t-296 106.5q-122 0 -216.5 -43t-152 -134t-57.5 -219z" />
<glyph unicode=":" horiz-adv-x="450" d="M131 0v414h191v-414h-191zM131 688v414h191v-414h-191z" />
<glyph unicode=";" horiz-adv-x="481" d="M131 -330l70 328l-39 14v402h188v-394l-164 -350h-55zM162 686v416h188v-416h-188z" />
<glyph unicode="&#x3c;" horiz-adv-x="1316" d="M123 668v80l1071 509v-127l-907 -421l907 -420v-133z" />
<glyph unicode="=" horiz-adv-x="1316" d="M123 432v115h1071v-115h-1071zM123 944v117h1071v-117h-1071z" />
<glyph unicode="&#x3e;" horiz-adv-x="1316" d="M123 156v133l905 420l-905 421v127l1071 -509v-80z" />
<glyph unicode="?" horiz-adv-x="1087" d="M33 1061q65 416 510 416q134 0 240 -43.5t171.5 -135t65.5 -219.5q0 -74 -20.5 -134.5t-61 -108t-85 -81.5t-108.5 -71q-76 -43 -108.5 -88.5t-32.5 -138.5h-135q-2 14 -2 39q0 68 21 120.5t54.5 86t73.5 61.5t80.5 55.5t74 60.5t54.5 84.5t21 118.5q0 110 -81.5 172 t-215.5 62q-173 0 -258 -73.5t-109 -231.5zM457 0v371h164v-371h-164z" />
<glyph unicode="@" horiz-adv-x="1380" d="M80 489q0 181 42 327t125.5 253t215.5 165t305 58q123 0 213 -25.5t145 -69t88 -111t44.5 -140t11.5 -168.5v-583h-408q-174 0 -255 82.5t-81 273.5q0 174 78 256t246 82q211 0 295 -84q-8 69 -20 119.5t-38 100.5t-64.5 81t-102 50.5t-148.5 19.5q-188 0 -316 -86.5 t-188.5 -239t-60.5 -363.5q0 -110 25 -210t76.5 -186t125 -149t177 -99t225.5 -36q257 0 440 191l67 -82q-118 -123 -246 -176t-276 -53q-151 0 -276.5 46t-210.5 124t-143 182t-84.5 217t-26.5 233zM657 549q0 -129 52.5 -184.5t167.5 -55.5h264v365q-48 98 -279 98 q-107 0 -156 -54t-49 -169z" />
<glyph unicode="A" horiz-adv-x="1716" d="M16 0l822 1450h45l815 -1450h-205l-121 217h-1032l-119 -217h-205zM418 358h876l-440 797z" />
<glyph unicode="B" horiz-adv-x="1400" d="M123 0v1450h653q218 0 341.5 -89t123.5 -259q0 -127 -68 -206t-215 -114q181 -12 283 -105.5t102 -256.5q0 -213 -142.5 -316.5t-412.5 -103.5h-665zM313 162h385q88 0 153.5 6.5t124.5 24.5t96.5 48.5t59 80t21.5 116.5q0 42 -11 76.5t-27.5 59.5t-46 45t-56.5 33 t-69 22t-74 13.5t-81 7t-80 3t-81 0.5h-314v-536zM313 831h320q54 0 93 1.5t87 7t81 15t67.5 26.5t55 41.5t33.5 60.5t13 82q0 61 -20.5 105t-51.5 68.5t-80.5 38t-94 17.5t-105.5 4h-398v-467z" />
<glyph unicode="C" horiz-adv-x="1437" d="M78 709q0 174 56.5 320t153.5 244t228.5 152t280.5 54q316 0 493 -207l-98 -142q-137 170 -393 170q-160 0 -281.5 -77.5t-184.5 -211t-63 -302.5q0 -253 140.5 -406t382.5 -153q138 0 264 63t221 190l111 -120q-115 -153 -275.5 -232.5t-331.5 -79.5q-223 0 -383.5 94.5 t-240.5 259.5t-80 384z" />
<glyph unicode="D" horiz-adv-x="1562" d="M123 0v1450h688q117 0 215 -20t184 -68t145.5 -122t93.5 -187.5t34 -259.5q0 -178 -59.5 -327t-165.5 -251t-253.5 -158.5t-320.5 -56.5h-561zM315 168h379q267 0 434.5 167t167.5 451q0 258 -131 382t-360 124h-490v-1124z" />
<glyph unicode="E" horiz-adv-x="1382" d="M123 0v1450h1122v-156h-930v-473h627v-143h-627v-516h979v-162h-1171z" />
<glyph unicode="F" horiz-adv-x="1292" d="M123 0v1450h1106v-156h-914v-555h611v-155h-611v-584h-192z" />
<glyph unicode="G" horiz-adv-x="1562" d="M78 721q0 231 98 403.5t275.5 263.5t412.5 91q148 0 276 -40.5t203 -115.5l-83 -141q-72 64 -174 98.5t-220 34.5q-269 0 -433.5 -161.5t-164.5 -440.5q0 -271 151 -422.5t396 -151.5q235 0 363 136.5t131 351.5h-502v143h678q6 -52 6 -108q0 -312 -184 -501.5 t-500 -189.5q-157 0 -289.5 48.5t-231 140.5t-153.5 236t-55 325z" />
<glyph unicode="H" horiz-adv-x="1564" d="M123 0v1450h192v-557h934v557h193v-1450h-193v729h-934v-729h-192z" />
<glyph unicode="I" horiz-adv-x="440" d="M123 0v1450h194v-1450h-194z" />
<glyph unicode="J" horiz-adv-x="1028" d="M47 0v162h242q225 0 334.5 111.5t109.5 351.5v825h182v-825q0 -321 -159.5 -473t-466.5 -152h-242z" />
<glyph unicode="K" horiz-adv-x="1417" d="M123 0v1450h192v-594l789 594h254l-875 -643l918 -807h-256l-830 731v-731h-192z" />
<glyph unicode="L" horiz-adv-x="1210" d="M123 0v1450h192v-1288h826v-162h-1018z" />
<glyph unicode="M" horiz-adv-x="1687" d="M119 0v1450h39l686 -1096l684 1096h39v-1450h-178v891l-545 -866l-545 866v-891h-180z" />
<glyph unicode="N" horiz-adv-x="1460" d="M119 0v1450h51l987 -1063v1063h182v-1450h-30l-1008 1069v-1069h-182z" />
<glyph unicode="O" d="M78 725q0 207 96.5 379t272 273.5t393.5 101.5q217 0 392.5 -101t272.5 -273.5t97 -379.5q0 -206 -97 -378t-272.5 -274t-392.5 -102q-218 0 -393.5 102t-272 274t-96.5 378zM264 729q0 -160 72 -293.5t205 -213t299 -79.5t299 79t205.5 213t72.5 294t-72 293.5 t-203.5 212t-295.5 78.5q-167 0 -301 -78.5t-207.5 -211.5t-73.5 -294z" />
<glyph unicode="P" horiz-adv-x="1398" d="M123 0v1450h635q127 0 232.5 -32.5t184 -95.5t122.5 -162t44 -226q0 -126 -44 -226t-122.5 -164.5t-184.5 -98t-232 -33.5h-447v-412h-188zM311 559h432q193 0 302.5 95t109.5 276t-108.5 273.5t-296.5 92.5h-439v-737z" />
<glyph unicode="Q" d="M78 725q0 207 97.5 379t272 273t390.5 102h4q211 0 384 -97q175 -99 275.5 -272.5t100.5 -386.5q0 -179 -74 -332.5t-212.5 -256t-318.5 -130.5l519 -70l-82 -135l-713 170q-293 70 -468 266.5t-175 489.5zM266 729q0 -160 72 -293.5t205 -213t299 -79.5t299 79 t205.5 213t72.5 294t-72 293.5t-203 212.5q-130 78 -292 78h-4q-168 -1 -301.5 -79t-207 -211t-73.5 -294z" />
<glyph unicode="R" horiz-adv-x="1464" d="M123 0v1450h549q104 0 196 -13.5t179 -47.5t149 -87t99.5 -136.5t37.5 -190.5q0 -88 -26.5 -160t-72 -122t-109.5 -87t-134.5 -57.5t-152.5 -30.5l610 -518h-254l-553 487h-326v-487h-192zM315 625h357q96 0 177 17.5t149.5 55t107.5 104.5t39 159q0 93 -39 160.5 t-108 104.5t-149.5 53.5t-176.5 16.5h-357v-671z" />
<glyph unicode="S" horiz-adv-x="1306" d="M43 293l125 108q176 -264 494 -264q59 0 114.5 8t113 29t100.5 52.5t70 83.5t27 118q0 43 -14.5 77.5t-34.5 57.5t-56 41t-65 28t-77 17.5t-74.5 10.5t-75.5 7q-8 1 -12 1q-82 6 -129 11.5t-113.5 19.5t-122.5 36q-113 45 -176 131t-63 205q0 95 35 168.5t90 118 t131.5 72.5t151.5 38.5t159 10.5q339 0 526 -148l-77 -149q-95 80 -214 107.5t-272 27.5q-47 0 -90 -5t-92 -20t-84 -39t-58.5 -67.5t-23.5 -100.5q0 -94 49 -145.5t150 -75.5q84 -21 257.5 -37.5t252.5 -35.5q139 -35 215.5 -123t76.5 -226q0 -104 -35 -187t-92.5 -135 t-135.5 -86.5t-158.5 -48.5t-167.5 -14q-456 0 -625 322z" />
<glyph unicode="T" horiz-adv-x="1458" d="M43 1296v154h1368v-154h-588v-1296h-192v1296h-588z" />
<glyph unicode="U" horiz-adv-x="1488" d="M109 672v778h190v-801q0 -240 114 -374t343 -134q219 0 329.5 130t110.5 378v801h186v-778q0 -341 -156.5 -521t-469.5 -180q-315 0 -481 181t-166 520z" />
<glyph unicode="V" horiz-adv-x="1658" d="M16 1450h213l586 -1131l617 1131h210l-813 -1450h-43z" />
<glyph unicode="W" horiz-adv-x="2097" d="M16 1450h193l393 -1063l436 1063h43l422 -1053l389 1053h191l-561 -1450h-39l-422 1092l-451 -1092h-39z" />
<glyph unicode="X" horiz-adv-x="1685" d="M16 0l695 752q-670 694 -674 698h246q431 -452 551 -576l536 576h225l-651 -702l725 -748h-250q-53 56 -268.5 281t-331.5 348l-581 -629h-222z" />
<glyph unicode="Y" horiz-adv-x="1593" d="M16 1450h226l555 -659l555 659h223l-688 -817v-633h-187v633z" />
<glyph unicode="Z" horiz-adv-x="1361" d="M41 0v31l981 1257h-905v162h1204v-35l-965 -1253h928v-162h-1243z" />
<glyph unicode="[" horiz-adv-x="600" d="M178 -309v2064h352v-115h-221v-1835h221v-114h-352z" />
<glyph unicode="\" horiz-adv-x="1093" d="M10 1677h121l952 -1835h-120z" />
<glyph unicode="]" horiz-adv-x="600" d="M66 -195h223v1835h-223v115h352v-2064h-352v114z" />
<glyph unicode="^" horiz-adv-x="1146" d="M88 532l434 918h99l438 -918h-166l-322 721l-319 -721h-164z" />
<glyph unicode="_" horiz-adv-x="1169" d="M-2 -176h1173v-113h-1173v113z" />
<glyph unicode="`" horiz-adv-x="862" d="M121 1587h225l393 -426h-145z" />
<glyph unicode="a" horiz-adv-x="1114" d="M63 338q0 167 115.5 255.5t300.5 88.5q260 0 387 -154v27q0 105 -22 175t-69.5 110t-113.5 56.5t-163 16.5h-303v142h311q275 0 394.5 -131t119.5 -420v-504h-127l-12 178q-131 -207 -414 -207q-186 0 -295 95.5t-109 271.5zM213 338q0 -117 82 -174.5t211 -57.5 q260 0 371 209v78q-59 82 -157.5 124t-211.5 42q-86 0 -150 -21t-104.5 -72t-40.5 -128z" />
<glyph unicode="b" horiz-adv-x="1247" d="M115 0v1479h159v-637q47 96 162 168.5t273 72.5q120 0 211 -44.5t144.5 -122t80 -175t26.5 -211.5q0 -91 -16 -171.5t-52 -152.5t-88.5 -123.5t-131 -81.5t-174.5 -30q-159 0 -280.5 74.5t-166.5 167.5l-14 -213h-133zM274 399q26 -76 73 -135t129.5 -99t187.5 -40 q93 0 161.5 31t108 87t58 127.5t18.5 159.5q0 89 -18.5 161.5t-58 130t-108 89t-161.5 31.5q-156 0 -253 -80.5t-137 -208.5v-254z" />
<glyph unicode="c" horiz-adv-x="1120" d="M68 522q0 254 149 407.5t385 153.5q323 0 457 -264l-125 -76q-103 201 -328 201q-169 0 -272 -114.5t-103 -303.5q0 -181 97 -295t270 -114q131 0 223.5 67.5t134.5 177.5l123 -71q-48 -138 -176 -229t-315 -91q-222 0 -371 156t-149 395z" />
<glyph unicode="d" horiz-adv-x="1247" d="M74 530q0 114 27 211.5t81 175t145 122t210 44.5q158 0 273 -73t161 -168v637h159v-1479h-133l-12 213q-47 -94 -168.5 -168t-279.5 -74q-119 0 -210 45.5t-145 124t-81 177t-27 212.5zM238 530q0 -89 18 -160t57.5 -127t107.5 -87t161 -31q154 0 251 77t138 197v254 q-40 129 -137 209t-252 80q-93 0 -161 -31.5t-107.5 -89t-57.5 -130t-18 -161.5z" />
<glyph unicode="e" horiz-adv-x="1202" d="M78 545q0 121 42 223t114.5 170.5t170.5 106.5t209 38q202 0 334.5 -122.5t159.5 -325.5l-852 -248q40 -122 135.5 -199t229.5 -77q129 0 233 71.5t141 200.5l135 -45q-54 -176 -197.5 -272.5t-330.5 -96.5q-150 0 -270 76t-187 207.5t-67 292.5zM231 541q0 -31 2 -47 l703 206q-63 246 -332 246q-165 0 -269 -110.5t-104 -294.5z" />
<glyph unicode="f" horiz-adv-x="671" d="M18 938l11 117h90q0 220 118.5 329t319.5 109q34 0 74 -4v-127q-20 2 -66 2q-130 0 -205 -64t-75 -192v-53h331v-117h-335v-938h-164v938h-99z" />
<glyph unicode="g" horiz-adv-x="1214" d="M61 555q0 246 127.5 387t329.5 141q177 0 284 -60.5t163 -178.5l14 211h125v-889q0 -93 -18 -170t-48.5 -132t-74.5 -98t-92.5 -69.5t-106 -43.5t-111.5 -23.5t-112 -6.5q-129 0 -203 21v139q75 -21 194 -21q94 0 167 20t130.5 65t88 125.5t30.5 193.5v127 q-49 -113 -155.5 -181.5t-280.5 -68.5q-196 0 -323.5 140.5t-127.5 371.5zM215 569q0 -180 89 -285.5t251 -105.5q293 0 395 287v221q-101 266 -395 266q-163 0 -251.5 -101.5t-88.5 -281.5z" />
<glyph unicode="h" horiz-adv-x="1169" d="M115 0v1479h159v-629q65 116 173.5 174.5t234.5 58.5q176 0 277.5 -89.5t101.5 -264.5v-729h-158v688q0 134 -66 197t-208 63q-107 0 -204 -68t-151 -202v-678h-159z" />
<glyph unicode="i" horiz-adv-x="403" d="M123 0v1055h156v-1055h-156zM123 1161v318h158v-318h-158z" />
<glyph unicode="j" horiz-adv-x="462" d="M-170 -233q41 -9 78 -9q121 0 195.5 78.5t74.5 218.5v1000h158v-996q0 -206 -112 -321t-300 -115q-77 0 -94 10v134zM176 1161v318h160v-318h-160z" />
<glyph unicode="k" horiz-adv-x="1171" d="M115 0v1479h159v-832l609 408h213l-693 -461l752 -594h-221l-660 530v-530h-159z" />
<glyph unicode="l" horiz-adv-x="393" d="M115 0v1479h159v-1479h-159z" />
<glyph unicode="m" horiz-adv-x="1835" d="M115 0v1055h131l14 -205q56 114 162.5 173.5t224.5 59.5q134 0 222 -60.5t112 -174.5q40 80 107 134.5t139 77.5t149 23q161 0 254.5 -88t93.5 -254v-741h-151v700q0 125 -61 186.5t-189 61.5q-63 0 -122.5 -26t-114.5 -87t-89 -151v-684h-151v700q0 125 -62 186.5 t-190 61.5q-98 0 -186 -68t-136 -202v-678h-157z" />
<glyph unicode="n" horiz-adv-x="1163" d="M115 0v1055h131l14 -205q64 115 178.5 174t241.5 59q176 0 277.5 -89.5t101.5 -264.5v-729h-156v688q0 134 -67 197t-209 63q-107 0 -203.5 -68t-149.5 -202v-678h-159z" />
<glyph unicode="o" horiz-adv-x="1216" d="M68 506q0 265 151 421t389 156q155 0 276.5 -68.5t192 -200.5t70.5 -308q0 -151 -63 -271t-186.5 -192t-289.5 -72q-165 0 -289 71.5t-187.5 192.5t-63.5 271zM231 514q0 -172 100.5 -285.5t276.5 -113.5q175 0 276 113.5t101 285.5q0 194 -105 309t-272 115 q-168 0 -272.5 -115t-104.5 -309z" />
<glyph unicode="p" horiz-adv-x="1243" d="M111 -360v1415h133l14 -213q45 93 166.5 167t280.5 74q96 0 174.5 -30t131 -81.5t88.5 -123.5t52 -152.5t16 -171.5q0 -114 -26.5 -211.5t-80 -175t-144.5 -122t-211 -44.5q-158 0 -272.5 73t-162.5 169v-573h-159zM270 414q40 -129 137 -209t252 -80q93 0 161.5 32 t108.5 89.5t58.5 129.5t18.5 161q0 88 -18.5 159.5t-58.5 127.5t-108.5 87t-161.5 31q-154 0 -251 -77t-138 -197v-254z" />
<glyph unicode="q" horiz-adv-x="1243" d="M74 524q0 114 27 212.5t81 177t145 124t210 45.5q159 0 280 -74t168 -167l12 213h133v-1415h-159v573q-46 -96 -161 -169t-273 -73q-119 0 -210 44.5t-145 122t-81 175t-27 211.5zM238 537q0 -89 18 -161t57.5 -129.5t107.5 -89.5t161 -32q155 0 252 80t137 209v254 q-41 120 -138 197t-251 77q-93 0 -161 -31t-107.5 -87t-57.5 -127t-18 -160z" />
<glyph unicode="r" horiz-adv-x="919" d="M111 0v1055h133l16 -226q132 254 365 254q131 0 199 -72.5t81 -199.5l-135 -70q-15 111 -60.5 162t-125.5 51q-192 0 -314 -297v-657h-159z" />
<glyph unicode="s" horiz-adv-x="1048" d="M43 209l102 90q66 -98 159.5 -140t219.5 -44q38 0 69.5 2t73 8t73 19t59.5 33t43.5 53t15.5 75q0 70 -39 105t-108 47q-37 6 -196.5 18t-240.5 39q-95 33 -150.5 104.5t-55.5 169.5q0 70 28.5 124t72 85.5t104.5 51.5t117.5 27t119.5 7q257 0 405 -114l-67 -127 q-120 104 -334 108q-35 0 -62.5 -1.5t-65 -6.5t-65 -16t-52.5 -28t-38.5 -45t-13.5 -65q0 -64 39 -101.5t107 -51.5t139 -19.5t157.5 -13t139.5 -22.5q95 -29 148.5 -93.5t53.5 -162.5q0 -155 -122 -258q-115 -95 -367 -95q-338 0 -469 238z" />
<glyph unicode="t" horiz-adv-x="645" d="M18 938l11 117h90v254l135 73h22v-327h293v-117h-295v-588q0 -72 18.5 -123.5t50 -77.5t66 -37.5t74.5 -11.5q63 0 113 21v-117q-55 -33 -172 -33q-309 0 -309 377v590h-97z" />
<glyph unicode="u" horiz-adv-x="1138" d="M109 326v729h155v-688q0 -135 63 -198t201 -63q104 0 195.5 68t144.5 203v678h160v-1055h-133l-14 205q-62 -116 -169 -175t-231 -59q-173 0 -272.5 90t-99.5 265z" />
<glyph unicode="v" horiz-adv-x="1189" d="M16 1055h174l396 -795l420 795h165l-577 -1055h-33z" />
<glyph unicode="w" horiz-adv-x="1527" d="M16 1055h172l263 -736l305 736h35l292 -736l263 736h165l-401 -1055h-33l-307 766l-313 -766h-31z" />
<glyph unicode="x" horiz-adv-x="1316" d="M16 0l529 545l-512 510h209l409 -414l396 414h194l-496 -506l555 -549h-213l-448 451l-430 -451h-193z" />
<glyph unicode="y" horiz-adv-x="1177" d="M109 481v574h163v-592q0 -131 64.5 -196.5t202.5 -65.5q102 0 171 31t112.5 87.5t86.5 155.5v580h160v-889q0 -126 -33.5 -225t-84.5 -157t-119 -96t-129.5 -51.5t-124.5 -13.5q-135 0 -191 21v137q68 -21 168 -21q168 0 260 106.5t92 297.5v117q-113 -215 -407 -215 q-206 0 -298.5 106t-92.5 309z" />
<glyph unicode="z" horiz-adv-x="991" d="M37 0v31l663 882h-630v142h886v-35l-655 -870h629v-150h-893z" />
<glyph unicode="{" horiz-adv-x="722" d="M100 684v115h66q48 0 64 36t16 123v496q0 301 250 301h166v-117h-146q-73 0 -108 -41t-35 -143v-520q0 -72 -22.5 -123.5t-65.5 -69.5q43 -17 65.5 -69t22.5 -127v-539q0 -102 35 -149t106 -47h148v-117h-164q-122 0 -187 70.5t-65 238.5v520q0 89 -17 125.5t-63 36.5 h-66z" />
<glyph unicode="|" horiz-adv-x="528" d="M199 -360v2209h129v-2209h-129z" />
<glyph unicode="}" horiz-adv-x="735" d="M63 -190h148q71 0 106 47t35 149v539q0 75 22.5 127t65.5 69q-43 18 -65.5 69.5t-22.5 123.5v520q0 102 -35 143t-108 41h-146v117h166q250 0 250 -301v-496q0 -87 16 -123t64 -36h66v-115h-66q-46 0 -63 -36.5t-17 -125.5v-520q0 -168 -65 -238.5t-187 -70.5h-164v117z " />
<glyph unicode="~" horiz-adv-x="1214" d="M123 612v144q106 121 233 121q63 0 132 -26.5t120.5 -58.5t116.5 -58.5t121 -26.5q54 0 111.5 32.5t134.5 120.5v-147q-110 -119 -236 -119q-51 0 -103 17.5t-97.5 42t-90.5 49t-97 42t-103 17.5q-52 0 -105.5 -32t-136.5 -118z" />
<glyph unicode="&#xa1;" horiz-adv-x="460" d="M135 0v696l43 326h107l41 -326v-696h-191zM147 1100v377h168v-377h-168z" />
<glyph unicode="&#xa2;" horiz-adv-x="1107" d="M57 702q0 237 131 388t344 170v190h97v-188q291 -17 418 -263l-125 -77q-106 200 -328 200q-169 0 -272 -114t-103 -303q0 -180 97.5 -295t269.5 -115q132 0 225 68t135 178l121 -70q-44 -128 -158 -217t-280 -102v-152h-97v154q-205 15 -340 167.5t-135 380.5z" />
<glyph unicode="&#xa3;" horiz-adv-x="1253" d="M80 0v102q88 57 135 192.5t47 266.5q0 17 -4 53h-170v127h139q-5 14 -21 58t-23 65.5t-17.5 58t-14.5 68.5t-4 64q0 210 144.5 317t396.5 107q100 0 178.5 -17t148.5 -56.5t119.5 -110.5t77.5 -173l-127 -88q-40 157 -134.5 228t-239.5 71q-178 0 -277.5 -80.5 t-99.5 -240.5q0 -40 8.5 -81t29.5 -108t25 -82h494v-127h-475q-2 -132 -34 -261.5t-99 -192.5h886v-160h-1089z" />
<glyph unicode="&#xa4;" horiz-adv-x="1208" d="M100 291l148 141q-111 114 -111 262q0 147 115 262l-150 146l74 78l156 -154q124 80 268 80q151 0 277 -88l157 153l74 -79l-152 -146q105 -113 105 -252t-105 -256l148 -143l-72 -78l-153 152q-125 -88 -279 -88t-272 81l-154 -149zM231 694q0 -138 108 -236t261 -98 q152 0 260.5 98t108.5 236q0 137 -108.5 234.5t-260.5 97.5q-153 0 -261 -97.5t-108 -234.5z" />
<glyph unicode="&#xa5;" horiz-adv-x="1347" d="M57 1450h211l412 -485l410 485h198l-520 -600v-55h465v-127h-469v-279h469v-127h-469v-262h-176v262h-473v127h473v279h-473v127h458v55z" />
<glyph unicode="&#xa6;" horiz-adv-x="528" d="M199 -360v899h129v-899h-129zM199 950v899h129v-899h-129z" />
<glyph unicode="&#xa7;" horiz-adv-x="1134" d="M76 106l86 78q54 -100 153.5 -147t221.5 -47q58 0 114 11t109 35t86 68.5t33 104.5q0 96 -74.5 138t-237.5 48q-51 2 -90.5 5.5t-90.5 12t-88.5 22t-77 37t-64 54.5t-40.5 76.5t-16 102.5q0 200 254 249q-113 28 -172 81.5t-59 150.5q0 69 28.5 122.5t73 85t105 51.5 t116.5 27t117 7q269 0 402 -117l-56 -102q-121 100 -334 100q-51 0 -97 -6.5t-97.5 -24t-82 -56.5t-30.5 -95q0 -39 15 -70.5t43 -51t59.5 -33t74 -21t75.5 -10.5t75 -5q75 -3 131 -9.5t118.5 -26t102.5 -51t66.5 -86t26.5 -128.5q0 -200 -232 -252q91 -20 146 -76.5 t55 -150.5q0 -77 -30 -138t-77.5 -98t-112.5 -61t-129 -33.5t-132 -9.5q-341 0 -467 239zM240 692q0 -57 26 -97t75 -60.5t106 -29.5t131 -9t131 9t105.5 29.5t74.5 60.5t26 97q0 195 -337 195q-338 0 -338 -195z" />
<glyph unicode="&#xa8;" horiz-adv-x="931" d="M123 1161v318h156v-318h-156zM653 1161v318h156v-318h-156z" />
<glyph unicode="&#xaa;" horiz-adv-x="741" d="M94 799q0 97 65.5 145.5t162.5 48.5q118 0 186 -63v18q0 45 -11.5 73t-37 41t-52.5 17t-71 4h-168v111h174q152 0 220.5 -67t68.5 -222v-291h-101l-10 66q-68 -82 -205 -82q-97 0 -159 51.5t-62 149.5zM215 799q0 -92 133 -92q108 0 168 75v43q-30 33 -76.5 51.5 t-93.5 18.5q-131 0 -131 -96z" />
<glyph unicode="&#xab;" horiz-adv-x="1110" d="M59 606l324 391h113l-287 -391l287 -393h-113zM614 606l324 391h113l-287 -391l287 -393h-113z" />
<glyph unicode="&#xac;" horiz-adv-x="1177" d="M84 586v133h971v-719h-135v586h-836z" />
<glyph unicode="&#xad;" horiz-adv-x="823" d="M59 561v137h703v-137h-703z" />
<glyph unicode="&#xaf;" horiz-adv-x="1232" d="M123 1309v131h987v-131h-987z" />
<glyph unicode="&#xb0;" horiz-adv-x="980" d="M90 1229q0 161 97.5 260.5t299.5 99.5q205 0 303.5 -99.5t98.5 -260.5q0 -78 -22.5 -142.5t-69.5 -115t-126 -79t-184 -28.5q-104 0 -182 28.5t-124 79t-68.5 115t-22.5 142.5zM193 1231q0 -123 71 -199t223 -76t224.5 76.5t72.5 198.5q0 121 -72 194.5t-225 73.5 q-152 0 -223 -73t-71 -195z" />
<glyph unicode="&#xb1;" horiz-adv-x="1316" d="M123 -20v114h1071v-114h-1071zM123 696v115h477v477h117v-477h477v-115h-477v-477h-117v477h-477z" />
<glyph unicode="&#xb2;" horiz-adv-x="708" d="M61 745v37q0 192 127 269q35 21 100 37.5t112.5 27.5t84.5 45t37 92q0 33 -15 57.5t-40.5 36.5t-52 17.5t-56.5 5.5q-157 0 -194 -125l-90 62q31 92 106.5 135t177.5 43q77 0 138.5 -22.5t102 -76t40.5 -131.5q0 -61 -19 -105.5t-49.5 -68t-70 -41t-80.5 -25.5 t-80.5 -20.5t-70 -26.5t-49.5 -43.5t-19 -72.5h426v-107h-566z" />
<glyph unicode="&#xb3;" horiz-adv-x="737" d="M39 924l117 47q43 -133 200 -133q103 0 150 33.5t47 115.5q0 64 -39.5 95.5t-105.5 31.5q-51 0 -97 -14l-49 43l180 225h-327v102h536v-18l-221 -264q2 0 13.5 1t19.5 1q93 0 153 -55t60 -148q0 -87 -45 -146.5t-114.5 -84.5t-158.5 -25q-74 0 -130.5 16t-107.5 60 t-81 117z" />
<glyph unicode="&#xb4;" horiz-adv-x="862" d="M121 1161l393 426h225l-475 -426h-143z" />
<glyph unicode="&#xb5;" horiz-adv-x="1157" d="M115 -360v1415h157v-690q0 -131 64 -196t205 -65q84 0 173 61t156 204v686h164v-1055h-139l-12 205q-114 -219 -365 -219q-186 0 -244 135v-481h-159z" />
<glyph unicode="&#xb6;" horiz-adv-x="952" d="M35 1200q0 113 69.5 181.5t212.5 68.5h512v-1810h-108v1697h-344v-1697h-109v1294q-117 10 -175 80t-58 186z" />
<glyph unicode="&#xb7;" horiz-adv-x="391" d="M100 492v413h191v-413h-191z" />
<glyph unicode="&#xb8;" horiz-adv-x="380" d="M84 -434l115 344l118 -344h-233z" />
<glyph unicode="&#xb9;" horiz-adv-x="325" d="M92 745v697l113 43h20v-740h-133z" />
<glyph unicode="&#xba;" horiz-adv-x="800" d="M98 893q0 146 84 231.5t217 85.5t217 -85.5t84 -231.5q0 -127 -81 -211t-220 -84q-137 0 -219 84t-82 211zM227 899q0 -80 46 -133t126 -53t126 53t46 133q0 89 -47.5 143t-124.5 54t-124.5 -54t-47.5 -143z" />
<glyph unicode="&#xbb;" horiz-adv-x="1110" d="M59 213l287 393l-287 391h115l322 -391l-322 -393h-115zM614 213l287 393l-287 391h115l322 -391l-322 -393h-115z" />
<glyph unicode="&#xbc;" horiz-adv-x="1556" d="M78 -78l1112 1594h129l-1110 -1594h-131zM279 745v697l112 43h21v-740h-133zM795 252l448 453h119v-472h119v-104h-119v-149h-125v149h-410zM922 233h317v318z" />
<glyph unicode="&#xbd;" horiz-adv-x="1533" d="M78 -78l1112 1594h129l-1110 -1594h-131zM279 745v697l112 43h21v-740h-133zM881 16q0 192 127 269q35 21 100 37.5t112 27.5t84 45t37 92q0 44 -27 71.5t-61 36.5t-75 9q-158 0 -195 -125l-90 62q31 92 107 135t178 43q120 0 200 -57t80 -173q0 -61 -19 -105.5 t-49.5 -68t-70 -41t-80.5 -25.5t-80.5 -20.5t-70 -26.5t-49.5 -43.5t-19 -72.5h426v-106h-565v36z" />
<glyph unicode="&#xbe;" horiz-adv-x="1552" d="M76 924l117 47q43 -133 200 -133q103 0 150 33.5t47 115.5q0 64 -40 95.5t-106 31.5q-50 0 -96 -14l-49 43l180 225h-327v102h536v-18l-221 -264q2 0 13.5 1t19.5 1q93 0 153 -55t60 -148q0 -87 -45 -146.5t-114.5 -84.5t-158.5 -25q-74 0 -130.5 16t-107.5 60t-81 117z M156 -78l1112 1594h129l-1110 -1594h-131zM791 252l448 453h119v-472h119v-104h-119v-149h-125v149h-410zM918 233h317v318z" />
<glyph unicode="&#xbf;" horiz-adv-x="1087" d="M74 371q0 74 20.5 134.5t61 108t84.5 81.5t108 71q76 43 108.5 88.5t32.5 138.5h136q2 -14 2 -39q0 -68 -21 -120.5t-54.5 -86t-73.5 -61.5t-80.5 -55.5t-74 -60.5t-54.5 -84.5t-21 -118.5q0 -110 81.5 -172t215.5 -62q173 0 257.5 73.5t108.5 231.5l150 -49 q-65 -416 -510 -416q-134 0 -240 43.5t-171.5 135t-65.5 219.5zM473 1079v371h164v-371h-164z" />
<glyph unicode="&#xc0;" horiz-adv-x="1716" d="M16 0l822 1450h45l815 -1450h-205l-121 217h-1032l-119 -217h-205zM418 358h876l-440 797zM446 1982h226l393 -426h-145z" />
<glyph unicode="&#xc1;" horiz-adv-x="1716" d="M16 0l822 1450h45l815 -1450h-205l-121 217h-1032l-119 -217h-205zM418 358h876l-440 797zM651 1556l393 426h226l-475 -426h-144z" />
<glyph unicode="&#xc2;" horiz-adv-x="1716" d="M16 0l822 1450h45l815 -1450h-205l-121 217h-1032l-119 -217h-205zM418 358h876l-440 797zM479 1561v108l379 295l379 -295v-108l-379 247z" />
<glyph unicode="&#xc3;" horiz-adv-x="1716" d="M16 0l822 1450h45l815 -1450h-205l-121 217h-1032l-119 -217h-205zM418 358h876l-440 797zM430 1642v160q89 113 203 113q47 0 95.5 -17t89.5 -41t81 -48t84 -41t84 -17q45 0 95.5 31.5t121.5 122.5v-172q-51 -57 -101 -83t-108 -26q-54 0 -113.5 25.5t-103.5 55.5 t-103 55.5t-112 25.5q-41 0 -87 -30t-126 -114z" />
<glyph unicode="&#xc4;" horiz-adv-x="1716" d="M16 0l822 1450h45l815 -1450h-205l-121 217h-1032l-119 -217h-205zM418 358h876l-440 797zM514 1556v318h156v-318h-156zM1044 1556v318h156v-318h-156z" />
<glyph unicode="&#xc5;" horiz-adv-x="1716" d="M16 0l822 1450h45l815 -1450h-205l-121 217h-1032l-119 -217h-205zM418 358h876l-440 797zM551 1729q0 125 71 189t234 64q162 0 235.5 -64.5t73.5 -188.5q0 -127 -73.5 -193t-235.5 -66q-163 0 -234 65.5t-71 193.5zM635 1729q0 -91 51.5 -136t169.5 -45t169.5 45 t51.5 136q0 88 -51.5 132t-169.5 44t-169.5 -44t-51.5 -132z" />
<glyph unicode="&#xc6;" horiz-adv-x="2338" d="M16 0l795 1450h1389v-156h-799v-475h516v-143h-516v-516h850v-160h-1041v410h-770l-219 -410h-205zM516 551h694v743h-295z" />
<glyph unicode="&#xc7;" horiz-adv-x="1437" d="M78 709q0 174 56.5 320t153.5 244t228.5 152t280.5 54q316 0 493 -207l-98 -142q-137 170 -393 170q-160 0 -281.5 -77.5t-184.5 -211t-63 -302.5q0 -253 140.5 -406t382.5 -153q138 0 264 63t221 190l111 -120q-115 -153 -275.5 -232.5t-331.5 -79.5q-223 0 -383.5 94.5 t-240.5 259.5t-80 384zM643 -434l115 344l119 -344h-234z" />
<glyph unicode="&#xc8;" horiz-adv-x="1382" d="M123 0v1450h1122v-156h-930v-473h627v-143h-627v-516h979v-162h-1171zM279 1982h225l393 -426h-145z" />
<glyph unicode="&#xc9;" horiz-adv-x="1382" d="M123 0v1450h1122v-156h-930v-473h627v-143h-627v-516h979v-162h-1171zM483 1556l394 426h225l-475 -426h-144z" />
<glyph unicode="&#xca;" horiz-adv-x="1382" d="M123 0v1450h1122v-156h-930v-473h627v-143h-627v-516h979v-162h-1171zM311 1561v108l379 295l379 -295v-108l-379 247z" />
<glyph unicode="&#xcb;" horiz-adv-x="1382" d="M123 0v1450h1122v-156h-930v-473h627v-143h-627v-516h979v-162h-1171zM348 1556v318h156v-318h-156zM879 1556v318h155v-318h-155z" />
<glyph unicode="&#xcc;" horiz-adv-x="440" d="M-190 1982h225l393 -426h-145zM123 0v1450h194v-1450h-194z" />
<glyph unicode="&#xcd;" horiz-adv-x="440" d="M14 1556l394 426h225l-475 -426h-144zM123 0v1450h194v-1450h-194z" />
<glyph unicode="&#xce;" horiz-adv-x="440" d="M-158 1561v108l379 295l379 -295v-108l-379 247zM123 0v1450h194v-1450h-194z" />
<glyph unicode="&#xcf;" horiz-adv-x="440" d="M-123 1556v318h156v-318h-156zM123 0v1450h194v-1450h-194zM408 1556v318h155v-318h-155z" />
<glyph unicode="&#xd0;" horiz-adv-x="1562" d="M16 678v143h107v629h686q118 0 216 -20t184.5 -68t146 -122t93.5 -187.5t34 -259.5q0 -178 -60 -327t-166 -251t-254 -158.5t-321 -56.5h-559v678h-107zM307 166h391q268 0 436.5 168t168.5 452q0 259 -132 384.5t-362 125.5h-502v-475h502v-143h-502v-512z" />
<glyph unicode="&#xd1;" horiz-adv-x="1460" d="M119 0v1450h51l987 -1063v1063h182v-1450h-30l-1008 1069v-1069h-182zM303 1642v160q89 113 203 113q47 0 95.5 -17t89.5 -41t81 -48t84 -41t84 -17q45 0 95.5 31.5t121.5 122.5v-172q-51 -57 -101 -83t-108 -26q-54 0 -113.5 25.5t-103.5 55.5t-103 55.5t-112 25.5 q-41 0 -87 -30t-126 -114z" />
<glyph unicode="&#xd2;" d="M78 725q0 207 96.5 379t272 273.5t393.5 101.5q217 0 392.5 -101t272.5 -273.5t97 -379.5q0 -206 -97 -378t-272.5 -274t-392.5 -102q-218 0 -393.5 102t-272 274t-96.5 378zM264 729q0 -160 72 -293.5t205 -213t299 -79.5t299 79t205.5 213t72.5 294t-72 293.5 t-203.5 212t-295.5 78.5q-167 0 -301 -78.5t-207.5 -211.5t-73.5 -294zM428 1982h225l394 -426h-146z" />
<glyph unicode="&#xd3;" d="M78 725q0 207 96.5 379t272 273.5t393.5 101.5q217 0 392.5 -101t272.5 -273.5t97 -379.5q0 -206 -97 -378t-272.5 -274t-392.5 -102q-218 0 -393.5 102t-272 274t-96.5 378zM264 729q0 -160 72 -293.5t205 -213t299 -79.5t299 79t205.5 213t72.5 294t-72 293.5 t-203.5 212t-295.5 78.5q-167 0 -301 -78.5t-207.5 -211.5t-73.5 -294zM633 1556l393 426h225l-475 -426h-143z" />
<glyph unicode="&#xd4;" d="M78 725q0 207 96.5 379t272 273.5t393.5 101.5q217 0 392.5 -101t272.5 -273.5t97 -379.5q0 -206 -97 -378t-272.5 -274t-392.5 -102q-218 0 -393.5 102t-272 274t-96.5 378zM264 729q0 -160 72 -293.5t205 -213t299 -79.5t299 79t205.5 213t72.5 294t-72 293.5 t-203.5 212t-295.5 78.5q-167 0 -301 -78.5t-207.5 -211.5t-73.5 -294zM461 1561v108l379 295l379 -295v-108l-379 247z" />
<glyph unicode="&#xd5;" d="M78 725q0 207 96.5 379t272 273.5t393.5 101.5q217 0 392.5 -101t272.5 -273.5t97 -379.5q0 -206 -97 -378t-272.5 -274t-392.5 -102q-218 0 -393.5 102t-272 274t-96.5 378zM264 729q0 -160 72 -293.5t205 -213t299 -79.5t299 79t205.5 213t72.5 294t-72 293.5 t-203.5 212t-295.5 78.5q-167 0 -301 -78.5t-207.5 -211.5t-73.5 -294zM412 1642v160q89 113 202 113q47 0 95.5 -17t89.5 -41t81 -48t84.5 -41t84.5 -17q45 0 95.5 31.5t121.5 122.5v-172q-51 -57 -101 -83t-108 -26q-54 0 -113.5 25.5t-103.5 55.5t-103 55.5t-112 25.5 q-41 0 -87 -30t-126 -114z" />
<glyph unicode="&#xd6;" d="M78 725q0 207 96.5 379t272 273.5t393.5 101.5q217 0 392.5 -101t272.5 -273.5t97 -379.5q0 -206 -97 -378t-272.5 -274t-392.5 -102q-218 0 -393.5 102t-272 274t-96.5 378zM264 729q0 -160 72 -293.5t205 -213t299 -79.5t299 79t205.5 213t72.5 294t-72 293.5 t-203.5 212t-295.5 78.5q-167 0 -301 -78.5t-207.5 -211.5t-73.5 -294zM496 1556v318h155v-318h-155zM1026 1556v318h156v-318h-156z" />
<glyph unicode="&#xd7;" horiz-adv-x="1316" d="M240 416l335 338l-335 338l82 82l337 -338l336 338l82 -82l-338 -336l338 -338l-82 -82l-338 336l-338 -336z" />
<glyph unicode="&#xd8;" d="M78 725q0 207 96.5 379t272 273.5t393.5 101.5q198 0 370 -90l93 139l96 -68l-90 -135q138 -104 215.5 -260.5t77.5 -339.5q0 -206 -97 -378t-272.5 -274t-392.5 -102q-207 0 -377 92l-82 -122l-96 67l80 119q-136 105 -211.5 261.5t-75.5 336.5zM264 729 q0 -136 52.5 -253.5t148.5 -199.5l649 971q-126 66 -268 66q-167 0 -301 -78.5t-207.5 -211.5t-73.5 -294zM561 211q127 -68 279 -68q166 0 299 79t205.5 213t72.5 294q0 135 -54.5 254t-150.5 199z" />
<glyph unicode="&#xd9;" horiz-adv-x="1488" d="M109 672v778h190v-801q0 -240 114 -374t343 -134q219 0 329.5 130t110.5 378v801h186v-778q0 -341 -156.5 -521t-469.5 -180q-315 0 -481 181t-166 520zM332 1982h225l393 -426h-145z" />
<glyph unicode="&#xda;" horiz-adv-x="1488" d="M109 672v778h190v-801q0 -240 114 -374t343 -134q219 0 329.5 130t110.5 378v801h186v-778q0 -341 -156.5 -521t-469.5 -180q-315 0 -481 181t-166 520zM537 1556l393 426h225l-475 -426h-143z" />
<glyph unicode="&#xdb;" horiz-adv-x="1488" d="M109 672v778h190v-801q0 -240 114 -374t343 -134q219 0 329.5 130t110.5 378v801h186v-778q0 -341 -156.5 -521t-469.5 -180q-315 0 -481 181t-166 520zM365 1561v108l378 295l379 -295v-108l-379 247z" />
<glyph unicode="&#xdc;" horiz-adv-x="1488" d="M109 672v778h190v-801q0 -240 114 -374t343 -134q219 0 329.5 130t110.5 378v801h186v-778q0 -341 -156.5 -521t-469.5 -180q-315 0 -481 181t-166 520zM401 1556v318h156v-318h-156zM932 1556v318h155v-318h-155z" />
<glyph unicode="&#xdd;" horiz-adv-x="1593" d="M16 1450h226l555 -659l555 659h223l-688 -817v-633h-187v633zM590 1556l393 426h225l-475 -426h-143z" />
<glyph unicode="&#xde;" horiz-adv-x="1394" d="M123 0v1450h188v-195h400q136 0 249.5 -33t198.5 -96.5t132.5 -164.5t47.5 -230q0 -171 -83 -293.5t-223 -181.5t-322 -59h-400v-197h-188zM311 344h375q224 0 344.5 99t120.5 290q0 189 -120 285t-345 96h-375v-770z" />
<glyph unicode="&#xdf;" horiz-adv-x="1259" d="M115 0v1010q0 231 111 350t331 119h512v-23l-360 -600q61 23 116 23q158 0 262.5 -116t104.5 -306q0 -247 -135 -366.5t-379 -119.5q-105 0 -193 29l43 127q80 -27 148 -27q179 0 269.5 85.5t90.5 273.5q0 157 -75.5 235t-196.5 78q-110 0 -189 -49l-49 53l334 578h-299 q-142 0 -211 -75.5t-69 -229.5v-1049h-166z" />
<glyph unicode="&#xe0;" horiz-adv-x="1114" d="M63 338q0 167 115.5 255.5t300.5 88.5q260 0 387 -154v27q0 105 -22 175t-69.5 110t-113.5 56.5t-163 16.5h-303v142h311q275 0 394.5 -131t119.5 -420v-504h-127l-12 178q-131 -207 -414 -207q-186 0 -295 95.5t-109 271.5zM145 1587h226l393 -426h-146zM213 338 q0 -117 82 -174.5t211 -57.5q260 0 371 209v78q-59 82 -157.5 124t-211.5 42q-86 0 -150 -21t-104.5 -72t-40.5 -128z" />
<glyph unicode="&#xe1;" horiz-adv-x="1114" d="M63 338q0 167 115.5 255.5t300.5 88.5q260 0 387 -154v27q0 105 -22 175t-69.5 110t-113.5 56.5t-163 16.5h-303v142h311q275 0 394.5 -131t119.5 -420v-504h-127l-12 178q-131 -207 -414 -207q-186 0 -295 95.5t-109 271.5zM213 338q0 -117 82 -174.5t211 -57.5 q260 0 371 209v78q-59 82 -157.5 124t-211.5 42q-86 0 -150 -21t-104.5 -72t-40.5 -128zM350 1161l393 426h226l-475 -426h-144z" />
<glyph unicode="&#xe2;" horiz-adv-x="1114" d="M63 338q0 167 115.5 255.5t300.5 88.5q260 0 387 -154v27q0 105 -22 175t-69.5 110t-113.5 56.5t-163 16.5h-303v142h311q275 0 394.5 -131t119.5 -420v-504h-127l-12 178q-131 -207 -414 -207q-186 0 -295 95.5t-109 271.5zM199 1165v109l379 295l378 -295v-109 l-378 248zM213 338q0 -117 82 -174.5t211 -57.5q260 0 371 209v78q-59 82 -157.5 124t-211.5 42q-86 0 -150 -21t-104.5 -72t-40.5 -128z" />
<glyph unicode="&#xe3;" horiz-adv-x="1114" d="M63 338q0 167 115.5 255.5t300.5 88.5q260 0 387 -154v27q0 105 -22 175t-69.5 110t-113.5 56.5t-163 16.5h-303v142h311q275 0 394.5 -131t119.5 -420v-504h-127l-12 178q-131 -207 -414 -207q-186 0 -295 95.5t-109 271.5zM150 1247v160q89 113 202 113q47 0 95.5 -17 t89.5 -41t81 -48t84 -41t84 -17q46 0 96.5 31t121.5 122v-172q-51 -57 -100.5 -82.5t-108.5 -25.5q-54 0 -113.5 25.5t-104 55.5t-103.5 55.5t-112 25.5q-40 0 -86 -30t-126 -114zM213 338q0 -117 82 -174.5t211 -57.5q260 0 371 209v78q-59 82 -157.5 124t-211.5 42 q-86 0 -150 -21t-104.5 -72t-40.5 -128z" />
<glyph unicode="&#xe4;" horiz-adv-x="1114" d="M63 338q0 167 115.5 255.5t300.5 88.5q260 0 387 -154v27q0 105 -22 175t-69.5 110t-113.5 56.5t-163 16.5h-303v142h311q275 0 394.5 -131t119.5 -420v-504h-127l-12 178q-131 -207 -414 -207q-186 0 -295 95.5t-109 271.5zM213 338q0 -117 82 -174.5t211 -57.5 q260 0 371 209v78q-59 82 -157.5 124t-211.5 42q-86 0 -150 -21t-104.5 -72t-40.5 -128zM233 1161v318h156v-318h-156zM764 1161v318h156v-318h-156z" />
<glyph unicode="&#xe5;" horiz-adv-x="1114" d="M63 338q0 167 115.5 255.5t300.5 88.5q260 0 387 -154v27q0 105 -22 175t-69.5 110t-113.5 56.5t-163 16.5h-303v142h311q275 0 394.5 -131t119.5 -420v-504h-127l-12 178q-131 -207 -414 -207q-186 0 -295 95.5t-109 271.5zM213 338q0 -117 82 -174.5t211 -57.5 q260 0 371 209v78q-59 82 -157.5 124t-211.5 42q-86 0 -150 -21t-104.5 -72t-40.5 -128zM250 1333q0 125 71 189.5t234 64.5q162 0 235.5 -64.5t73.5 -189.5q0 -127 -73.5 -192.5t-235.5 -65.5q-163 0 -234 65t-71 193zM334 1333q0 -91 51.5 -135.5t169.5 -44.5t169.5 44.5 t51.5 135.5q0 88 -51.5 132t-169.5 44t-169.5 -44t-51.5 -132z" />
<glyph unicode="&#xe6;" horiz-adv-x="1859" d="M63 338q0 167 115.5 255.5t300.5 88.5q153 0 262 -53q12 105 58 186q-43 53 -116.5 75.5t-184.5 22.5h-303v142h311q262 0 383 -121q149 149 383 149q202 0 334 -122.5t159 -325.5l-852 -248q40 -122 135.5 -199t229.5 -77q129 0 233.5 71.5t141.5 200.5l135 -45 q-54 -176 -197.5 -272.5t-330.5 -96.5q-227 0 -379 168q-63 -77 -168.5 -121.5t-245.5 -44.5q-186 0 -295 95.5t-109 271.5zM213 338q0 -117 82 -174.5t211 -57.5q198 0 309 121q-71 124 -80 283q-101 49 -227 49q-86 0 -150 -21t-104.5 -72t-40.5 -128zM889 541 q0 -31 2 -47l702 206q-63 246 -331 246q-165 0 -269 -110.5t-104 -294.5z" />
<glyph unicode="&#xe7;" horiz-adv-x="1120" d="M68 522q0 254 149 407.5t385 153.5q323 0 457 -264l-125 -76q-103 201 -328 201q-169 0 -272 -114.5t-103 -303.5q0 -181 97 -295t270 -114q131 0 223.5 67.5t134.5 177.5l123 -71q-48 -138 -176 -229t-315 -91q-222 0 -371 156t-149 395zM483 -434l115 344l119 -344 h-234z" />
<glyph unicode="&#xe8;" horiz-adv-x="1202" d="M78 545q0 121 42 223t114.5 170.5t170.5 106.5t209 38q202 0 334.5 -122.5t159.5 -325.5l-852 -248q40 -122 135.5 -199t229.5 -77q129 0 233 71.5t141 200.5l135 -45q-54 -176 -197.5 -272.5t-330.5 -96.5q-150 0 -270 76t-187 207.5t-67 292.5zM188 1587h226l393 -426 h-145zM231 541q0 -31 2 -47l703 206q-63 246 -332 246q-165 0 -269 -110.5t-104 -294.5z" />
<glyph unicode="&#xe9;" horiz-adv-x="1202" d="M78 545q0 121 42 223t114.5 170.5t170.5 106.5t209 38q202 0 334.5 -122.5t159.5 -325.5l-852 -248q40 -122 135.5 -199t229.5 -77q129 0 233 71.5t141 200.5l135 -45q-54 -176 -197.5 -272.5t-330.5 -96.5q-150 0 -270 76t-187 207.5t-67 292.5zM231 541q0 -31 2 -47 l703 206q-63 246 -332 246q-165 0 -269 -110.5t-104 -294.5zM393 1161l393 426h226l-475 -426h-144z" />
<glyph unicode="&#xea;" horiz-adv-x="1202" d="M78 545q0 121 42 223t114.5 170.5t170.5 106.5t209 38q202 0 334.5 -122.5t159.5 -325.5l-852 -248q40 -122 135.5 -199t229.5 -77q129 0 233 71.5t141 200.5l135 -45q-54 -176 -197.5 -272.5t-330.5 -96.5q-150 0 -270 76t-187 207.5t-67 292.5zM231 541q0 -31 2 -47 l703 206q-63 246 -332 246q-165 0 -269 -110.5t-104 -294.5zM242 1165v109l379 295l378 -295v-109l-378 248z" />
<glyph unicode="&#xeb;" horiz-adv-x="1202" d="M78 545q0 121 42 223t114.5 170.5t170.5 106.5t209 38q202 0 334.5 -122.5t159.5 -325.5l-852 -248q40 -122 135.5 -199t229.5 -77q129 0 233 71.5t141 200.5l135 -45q-54 -176 -197.5 -272.5t-330.5 -96.5q-150 0 -270 76t-187 207.5t-67 292.5zM231 541q0 -31 2 -47 l703 206q-63 246 -332 246q-165 0 -269 -110.5t-104 -294.5zM258 1161v318h156v-318h-156zM788 1161v318h156v-318h-156z" />
<glyph unicode="&#xec;" horiz-adv-x="512" d="M-100 1587h225l393 -426h-145zM231 0v1055h156v-1055h-156z" />
<glyph unicode="&#xed;" horiz-adv-x="497" d="M-4 1161l393 426h225l-475 -426h-143zM123 0v1055h156v-1055h-156z" />
<glyph unicode="&#xee;" horiz-adv-x="714" d="M-25 1165v109l379 295l379 -295v-109l-379 248zM274 0v1055h156v-1055h-156z" />
<glyph unicode="&#xef;" horiz-adv-x="647" d="M-20 1161v318h155v-318h-155zM244 0v1055h155v-1055h-155zM510 1161v318h156v-318h-156z" />
<glyph unicode="&#xf0;" horiz-adv-x="1222" d="M68 444q0 99 27.5 175.5t71.5 123t106.5 76t126 40.5t135.5 11q306 0 475 -270q0 18 1 56t1 59q0 367 -158 520l-201 -160h-118l260 207q-88 57 -217 57q-131 0 -295 -77q-29 79 -45 127q161 90 344 90q87 0 176.5 -26.5t154.5 -76.5l127 103h119l-194 -156 q98 -121 136 -290t38 -384q0 -117 -18 -216.5t-60 -185.5t-105 -146.5t-157.5 -95t-214.5 -34.5q-108 0 -200 29t-163 85.5t-112 148.5t-41 210zM229 451q0 -169 101 -261t262 -92q177 0 270 107t109 287q-139 278 -412 278q-67 0 -123 -16t-104 -51.5t-75.5 -99.5 t-27.5 -152z" />
<glyph unicode="&#xf1;" horiz-adv-x="1163" d="M115 0v1055h131l14 -205q64 115 178.5 174t241.5 59q176 0 277.5 -89.5t101.5 -264.5v-729h-156v688q0 134 -67 197t-209 63q-107 0 -203.5 -68t-149.5 -202v-678h-159zM154 1247v160q89 113 202 113q47 0 95.5 -17t89.5 -41t81 -48t84.5 -41t84.5 -17q46 0 96 31 t121 122v-172q-51 -57 -100.5 -82.5t-108.5 -25.5q-54 0 -113.5 25.5t-103.5 55.5t-103 55.5t-112 25.5q-41 0 -87 -30t-126 -114z" />
<glyph unicode="&#xf2;" horiz-adv-x="1216" d="M68 506q0 265 151 421t389 156q155 0 276.5 -68.5t192 -200.5t70.5 -308q0 -151 -63 -271t-186.5 -192t-289.5 -72q-165 0 -289 71.5t-187.5 192.5t-63.5 271zM197 1587h225l393 -426h-145zM231 514q0 -172 100.5 -285.5t276.5 -113.5q175 0 276 113.5t101 285.5 q0 194 -105 309t-272 115q-168 0 -272.5 -115t-104.5 -309z" />
<glyph unicode="&#xf3;" horiz-adv-x="1216" d="M68 506q0 265 151 421t389 156q155 0 276.5 -68.5t192 -200.5t70.5 -308q0 -151 -63 -271t-186.5 -192t-289.5 -72q-165 0 -289 71.5t-187.5 192.5t-63.5 271zM231 514q0 -172 100.5 -285.5t276.5 -113.5q175 0 276 113.5t101 285.5q0 194 -105 309t-272 115 q-168 0 -272.5 -115t-104.5 -309zM401 1161l394 426h225l-475 -426h-144z" />
<glyph unicode="&#xf4;" horiz-adv-x="1216" d="M68 506q0 265 151 421t389 156q155 0 276.5 -68.5t192 -200.5t70.5 -308q0 -151 -63 -271t-186.5 -192t-289.5 -72q-165 0 -289 71.5t-187.5 192.5t-63.5 271zM229 1165v109l379 295l379 -295v-109l-379 248zM231 514q0 -172 100.5 -285.5t276.5 -113.5q175 0 276 113.5 t101 285.5q0 194 -105 309t-272 115q-168 0 -272.5 -115t-104.5 -309z" />
<glyph unicode="&#xf5;" horiz-adv-x="1216" d="M68 506q0 265 151 421t389 156q155 0 276.5 -68.5t192 -200.5t70.5 -308q0 -151 -63 -271t-186.5 -192t-289.5 -72q-165 0 -289 71.5t-187.5 192.5t-63.5 271zM180 1247v160q89 113 203 113q47 0 95.5 -17t89.5 -41t81 -48t84 -41t84 -17q46 0 96 31t121 122v-172 q-51 -57 -100.5 -82.5t-108.5 -25.5q-54 0 -113.5 25.5t-103.5 55.5t-103 55.5t-112 25.5q-41 0 -87 -30t-126 -114zM231 514q0 -172 100.5 -285.5t276.5 -113.5q175 0 276 113.5t101 285.5q0 194 -105 309t-272 115q-168 0 -272.5 -115t-104.5 -309z" />
<glyph unicode="&#xf6;" horiz-adv-x="1216" d="M68 506q0 265 151 421t389 156q155 0 276.5 -68.5t192 -200.5t70.5 -308q0 -151 -63 -271t-186.5 -192t-289.5 -72q-165 0 -289 71.5t-187.5 192.5t-63.5 271zM231 514q0 -172 100.5 -285.5t276.5 -113.5q175 0 276 113.5t101 285.5q0 194 -105 309t-272 115 q-168 0 -272.5 -115t-104.5 -309zM264 1161v318h156v-318h-156zM795 1161v318h155v-318h-155z" />
<glyph unicode="&#xf7;" horiz-adv-x="1316" d="M123 696v115h1071v-115h-1071zM563 160v413h191v-413h-191zM563 934v414h191v-414h-191z" />
<glyph unicode="&#xf8;" horiz-adv-x="1216" d="M68 506q0 265 151 421t389 156q138 0 248 -55l123 191l96 -68l-121 -186q91 -75 142 -192.5t51 -266.5q0 -151 -63 -271t-186.5 -192t-289.5 -72q-140 0 -258 56l-102 -158l-94 68l98 151q-89 73 -136.5 181.5t-47.5 236.5zM231 514q0 -180 107 -293l436 680 q-79 37 -166 37q-168 0 -272.5 -115t-104.5 -309zM432 154q76 -39 176 -39q175 0 276 113.5t101 285.5q0 199 -115 317z" />
<glyph unicode="&#xf9;" horiz-adv-x="1138" d="M109 326v729h155v-688q0 -135 63 -198t201 -63q104 0 195.5 68t144.5 203v678h160v-1055h-133l-14 205q-62 -116 -169 -175t-231 -59q-173 0 -272.5 90t-99.5 265zM158 1587h225l393 -426h-145z" />
<glyph unicode="&#xfa;" horiz-adv-x="1138" d="M109 326v729h155v-688q0 -135 63 -198t201 -63q104 0 195.5 68t144.5 203v678h160v-1055h-133l-14 205q-62 -116 -169 -175t-231 -59q-173 0 -272.5 90t-99.5 265zM362 1161l394 426h225l-475 -426h-144z" />
<glyph unicode="&#xfb;" horiz-adv-x="1138" d="M109 326v729h155v-688q0 -135 63 -198t201 -63q104 0 195.5 68t144.5 203v678h160v-1055h-133l-14 205q-62 -116 -169 -175t-231 -59q-173 0 -272.5 90t-99.5 265zM190 1165v109l379 295l379 -295v-109l-379 248z" />
<glyph unicode="&#xfc;" horiz-adv-x="1138" d="M109 326v729h155v-688q0 -135 63 -198t201 -63q104 0 195.5 68t144.5 203v678h160v-1055h-133l-14 205q-62 -116 -169 -175t-231 -59q-173 0 -272.5 90t-99.5 265zM225 1161v318h156v-318h-156zM756 1161v318h155v-318h-155z" />
<glyph unicode="&#xfd;" horiz-adv-x="1177" d="M109 481v574h163v-592q0 -131 64.5 -196.5t202.5 -65.5q102 0 171 31t112.5 87.5t86.5 155.5v580h160v-889q0 -126 -33.5 -225t-84.5 -157t-119 -96t-129.5 -51.5t-124.5 -13.5q-135 0 -191 21v137q68 -21 168 -21q168 0 260 106.5t92 297.5v117q-113 -215 -407 -215 q-206 0 -298.5 106t-92.5 309zM381 1161l393 426h225l-475 -426h-143z" />
<glyph unicode="&#xfe;" horiz-adv-x="1247" d="M115 -360v1839h159v-637q47 96 162 168.5t273 72.5q120 0 211 -44.5t144.5 -122t80 -175t26.5 -211.5q0 -91 -16 -171.5t-52 -152.5t-88.5 -123.5t-131 -81.5t-174.5 -30q-82 0 -156 22t-127.5 58.5t-91.5 77.5t-60 84v-573h-159zM274 399q26 -76 73 -135t129.5 -99 t187.5 -40q93 0 161.5 31t108 87t58 127.5t18.5 159.5q0 89 -18.5 161.5t-58 130t-108 89t-161.5 31.5q-156 0 -253 -80.5t-137 -208.5v-254z" />
<glyph unicode="&#xff;" horiz-adv-x="1177" d="M109 481v574h163v-592q0 -131 64.5 -196.5t202.5 -65.5q102 0 171 31t112.5 87.5t86.5 155.5v580h160v-889q0 -126 -33.5 -225t-84.5 -157t-119 -96t-129.5 -51.5t-124.5 -13.5q-135 0 -191 21v137q68 -21 168 -21q168 0 260 106.5t92 297.5v117q-113 -215 -407 -215 q-206 0 -298.5 106t-92.5 309zM246 1161v318h155v-318h-155zM776 1161v318h156v-318h-156z" />
<glyph unicode="&#x152;" horiz-adv-x="2277" d="M78 725q0 161 56.5 297t157 229.5t241.5 146t307 52.5h1304v-156h-798v-473h499v-143h-499v-516h845v-162h-1353q-220 0 -393 89.5t-270 255t-97 380.5zM264 729q0 -163 72.5 -292t204 -201.5t299.5 -73.5h315v1132h-309q-256 0 -419 -158.5t-163 -406.5z" />
<glyph unicode="&#x153;" horiz-adv-x="1898" d="M68 506q0 265 151 421t389 156q206 0 350 -122q147 122 355 122q202 0 334 -122.5t159 -325.5l-852 -248q40 -122 135.5 -199t229.5 -77q129 0 233.5 71.5t141.5 200.5l135 -45q-54 -176 -198 -272.5t-331 -96.5q-191 0 -331 121q-141 -119 -361 -119q-165 0 -289 71.5 t-187.5 192.5t-63.5 271zM231 514q0 -172 100.5 -285.5t276.5 -113.5q159 0 258 96q-90 145 -90 334q0 170 80 299q-105 94 -248 94q-168 0 -272.5 -115t-104.5 -309zM930 541q0 -31 2 -47l702 206q-63 246 -331 246q-165 0 -269 -110.5t-104 -294.5z" />
<glyph unicode="&#x178;" horiz-adv-x="1593" d="M16 1450h226l555 -659l555 659h223l-688 -817v-633h-187v633zM453 1556v318h155v-318h-155zM983 1556v318h156v-318h-156z" />
<glyph unicode="&#x2c6;" horiz-adv-x="1001" d="M123 1165v109l379 295l379 -295v-109l-379 248z" />
<glyph unicode="&#x2dc;" horiz-adv-x="1097" d="M121 1247v160q89 113 203 113q47 0 95.5 -17t89.5 -41t81 -48t84 -41t84 -17q46 0 96 31t121 122v-172q-51 -57 -100.5 -82.5t-108.5 -25.5q-54 0 -113.5 25.5t-103.5 55.5t-103 55.5t-112 25.5q-41 0 -87 -30t-126 -114z" />
<glyph unicode="&#x2000;" horiz-adv-x="991" />
<glyph unicode="&#x2001;" horiz-adv-x="1982" />
<glyph unicode="&#x2002;" horiz-adv-x="991" />
<glyph unicode="&#x2003;" horiz-adv-x="1982" />
<glyph unicode="&#x2004;" horiz-adv-x="660" />
<glyph unicode="&#x2005;" horiz-adv-x="495" />
<glyph unicode="&#x2006;" horiz-adv-x="330" />
<glyph unicode="&#x2007;" horiz-adv-x="330" />
<glyph unicode="&#x2008;" horiz-adv-x="247" />
<glyph unicode="&#x2009;" horiz-adv-x="396" />
<glyph unicode="&#x200a;" horiz-adv-x="110" />
<glyph unicode="&#x2010;" horiz-adv-x="823" d="M59 561v137h703v-137h-703z" />
<glyph unicode="&#x2011;" horiz-adv-x="823" d="M59 561v137h703v-137h-703z" />
<glyph unicode="&#x2012;" horiz-adv-x="823" d="M59 561v137h703v-137h-703z" />
<glyph unicode="&#x2013;" horiz-adv-x="1187" d="M59 561v137h1069v-137h-1069z" />
<glyph unicode="&#x2014;" horiz-adv-x="1695" d="M59 561v137h1575v-137h-1575z" />
<glyph unicode="&#x2018;" horiz-adv-x="421" d="M98 1057v393h189v-401l-41 -19l71 -325h-59z" />
<glyph unicode="&#x2019;" horiz-adv-x="421" d="M98 705l72 325l-43 19v401h190v-393l-159 -352h-60z" />
<glyph unicode="&#x201a;" horiz-adv-x="421" d="M98 -330l72 328l-41 14v402h188v-394l-159 -350h-60z" />
<glyph unicode="&#x201c;" horiz-adv-x="843" d="M98 1057v393h189v-401l-41 -19l71 -325h-59zM520 1057v393h189v-401l-41 -19l71 -325h-59z" />
<glyph unicode="&#x201d;" horiz-adv-x="843" d="M98 705l72 325l-43 19v401h190v-393l-159 -352h-60zM520 705l72 325l-43 19v401h190v-393l-159 -352h-60z" />
<glyph unicode="&#x201e;" horiz-adv-x="843" d="M98 -330l72 328l-41 14v402h188v-394l-159 -350h-60zM520 -330l72 328l-41 14v402h188v-394l-159 -350h-60z" />
<glyph unicode="&#x2022;" horiz-adv-x="858" d="M102 727q0 136 94 232t230 96t233 -96.5t97 -231.5q0 -136 -96.5 -231t-233.5 -95q-136 0 -230 94.5t-94 231.5z" />
<glyph unicode="&#x2026;" horiz-adv-x="1806" d="M121 0v414h190v-414h-190zM801 0v414h190v-414h-190zM1481 0v414h190v-414h-190z" />
<glyph unicode="&#x202f;" horiz-adv-x="396" />
<glyph unicode="&#x2039;" horiz-adv-x="555" d="M59 606l324 391h113l-287 -391l287 -393h-113z" />
<glyph unicode="&#x203a;" horiz-adv-x="555" d="M59 213l287 393l-287 391h115l322 -391l-322 -393h-115z" />
<glyph unicode="&#x205f;" horiz-adv-x="495" />
<glyph unicode="&#x20ac;" horiz-adv-x="1353" d="M25 489l45 117h86q-11 68 -11 119q0 46 11 121h-131l45 115h114q73 228 267 373t454 145q253 0 445 -133l-107 -136q-140 103 -330 103q-184 0 -325 -97.5t-203 -254.5h680l-90 -115h-633q-10 -65 -10 -119q0 -75 10 -121h453l-93 -117h-315q61 -157 199.5 -252.5 t320.5 -95.5q193 0 344 109l127 -125q-200 -154 -473 -154q-262 0 -456.5 143.5t-264.5 374.5h-159z" />
<glyph unicode="&#x2122;" horiz-adv-x="1550" d="M76 1352v98h612v-98h-248v-572h-116v572h-248zM782 780v670h23l301 -471l299 471h22v-670h-106v383l-215 -375l-219 373v-381h-105z" />
<glyph unicode="&#x25fc;" horiz-adv-x="1054" d="M0 0v1055h1055v-1055h-1055z" />
</font>
</defs>
</svg>
